<svg width="195" height="40" viewBox="0 0 195 40" fill="none" xmlns="http://www.w3.org/2000/svg">
<rect width="195" height="40" fill="#1A3762"/>
<path d="M50.763 16.6825H46.3378L45.496 19.2859H42.8114L47.3725 6.65002H49.712L54.2985 19.2859H51.614L50.763 16.6825ZM47.0192 14.5733H50.082L48.5425 9.84398L47.0192 14.5733ZM58.054 14.8339V19.2859H55.5292V6.65002H60.3088C61.1459 6.6318 61.976 6.8098 62.7363 7.17059C63.4036 7.48883 63.9644 8.00368 64.3484 8.6502C64.7283 9.30981 64.9232 10.0657 64.9098 10.833C64.9348 11.3858 64.8365 11.9371 64.623 12.4448C64.4095 12.9526 64.086 13.4032 63.6776 13.7622C62.7014 14.5285 61.4905 14.9087 60.2654 14.8339H58.054ZM58.054 12.7253H60.3088C60.8588 12.7648 61.4033 12.5916 61.8361 12.2394C62.0165 12.0615 62.1571 11.845 62.2477 11.6051C62.339 11.3653 62.3774 11.1079 62.3617 10.8509C62.3733 10.577 62.3326 10.3034 62.2418 10.0459C62.1507 9.78825 62.0113 9.5517 61.8315 9.34974C61.6394 9.1535 61.4103 8.99991 61.1585 8.89843C60.9066 8.79695 60.6372 8.74973 60.367 8.75968H58.054V12.7253ZM75.9563 8.75916H72.2027V19.2864H69.6779V8.75916H65.975V6.65054H75.9563V8.75916ZM89.3496 8.75916H83.8793V11.2067H85.8485C87.0795 11.1377 88.2948 11.5206 89.278 12.2874C89.6928 12.6388 90.0232 13.0846 90.2432 13.5898C90.4625 14.0951 90.566 14.646 90.5445 15.1992C90.5643 15.7578 90.4619 16.3137 90.2437 16.8254C90.0256 17.3372 89.6986 17.7914 89.2862 18.1542C88.3402 18.9359 87.1523 19.3382 85.941 19.2869H81.3294V6.65002H89.3496V8.75916ZM83.8793 13.3064V17.1941H85.8904C86.4541 17.2238 87.0074 17.0281 87.4344 16.6478C87.6276 16.4606 87.7788 16.2326 87.8783 15.9795C87.9778 15.7264 88.0232 15.4541 88.0109 15.1813C88.0226 14.9269 87.9789 14.6731 87.8835 14.4382C87.7887 14.2033 87.6433 13.9933 87.4594 13.8233C87.033 13.4692 86.4966 13.2858 85.9492 13.307L83.8793 13.3064ZM99.1557 16.6825H94.7285L93.8873 19.2859H91.2025L95.7635 6.65002H98.1027L102.689 19.2859H100.005L99.1557 16.6825ZM95.4109 14.5739H98.4733L96.9334 9.84398L95.4109 14.5739ZM115.439 22.393H113.108V19.2875H105.721V22.3851H103.332L103.197 17.1952H104.122C104.671 16.6892 105.073 16.0353 105.281 15.3071C105.585 14.3054 105.77 13.2696 105.833 12.2221L106.186 6.65054H114.215V17.1947H115.643L115.439 22.393ZM107.016 17.1947H111.687V8.75916H108.583L108.372 12.0832C108.204 14.3104 107.752 16.0142 107.016 17.1947ZM124.424 13.8101H119.574V17.1947H125.263V19.2864H117.05V6.65002H125.246V8.75863H119.574V11.77H124.424V13.8101ZM136.805 19.2843H134.28V13.8707H129.357V19.2859H126.832V6.65002H129.357V11.7705H134.28V6.65002H136.805V19.2843ZM153.455 19.2843H150.922V8.75705H146.017V19.2843H143.492V6.65002H153.454L153.455 19.2843ZM162.672 16.6809H158.245L157.403 19.2843H154.719L159.28 6.64844H161.619L166.205 19.2859H163.521L162.672 16.6809ZM158.928 14.5723H161.99L160.45 9.84241L158.928 14.5723ZM169.962 14.8328V19.2849H167.438V6.65002H172.217C173.055 6.6318 173.885 6.8098 174.645 7.17059C175.312 7.48885 175.873 8.0037 176.257 8.6502C176.637 9.30981 176.832 10.0657 176.818 10.833C176.843 11.3859 176.745 11.9373 176.531 12.445C176.318 12.9527 175.994 13.4033 175.586 13.7622C174.609 14.5285 173.398 14.9087 172.173 14.8339L169.962 14.8328ZM169.962 12.7243H172.217C172.768 12.7637 173.312 12.5905 173.745 12.2384C173.925 12.0604 174.066 11.8439 174.156 11.6041C174.247 11.3643 174.286 11.1068 174.27 10.8499C174.282 10.576 174.241 10.3024 174.151 10.0448C174.059 9.7872 173.92 9.55065 173.74 9.34868C173.548 9.15245 173.319 8.99886 173.067 8.89738C172.815 8.7959 172.546 8.74868 172.276 8.75863H169.961L169.962 12.7243ZM182.637 14.1212H181.181V19.2849H178.656V6.65002H181.181V11.7094H182.334L185.33 6.65002H188.411L184.633 12.6295L188.807 19.2859H185.796L182.637 14.1212Z" fill="white"/>
</svg>
