<svg width="46" height="66" viewBox="0 0 46 66" fill="none" xmlns="http://www.w3.org/2000/svg">
<path d="M22.999 61.371C24.001 62.4873 24.0012 62.4871 24.0013 62.487L24.0017 62.4866L24.0028 62.4856L24.0063 62.4825L24.0182 62.4717L24.0617 62.4323C24.0992 62.3982 24.1536 62.3484 24.2237 62.2836C24.364 62.1539 24.5673 61.964 24.8245 61.7184C25.3388 61.2274 26.0692 60.5133 26.9418 59.6134C28.6852 57.8155 31.006 55.2661 33.3097 52.2635C43.5272 38.9563 44.4974 22.1144 44.498 14.2052C44.5122 12.909 44.4468 11.6937 44.3786 10.8056C44.3443 10.3591 44.3089 9.99194 44.282 9.73454C44.2685 9.60577 44.2571 9.50426 44.2489 9.43381L44.2392 9.35183L44.2364 9.32915L44.2356 9.32255L44.2353 9.32044L44.2352 9.3197L44.2352 9.3194C44.2352 9.31927 44.2351 9.31915 42.747 9.50738L44.2351 9.31915L44.1129 8.3525L43.18 8.07124L23.4599 2.12562L23.0269 1.99507L22.5939 2.12562L2.87382 8.07124L1.95358 8.34869L1.82113 9.30067L3.30682 9.50738C1.82113 9.30067 1.82111 9.30079 1.8211 9.30092L1.82105 9.30122L1.82095 9.30197L1.82066 9.30408L1.81975 9.31069L1.81668 9.33339L1.80592 9.41541C1.79684 9.48589 1.78415 9.58743 1.76906 9.71624C1.7389 9.97372 1.69906 10.341 1.65932 10.7875C1.58008 11.6778 1.5 12.8969 1.5 14.1969C1.5 22.1064 2.49647 38.9234 12.6862 52.2607C14.9908 55.2789 17.3128 57.8295 19.0572 59.6249C19.9304 60.5236 20.6612 61.2355 21.176 61.7247C21.4334 61.9694 21.637 62.1585 21.7775 62.2876C21.8477 62.3522 21.9022 62.4017 21.9398 62.4358L21.9834 62.4751L21.9954 62.4858L21.9989 62.489L22.0001 62.49L22.0005 62.4904C22.0006 62.4905 22.0008 62.4906 22.999 61.371ZM22.999 61.371L24.001 62.4873L23.0024 63.3837L22.0008 62.4906L22.999 61.371Z" fill="#101F62" stroke="white" stroke-width="3"/>
<path d="M36.3328 10.2891C35.9702 10.2891 35.6634 10.5124 35.5518 10.8753L33.7109 16.5417H35.4403L37.1138 11.3777C37.2812 10.8473 36.8907 10.2891 36.3328 10.2891Z" fill="white"/>
<path d="M24.2828 10.4287H18.8158L18.3138 11.964H22.1351L17.226 15.2578C16.8634 15.509 16.7797 16.0394 17.0586 16.3743C17.3096 16.6814 17.7559 16.7372 18.0627 16.5139L23.0276 13.1643L21.9398 16.5139H23.6692L25.2312 11.7407C25.4543 11.0986 24.9801 10.4287 24.2828 10.4287Z" fill="#13B5EA"/>
<path d="M10.8651 10.4287L8.88477 16.5418H10.6141L12.0924 11.964H15.6627L13.236 13.6109C12.8734 13.8342 12.7618 14.3366 13.0129 14.6716C13.2639 15.0345 13.7381 15.1182 14.0728 14.8949L17.0852 12.8572C18.173 12.1314 17.6431 10.4566 16.36 10.4566L10.8651 10.4287Z" fill="white"/>
<path d="M32.7897 10.4287H27.2948L25.3145 16.5418H27.0438L28.5221 11.964H32.0924L28.9405 14.0854L30.893 16.4022C31.144 16.7093 31.5903 16.7651 31.8971 16.5418C32.2876 16.2906 32.3434 15.7602 32.0645 15.4253L31.1998 14.3925L33.5149 12.8293C34.6306 12.1035 34.1006 10.4287 32.7897 10.4287Z" fill="white"/>
<path d="M37.1697 33.8202V27.2605L24.2275 35.9975V55.872C25.5385 54.5043 27.1284 52.7178 28.8019 50.6522V36.3324H27.4073L32.6232 32.8153V45.0694C34.6036 41.4965 36.0819 37.6444 37.1697 33.8202Z" fill="#13B5EA"/>
<path d="M9.44336 35.6067C10.4475 38.7889 11.7584 41.9989 13.4599 45.0415V36.3045H12.0653L17.2533 32.8153V50.6522C18.899 52.7178 20.5167 54.5043 21.8277 55.872V27.9863V27.2605L9.44336 35.6067Z" fill="#13B5EA"/>
<path d="M37.1697 18.7471L32.5953 20.0869V27.8748L28.8019 30.4429V18.7471L24.2275 20.0869V35.9977L37.1697 27.2607V18.7471Z" fill="white"/>
<path d="M9.27581 35.1324C9.3316 35.2999 9.38738 35.4395 9.41527 35.6069L21.7996 27.2607V18.7471L17.2252 20.1148V27.9028L13.4318 30.4708V18.7471L8.85742 20.1148V33.8205C8.99689 34.2392 9.13635 34.6858 9.27581 35.1324Z" fill="white"/>
</svg>
