<svg width="169" height="40" viewBox="0 0 169 40" fill="none" xmlns="http://www.w3.org/2000/svg">
<rect width="169" height="40" fill="#1A1A1A"/>
<path d="M14.368 12.992V14.672H7.84V19.424H14.176V21.104H7.84V27.32H14.368V29H6.064V12.992H14.368ZM17.6421 29V12.992H24.9381V14.672H19.4181V29H17.6421ZM39.8695 26.912C38.2695 28.496 36.3015 29.288 33.9655 29.288C31.6295 29.288 29.6535 28.496 28.0375 26.912C26.4375 25.328 25.6375 23.36 25.6375 21.008C25.6375 18.64 26.4455 16.672 28.0615 15.104C29.6775 13.52 31.6455 12.728 33.9655 12.728C36.2855 12.728 38.2535 13.52 39.8695 15.104C41.4855 16.672 42.2935 18.64 42.2935 21.008C42.2935 23.36 41.4855 25.328 39.8695 26.912ZM38.5735 16.328C37.3095 15.048 35.7735 14.408 33.9655 14.408C32.1575 14.408 30.6215 15.048 29.3575 16.328C28.0935 17.608 27.4615 19.168 27.4615 21.008C27.4615 22.848 28.0935 24.408 29.3575 25.688C30.6215 26.968 32.1575 27.608 33.9655 27.608C35.7735 27.608 37.3095 26.968 38.5735 25.688C39.8375 24.408 40.4695 22.848 40.4695 21.008C40.4695 19.168 39.8375 17.608 38.5735 16.328ZM45.5562 12.992H48.4602C50.2842 12.992 51.6282 13.368 52.4922 14.12C53.4682 14.952 53.9562 16.096 53.9562 17.552C53.9562 18.8 53.5322 19.864 52.6842 20.744C51.8522 21.608 50.5882 22.04 48.8922 22.04H47.3322V29H45.5562V12.992ZM47.3322 14.672V20.36H48.7962C49.8522 20.36 50.6762 20.104 51.2682 19.592C51.8762 19.08 52.1802 18.368 52.1802 17.456C52.1802 15.6 51.0042 14.672 48.6522 14.672H47.3322ZM62.1031 29V12.992H70.0471V14.672H63.8791V19.64H66.0391C69.7191 19.64 71.5591 21.144 71.5591 24.152C71.5591 25.656 71.0871 26.84 70.1431 27.704C69.2151 28.568 67.9591 29 66.3751 29H62.1031ZM63.8791 21.32V27.32H65.9431C67.3031 27.32 68.2871 27.024 68.8951 26.432C69.4551 25.904 69.7351 25.144 69.7351 24.152C69.7351 23 69.3031 22.192 68.4391 21.728C67.9431 21.456 67.0471 21.32 65.7511 21.32H63.8791ZM85.5336 29L83.6616 24.488H76.8456L74.9256 29H72.9576L80.3256 12.224L87.5016 29H85.5336ZM77.5416 22.808H82.9656L80.2776 16.4L77.5416 22.808ZM91.1513 12.992H100.895V27.32H102.719V32.36H101.039V29H89.7113V32.36H88.0313V27.32C88.5753 27.336 89.0713 27.144 89.5193 26.744C89.9673 26.328 90.3193 25.8 90.5753 25.16C90.9593 24.184 91.1513 22.784 91.1513 20.96V12.992ZM92.9273 14.672V20.96C92.9273 22.928 92.7353 24.416 92.3513 25.424C92.0793 26.144 91.6713 26.776 91.1273 27.32H99.1193V14.672H92.9273ZM103.239 12.992H105.399L110.391 22.424L114.567 12.992H116.487L109.263 29H107.343L109.383 24.536L103.239 12.992ZM118.93 12.992H128.674V29H126.898V14.672H120.706V23.264C120.706 24.016 120.698 24.584 120.682 24.968C120.666 25.336 120.538 25.864 120.298 26.552C120.074 27.224 119.73 27.768 119.266 28.184C118.546 28.824 117.634 29.144 116.53 29.144C116.274 29.144 115.954 29.096 115.57 29V27.32C115.89 27.416 116.186 27.464 116.458 27.464C117.082 27.464 117.602 27.256 118.018 26.84C118.306 26.552 118.522 26.144 118.666 25.616C118.81 25.072 118.89 24.616 118.906 24.248C118.922 23.88 118.93 23.312 118.93 22.544V12.992ZM143.95 29V16.784L132.814 29.72V12.992H134.59V25.256L145.726 12.32V29H143.95ZM151.629 12.992V19.496H159.837V12.992H161.613V29H159.837V21.176H151.629V29H149.853V12.992H151.629Z" fill="white"/>
</svg>
