<svg width="129" height="40" viewBox="0 0 129 40" fill="none" xmlns="http://www.w3.org/2000/svg">
<rect width="129" height="40" fill="#2D3735"/>
<g clip-path="url(#clip0_711_237)">
<path d="M25.7796 6.53745C25.7796 5.72658 26.4515 5.06738 27.278 5.06738C28.1045 5.06738 28.7764 5.72658 28.7764 6.53745C28.7764 8.74257 27.8666 10.7377 26.3921 12.1786C24.9175 13.6253 22.89 14.5179 20.6424 14.5179C18.3949 14.5179 16.3614 13.6253 14.8928 12.1786C13.4183 10.7318 12.5086 8.74257 12.5086 6.53745C12.5086 5.72658 13.1804 5.06738 14.0069 5.06738C14.8334 5.06738 15.5052 5.72658 15.5052 6.53745C15.5052 7.93169 16.082 9.19175 17.0095 10.1018C17.9371 11.0118 19.2273 11.5777 20.6484 11.5777C22.0694 11.5777 23.3538 11.0118 24.2813 10.1018C25.2088 9.19175 25.7796 7.93169 25.7796 6.53745Z" fill="white"/>
<path fill-rule="evenodd" clip-rule="evenodd" d="M20.6424 4C22.0397 4 23.1694 5.10839 23.1694 6.4793C23.1694 7.85021 22.0397 8.9586 20.6424 8.9586C19.2451 8.9586 18.1154 7.85021 18.1154 6.4793C18.1154 5.10839 19.2451 4 20.6424 4Z" fill="#00D89E"/>
<path d="M25.7796 33.3725C25.7796 34.1834 26.4515 34.8426 27.278 34.8426C28.1045 34.8426 28.7764 34.1834 28.7764 33.3725C28.7764 31.1674 27.8666 29.1723 26.3921 27.7313C24.9175 26.2846 22.89 25.3921 20.6424 25.3921C18.3949 25.3921 16.3614 26.2846 14.8928 27.7313C13.4183 29.1781 12.5086 31.1732 12.5086 33.3725C12.5086 34.1834 13.1804 34.8426 14.0069 34.8426C14.8334 34.8426 15.5052 34.1834 15.5052 33.3725C15.5052 31.9782 16.082 30.7182 17.0095 29.8023C17.9371 28.8923 19.2273 28.3264 20.6484 28.3264C22.0694 28.3264 23.3538 28.8923 24.2813 29.8023C25.2088 30.7182 25.7796 31.9782 25.7796 33.3725Z" fill="white"/>
<path fill-rule="evenodd" clip-rule="evenodd" d="M20.6424 35.91C22.0397 35.91 23.1694 34.8016 23.1694 33.4307C23.1694 32.0598 22.0397 30.9514 20.6424 30.9514C19.2451 30.9514 18.1154 32.0598 18.1154 33.4307C18.1154 34.8016 19.2451 35.91 20.6424 35.91Z" fill="#00D89E"/>
<path d="M34.6924 25.0011C35.5188 25.0011 36.1908 25.6604 36.1908 26.4712C36.1908 27.2821 35.5188 27.9413 34.6924 27.9413C32.4448 27.9413 30.4114 27.0487 28.9428 25.602C27.4682 24.1553 26.5585 22.166 26.5585 19.9609C26.5585 17.7558 27.4682 15.7607 28.9428 14.3197C30.4173 12.873 32.4448 11.9804 34.6924 11.9804C35.5188 11.9804 36.1908 12.6397 36.1908 13.4505C36.1908 14.2614 35.5188 14.9206 34.6924 14.9206C33.2713 14.9206 31.987 15.4865 31.0595 16.3965C30.1319 17.3066 29.5552 18.5725 29.5552 19.9667C29.5552 21.3609 30.1319 22.621 31.0595 23.5311C31.987 24.4353 33.2773 25.0011 34.6924 25.0011Z" fill="white"/>
<path fill-rule="evenodd" clip-rule="evenodd" d="M37.2788 19.9553C37.2788 21.3263 36.1491 22.4346 34.7519 22.4346C33.3546 22.4346 32.2249 21.3263 32.2249 19.9553C32.2249 18.5844 33.3546 17.476 34.7519 17.476C36.1491 17.476 37.2788 18.5844 37.2788 19.9553Z" fill="#00D89E"/>
<path d="M6.58649 25.0011C5.76002 25.0011 5.08813 25.6604 5.08813 26.4712C5.08813 27.2821 5.76002 27.9413 6.58649 27.9413C8.83401 27.9413 10.8675 27.0487 12.3361 25.602C13.8107 24.1553 14.7204 22.166 14.7204 19.9609C14.7204 17.7558 13.8107 15.7607 12.3361 14.3197C10.8615 12.873 8.83401 11.9804 6.58649 11.9804C5.76002 11.9804 5.08813 12.6397 5.08813 13.4505C5.08813 14.2614 5.76002 14.9206 6.58649 14.9206C8.00755 14.9206 9.29185 15.4865 10.2194 16.3965C11.1469 17.3066 11.7237 18.5725 11.7237 19.9667C11.7237 21.3609 11.1469 22.621 10.2194 23.5311C9.29185 24.4353 8.00755 25.0011 6.58649 25.0011Z" fill="white"/>
<path fill-rule="evenodd" clip-rule="evenodd" d="M4 19.9553C4 21.3263 5.12971 22.4346 6.52698 22.4346C7.92426 22.4346 9.05397 21.3263 9.05397 19.9553C9.05397 18.5844 7.92426 17.476 6.52698 17.476C5.12971 17.476 4 18.5844 4 19.9553Z" fill="#00D89E"/>
<path d="M49.7177 28.0813V15.4748L52.0663 15.084V19.3542C52.2565 19.2959 52.4884 19.22 52.756 19.1675C53.0235 19.1092 53.2554 19.0917 53.4635 19.0917C54.1295 19.0917 54.6884 19.185 55.1224 19.3717C55.5624 19.5759 55.925 19.8384 56.1929 20.1942C56.4603 20.5501 56.6507 20.9818 56.7636 21.466C56.8765 21.9735 56.9358 22.516 56.9358 23.1169V28.0813H54.5873V23.4144C54.5873 22.5919 54.4922 21.991 54.3019 21.6351C54.1116 21.2793 53.7489 21.0926 53.2138 21.0926C53.0057 21.0926 52.7917 21.1101 52.5835 21.1684C52.3754 21.2268 52.203 21.2618 52.0663 21.2968V28.0813H49.7177Z" fill="white"/>
<path d="M62.8579 26.4362C63.1076 26.4362 63.3572 26.4362 63.6013 26.4187C63.8509 26.4187 64.059 26.4012 64.2312 26.3837V24.3594C64.0768 24.3419 63.8864 24.3011 63.6782 24.2836C63.4701 24.2661 63.2564 24.2661 63.0838 24.2661C62.8341 24.2661 62.6083 24.2836 62.3763 24.3011C62.1444 24.3361 61.954 24.3944 61.7818 24.4702C61.6092 24.5461 61.4547 24.6569 61.3595 24.7911C61.2643 24.9195 61.2051 25.112 61.2051 25.3336C61.2051 25.7245 61.3595 26.0103 61.6628 26.1795C61.9778 26.3429 62.3763 26.4362 62.8579 26.4362ZM62.6437 19.0508C63.3871 19.0508 63.9993 19.1266 64.4991 19.2958C64.9746 19.465 65.3792 19.71 65.6643 20.0075C65.9499 20.3284 66.1636 20.7017 66.2947 21.1334C66.4315 21.5826 66.4851 22.0901 66.4851 22.6327V27.8771C66.1403 27.9529 65.6228 28.0463 64.9569 28.1396C64.291 28.233 63.5238 28.2913 62.6857 28.2913C62.1145 28.2913 61.5975 28.233 61.1397 28.1396C60.6637 28.0463 60.2597 27.8771 59.9386 27.6321C59.6115 27.4046 59.3441 27.1071 59.1775 26.7337C59.0048 26.3779 58.9101 25.9287 58.9101 25.3861C58.9101 24.8786 59.0048 24.4469 59.213 24.0911C59.4211 23.7352 59.689 23.4552 60.0338 23.2452C60.3787 23.041 60.7767 22.8718 61.2167 22.7785C61.6568 22.6852 62.1328 22.6502 62.6083 22.6502C63.2205 22.6502 63.7557 22.7085 64.2312 22.8018V22.5218C64.2312 22.0901 64.1006 21.7168 63.8094 21.4193C63.5238 21.1393 63.0483 20.9876 62.3586 20.9876C61.9186 20.9876 61.4785 21.0226 61.08 21.0809C60.6582 21.1392 60.3189 21.2093 60.0693 21.3084L59.7421 19.4533C60.0277 19.36 60.4501 19.2666 60.9848 19.1733C61.52 19.0916 62.073 19.0508 62.6437 19.0508Z" fill="white"/>
<path d="M76.5272 27.708C76.4918 27.7255 76.4143 27.7838 76.2776 27.8363C76.1408 27.8946 75.9504 27.9646 75.7423 28.023C75.5342 28.0988 75.2668 28.1513 74.9574 28.2096C74.6308 28.268 74.2915 28.2855 73.8874 28.2855C72.7992 28.2855 72.0143 27.9646 71.5211 27.3288C71.0213 26.7104 70.7777 25.7945 70.7777 24.5753V17.0966H68.2924V15.1831H73.1263V24.7386C73.1263 25.3395 73.2393 25.7479 73.4889 25.9579C73.7386 26.162 74.0419 26.2787 74.4044 26.2787C74.8804 26.2787 75.2668 26.2204 75.5879 26.092C75.915 25.9637 76.1231 25.8879 76.2183 25.847L76.5272 27.708Z" fill="white"/>
<path d="M80.8679 28.0813C80.2972 26.9787 79.7205 25.6661 79.1315 24.1669C78.537 22.6851 77.9664 21.0576 77.4311 19.2783H79.8926C80.0056 19.745 80.1423 20.2525 80.315 20.795C80.4694 21.3376 80.6421 21.8626 80.8143 22.4051C80.9869 22.9477 81.1768 23.4902 81.3672 23.9977C81.5399 24.5052 81.7121 24.9719 81.8847 25.4036C82.0569 24.9719 82.2296 24.5052 82.4377 23.9977C82.6458 23.4902 82.8357 22.9477 83.0499 22.4051C83.2403 21.8626 83.4307 21.3376 83.6206 20.795C83.7933 20.2525 83.9477 19.745 84.0607 19.2783H86.4452C85.91 21.0576 85.3155 22.691 84.6673 24.1669C84.0191 25.6661 83.4069 26.9787 82.8357 28.0813H80.8679Z" fill="white"/>
<path d="M91.505 26.4362C91.7547 26.4362 92.0043 26.4362 92.2484 26.4187C92.498 26.4187 92.7061 26.4012 92.8783 26.3837V24.3594C92.7239 24.3419 92.5335 24.3011 92.3253 24.2836C92.1172 24.2661 91.9035 24.2661 91.7309 24.2661C91.4812 24.2661 91.2554 24.2836 91.0234 24.3011C90.7915 24.3361 90.6011 24.3944 90.4289 24.4702C90.2563 24.5461 90.1018 24.6569 90.0066 24.7911C89.9114 24.9195 89.8522 25.112 89.8522 25.3336C89.8522 25.7245 90.0066 26.0103 90.3099 26.1795C90.6249 26.3429 91.0234 26.4362 91.505 26.4362ZM91.2908 19.0508C92.0342 19.0508 92.6464 19.1266 93.1462 19.2958C93.6217 19.465 94.0258 19.71 94.3114 20.0075C94.597 20.3284 94.8107 20.7017 94.9418 21.1334C95.0786 21.5826 95.1317 22.0901 95.1317 22.6327V27.8771C94.7869 27.9529 94.2699 28.0463 93.604 28.1396C92.9381 28.233 92.1709 28.2913 91.3323 28.2913C90.7616 28.2913 90.2446 28.233 89.7868 28.1396C89.3108 28.0463 88.9068 27.8771 88.5857 27.6321C88.2586 27.4046 87.9912 27.1071 87.8246 26.7337C87.6519 26.3779 87.5567 25.9287 87.5567 25.3861C87.5567 24.8786 87.6519 24.4469 87.8601 24.0911C88.0682 23.7352 88.3361 23.4552 88.6809 23.2452C89.0258 23.041 89.4238 22.8718 89.8638 22.7785C90.3039 22.6852 90.7794 22.6502 91.2554 22.6502C91.8676 22.6502 92.4028 22.7085 92.8783 22.8018V22.5218C92.8783 22.0901 92.7477 21.7168 92.4565 21.4193C92.1709 21.1393 91.6954 20.9876 91.0057 20.9876C90.5657 20.9876 90.1256 21.0226 89.7271 21.0809C89.3048 21.1392 88.966 21.2093 88.7164 21.3084L88.3892 19.4533C88.6748 19.36 89.0966 19.2666 89.6319 19.1733C90.1671 19.0916 90.7201 19.0508 91.2908 19.0508Z" fill="white"/>
<path d="M102.754 26.6055C102.754 27.148 102.582 27.5797 102.237 27.8597C101.892 28.1397 101.494 28.2914 101.054 28.2914C100.822 28.2914 100.614 28.2564 100.406 28.1806C100.198 28.1047 100.025 27.9939 99.871 27.8422C99.6983 27.7139 99.5854 27.5214 99.4902 27.3172C99.395 27.113 99.3357 26.8855 99.3357 26.6055C99.3357 26.343 99.395 26.098 99.4902 25.8938C99.5854 25.6896 99.6983 25.5204 99.871 25.3862C100.025 25.2579 100.198 25.1412 100.406 25.0654C100.614 24.9896 100.828 24.9546 101.054 24.9546C101.494 24.9546 101.892 25.1062 102.237 25.3862C102.582 25.6663 102.754 26.0805 102.754 26.6055Z" fill="white"/>
<path d="M108.54 21.1863H106.494V19.2728H108.54V17.0619L110.888 16.6885V19.2728H114.652V21.1863H110.888V24.7448C110.888 25.0656 110.924 25.3281 110.984 25.5323C111.043 25.7365 111.138 25.8882 111.251 25.999C111.364 26.1098 111.501 26.1857 111.673 26.2265C111.845 26.2615 112.018 26.2848 112.226 26.2848C112.434 26.2848 112.649 26.2849 112.838 26.2673C113.011 26.2498 113.201 26.2323 113.374 26.1915C113.546 26.174 113.719 26.1157 113.909 26.0632C114.081 26.0048 114.289 25.9115 114.503 25.8181L114.831 27.8016C114.39 27.9708 113.933 28.0991 113.439 28.1749C112.922 28.2508 112.446 28.2858 111.97 28.2858C111.417 28.2858 110.942 28.2508 110.52 28.1574C110.097 28.0641 109.735 27.8949 109.449 27.6499C109.164 27.4049 108.932 27.0491 108.783 26.5824C108.629 26.1332 108.551 25.5323 108.551 24.8031V21.1863H108.54Z" fill="white"/>
<path d="M122.994 27.5039C122.994 28.2156 122.899 28.8165 122.727 29.3007C122.554 29.7674 122.304 30.1641 122.001 30.4616C121.674 30.7416 121.311 30.9516 120.895 31.08C120.455 31.2083 119.997 31.2666 119.504 31.2666C118.891 31.2666 118.321 31.1908 117.804 31.0391C117.286 30.8874 116.775 30.7008 116.293 30.4558L117.019 28.5073C117.346 28.6765 117.726 28.8457 118.184 29.0148C118.624 29.1665 119.046 29.2424 119.409 29.2424C119.807 29.2424 120.116 29.1315 120.324 28.904C120.532 28.659 120.651 28.2273 120.651 27.6089V21.1803H117.025V19.2668H123V27.5039H122.994ZM122.709 16.7467C122.709 17.1959 122.554 17.5517 122.269 17.8142C121.983 18.0768 121.621 18.2051 121.216 18.2051C120.818 18.2051 120.473 18.0709 120.188 17.8142C119.902 17.5517 119.748 17.1959 119.748 16.7467C119.748 16.28 119.902 15.9242 120.188 15.6616C120.473 15.3991 120.818 15.2708 121.216 15.2708C121.615 15.2708 121.977 15.3991 122.269 15.6616C122.554 15.9242 122.709 16.28 122.709 16.7467Z" fill="white"/>
</g>
<defs>
<clipPath id="clip0_711_237">
<rect width="119" height="32" fill="white" transform="translate(4 4)"/>
</clipPath>
</defs>
</svg>
