<svg width="195" height="40" viewBox="0 0 195 40" fill="none" xmlns="http://www.w3.org/2000/svg">
<rect width="195" height="40" fill="#1A3762"/>
<path d="M50.763 16.6825H46.3378L45.496 19.2859H42.8114L47.3725 6.65002H49.712L54.2985 19.2859H51.614L50.763 16.6825ZM47.0192 14.5733H50.082L48.5425 9.84398L47.0192 14.5733ZM58.054 14.8339V19.2859H55.5292V6.65002H60.3088C61.1459 6.6318 61.976 6.8098 62.7363 7.17059C63.4036 7.48883 63.9644 8.00368 64.3484 8.6502C64.7283 9.30981 64.9232 10.0657 64.9098 10.833C64.9348 11.3858 64.8365 11.9371 64.623 12.4448C64.4095 12.9526 64.086 13.4032 63.6776 13.7622C62.7014 14.5285 61.4905 14.9087 60.2654 14.8339H58.054ZM58.054 12.7253H60.3088C60.8588 12.7648 61.4033 12.5916 61.8361 12.2394C62.0165 12.0615 62.1571 11.845 62.2477 11.6051C62.339 11.3653 62.3774 11.1079 62.3617 10.8509C62.3733 10.577 62.3326 10.3034 62.2418 10.0459C62.1507 9.78825 62.0113 9.5517 61.8315 9.34974C61.6394 9.1535 61.4103 8.99991 61.1585 8.89843C60.9066 8.79695 60.6372 8.74973 60.367 8.75968H58.054V12.7253ZM75.9563 8.75916H72.2027V19.2864H69.6779V8.75916H65.975V6.65054H75.9563V8.75916ZM89.3496 8.75916H83.8793V11.2067H85.8485C87.0795 11.1377 88.2948 11.5206 89.278 12.2874C89.6928 12.6388 90.0232 13.0846 90.2432 13.5898C90.4625 14.0951 90.566 14.646 90.5445 15.1992C90.5643 15.7578 90.4619 16.3137 90.2437 16.8254C90.0256 17.3372 89.6986 17.7914 89.2862 18.1542C88.3402 18.9359 87.1523 19.3382 85.941 19.2869H81.3294V6.65002H89.3496V8.75916ZM83.8793 13.3064V17.1941H85.8904C86.4541 17.2238 87.0074 17.0281 87.4344 16.6478C87.6276 16.4606 87.7788 16.2326 87.8783 15.9795C87.9778 15.7264 88.0232 15.4541 88.0109 15.1813C88.0226 14.9269 87.9789 14.6731 87.8835 14.4382C87.7887 14.2033 87.6433 13.9933 87.4594 13.8233C87.033 13.4692 86.4966 13.2858 85.9492 13.307L83.8793 13.3064ZM99.1557 16.6825H94.7285L93.8873 19.2859H91.2025L95.7635 6.65002H98.1027L102.689 19.2859H100.005L99.1557 16.6825ZM95.4109 14.5739H98.4733L96.9334 9.84398L95.4109 14.5739ZM115.439 22.393H113.108V19.2875H105.721V22.3851H103.332L103.197 17.1952H104.122C104.671 16.6892 105.073 16.0353 105.281 15.3071C105.585 14.3054 105.77 13.2696 105.833 12.2221L106.186 6.65054H114.215V17.1947H115.643L115.439 22.393ZM107.016 17.1947H111.687V8.75916H108.583L108.372 12.0832C108.204 14.3104 107.752 16.0142 107.016 17.1947ZM124.424 13.8101H119.574V17.1947H125.263V19.2864H117.05V6.65002H125.246V8.75863H119.574V11.77H124.424V13.8101ZM136.805 19.2843H134.28V13.8707H129.357V19.2859H126.832V6.65002H129.357V11.7705H134.28V6.65002H136.805V19.2843ZM153.455 19.2843H150.922V8.75705H146.017V19.2843H143.492V6.65002H153.454L153.455 19.2843ZM162.672 16.6809H158.245L157.403 19.2843H154.719L159.28 6.64844H161.619L166.205 19.2859H163.521L162.672 16.6809ZM158.928 14.5723H161.99L160.45 9.84241L158.928 14.5723ZM169.962 14.8328V19.2849H167.438V6.65002H172.217C173.055 6.6318 173.885 6.8098 174.645 7.17059C175.312 7.48885 175.873 8.0037 176.257 8.6502C176.637 9.30981 176.832 10.0657 176.818 10.833C176.843 11.3859 176.745 11.9373 176.531 12.445C176.318 12.9527 175.994 13.4033 175.586 13.7622C174.609 14.5285 173.398 14.9087 172.173 14.8339L169.962 14.8328ZM169.962 12.7243H172.217C172.768 12.7637 173.312 12.5905 173.745 12.2384C173.925 12.0604 174.066 11.8439 174.156 11.6041C174.247 11.3643 174.286 11.1068 174.27 10.8499C174.282 10.576 174.241 10.3024 174.151 10.0448C174.059 9.7872 173.92 9.55065 173.74 9.34868C173.548 9.15245 173.319 8.99886 173.067 8.89738C172.815 8.7959 172.546 8.74868 172.276 8.75863H169.961L169.962 12.7243ZM182.637 14.1212H181.181V19.2849H178.656V6.65002H181.181V11.7094H182.334L185.33 6.65002H188.411L184.633 12.6295L188.807 19.2859H185.796L182.637 14.1212Z" fill="white"/>
<path fill-rule="evenodd" clip-rule="evenodd" d="M6.22523 19.8759C6.28087 20.1544 5.91895 20.5076 5.21961 20.1175C5.27627 20.5618 5.11292 20.3575 5.61114 20.5149L5.19561 20.6913C5.45085 20.9513 5.14456 20.766 5.46157 20.8976C5.49679 20.9124 5.6729 20.9502 5.71374 20.9655C5.25432 21.165 5.38449 21.0181 5.23083 21.4308C5.60858 21.3108 6.12263 20.8708 6.2824 21.4635C6.46719 22.1477 5.60807 21.8845 5.30792 21.7924C5.46616 22.1846 5.23543 22.0461 5.84289 22.1988C5.54426 22.3599 5.54529 22.2514 5.40593 22.6199L5.91231 22.5146C5.55856 22.7778 5.57949 22.6377 5.49781 23.1052C5.87249 22.9378 6.22217 22.3962 6.51875 22.9573C6.87608 23.6236 5.97051 23.5279 5.62696 23.442C5.74131 23.8195 5.71833 23.7152 6.20991 23.8131C5.69077 24.0953 5.89189 23.7416 5.78061 24.15L6.29108 24.1032C5.98837 24.3784 6.03993 24.2663 5.93885 24.7348L6.16448 24.5142C7.13437 23.7842 7.57236 25.2343 6.13284 25.0459C6.34162 25.657 6.64075 24.9858 6.75714 25.568C6.83729 25.9707 6.30844 25.6696 6.61676 26.2607C6.79696 26.0828 6.80155 25.9602 6.97664 25.8691C7.65557 25.518 8.22167 26.5929 6.76122 26.5902C7.05423 27.0982 6.94755 26.6866 7.09047 26.8581C7.33346 27.1518 7.19257 26.7529 7.06138 27.2029C7.09303 27.2066 7.14408 27.1608 7.15633 27.1913L7.51008 27.1355C8.49733 27.0766 8.41106 27.2608 8.42893 27.8283L7.61932 28.0335C7.8184 28.2009 7.39522 28.2893 8.28957 28.1762C8.16706 28.2814 7.96542 28.3488 8.00677 28.6057C8.60759 28.6957 7.66067 28.8315 8.19309 28.581C8.21861 28.5689 8.37073 28.4683 8.45394 28.4162C8.28191 28.8262 8.32581 28.7888 8.38656 29.0226C8.39738 29.0535 8.4127 29.0827 8.43199 29.1089C8.93021 27.6587 10.1742 29.1673 8.61831 29.3247L8.99708 29.5426C9.37483 29.8837 8.6663 29.98 9.15022 29.9031C9.37432 29.8679 9.33654 29.791 9.46212 29.6716C9.34267 30.1521 9.2809 29.9668 9.44782 30.3032L9.77095 29.6105C10.7781 29.6758 10.6985 30.2726 9.73675 30.5769C10.1079 30.8627 9.96751 30.7248 10.431 30.5664L10.3881 30.9453C10.7454 30.9796 10.4427 30.7874 10.6632 31.2054L10.772 31.4427C10.8179 30.9922 10.9644 30.1916 11.5142 30.8037C11.9527 31.2912 11.2391 31.4686 11.0037 31.7428C11.5117 31.757 11.3417 31.7144 11.6964 31.5517L11.4254 31.9812C11.9915 32.0691 11.505 32.2007 11.9211 31.7449C11.8817 32.2297 11.7756 32.0191 12.0232 32.3697C12.2273 32.0197 12.114 31.4654 12.7031 31.5691C13.286 32.1018 12.7398 32.297 12.4228 32.5555C12.7613 32.7555 12.6878 32.6665 13.0421 32.3808L12.9205 32.8261C12.9716 32.8455 12.823 33.2219 13.3162 32.5181C13.3111 33.0445 13.2273 32.8371 13.4428 33.1819L13.6224 32.2623C14.9364 32.2391 14.1395 32.9234 13.8527 33.3324C14.3248 33.3166 14.0906 33.3166 14.4851 33.0519C14.332 33.5024 14.2636 33.2292 14.4698 33.564L14.7342 33.1398C14.9839 33.6887 14.5403 33.4935 15.0982 33.7604C14.8057 32.0344 16.5362 32.766 15.3973 33.8714C15.8828 33.8509 15.7368 33.8893 15.9272 33.5124L15.9921 33.962C15.9965 33.9894 16.004 34.0163 16.0145 34.042L16.2697 33.6267C16.5249 34.1857 16.1733 33.9167 16.6837 34.1857L16.5709 33.2166C17.7578 33.124 17.354 33.7993 16.9793 34.2167C17.453 34.2288 17.305 34.223 17.4387 33.8314C17.4536 33.8598 17.4629 33.8909 17.4663 33.923L17.5612 34.2914C17.9058 34.1362 17.5459 34.4246 17.77 34.1272L17.8665 33.9641C17.8767 33.9467 17.8905 33.9014 17.9068 33.8725C18.0212 34.3678 17.8767 34.2825 18.2907 34.3688C18.183 34.0904 17.8313 33.3971 18.4694 33.3803C19.1585 33.3619 18.7353 34.1272 18.6174 34.3967C19.3663 34.3167 18.6684 34.2388 19.185 33.9451L19.158 34.8104L19.3504 34.8147L19.3948 33.9198C19.7246 34.3599 19.404 34.2099 19.9298 34.4362C19.7674 34.1346 19.3637 33.5493 19.9247 33.3793C20.6735 33.1519 20.3872 33.9751 20.2667 34.3835C20.6455 34.2177 20.501 34.2873 20.7026 33.8151L20.9068 34.3183C20.9196 34.2899 20.9318 34.213 20.9344 34.2304C20.937 34.2477 20.9559 34.1598 20.9594 34.1451C20.963 34.1304 20.9758 34.0809 20.9783 34.0641C20.981 33.9735 20.9903 33.8832 21.0058 33.794C21.2351 34.1793 21.1049 34.1493 21.5316 34.2436C21.3933 33.8256 20.741 33.1503 21.8088 33.2013C22.131 33.6393 22.0493 33.6093 21.8655 34.1261C22.2356 34.0493 22.1432 34.1261 22.1998 33.5603L22.5434 33.8593C22.8767 33.5225 22.2734 33.8725 22.692 33.7445H22.9732C22.9921 33.7445 23.0432 33.7314 23.0595 33.7288C23.0905 33.7281 23.1211 33.721 23.1493 33.7077C22.6935 33.4477 22.6036 33.3919 22.8339 32.8271L23.352 32.7892C23.6369 33.2629 23.5434 33.2176 23.4419 33.7403C23.8231 33.5298 23.6797 33.8256 23.7624 33.1161C24.0294 33.5788 23.7027 33.4166 24.0738 33.5403L24.0334 33.0045C24.3663 33.3477 24.1259 33.2724 24.6746 33.3572C24.424 32.9824 24.2693 32.9702 24.1764 32.5539C24.7149 31.8981 25.0217 32.175 24.9682 33.1298C25.1452 32.9466 25.1606 32.5039 25.4214 32.4271C25.9054 32.2849 25.6726 32.776 26.1054 32.5534C25.7558 32.1381 25.5756 32.3039 25.6267 31.5707C26.3959 31.3538 26.3959 31.5559 26.4087 32.3602C26.6129 32.1144 26.544 32.0065 26.6557 31.6665C26.9534 32.3118 27.2647 32.3286 26.8278 31.5085L27.4597 31.6249C27.1085 31.3617 26.9263 31.3259 26.8895 30.8738C27.1203 30.6269 27.0049 30.6475 27.4684 30.6006L27.8584 31.3691C28.0371 31.0006 27.9728 31.1912 27.8702 30.7227C28.1224 30.9985 28.0713 31.0059 28.2744 31.0153C28.3204 30.818 28.2071 30.6911 28.0983 30.5232L28.6634 30.6C28.6876 30.5918 28.7105 30.5796 28.7308 30.5637C28.2086 30.3037 27.9202 30.3674 28.1877 29.7105C28.4939 29.5394 28.4306 29.4163 28.7752 29.7142C28.9488 29.8642 28.9488 30.0864 28.9855 30.3095C29.1525 30.0964 29.1361 29.9516 29.0284 29.6005C29.4679 29.9363 29.0876 29.7753 29.5225 29.9021C29.4465 29.5373 29.5935 29.7037 29.2081 29.4094C29.6675 29.471 29.5297 29.6263 29.8783 29.3705C29.4929 29.1784 28.913 29.1642 29.2775 28.5983C29.6752 28.1204 29.8477 28.6294 30.1668 29.0689C30.3567 28.6662 30.2178 28.8483 30.0647 28.3593C30.4093 28.6225 30.132 28.5072 30.6007 28.6467L30.2601 28.1409C30.739 28.1935 30.5491 28.3198 30.8773 28.0441C30.3316 27.7856 30.0009 27.9945 30.1387 27.1934C30.8023 26.9597 30.8212 27.1461 31.0126 27.683C31.2168 27.4198 31.127 27.3482 30.9442 27.0139L31.4067 27.2545C31.3649 26.7897 31.7788 27.0966 31.0683 26.8602L31.642 26.6055C31.6769 26.5844 31.7088 26.5586 31.7369 26.5286C30.8932 26.5771 30.5537 26.3129 31.1096 25.7122C31.7104 25.7485 31.5088 25.9175 31.9825 26.2281C31.8293 25.5896 31.568 25.8297 31.7579 25.468C31.762 25.4612 31.7819 25.4312 31.787 25.4249L32.372 25.1243C32.1101 25.019 31.9126 25.148 31.6573 24.9495C31.3511 24.7142 31.4827 24.6121 31.5552 24.2706C32.2964 24.1416 32.0545 24.4563 32.5532 24.6543C32.5711 24.1174 32.6308 24.3811 32.2275 24.1837L32.7308 24.0631C32.6119 23.9426 32.7155 24.0105 32.5119 23.8842C32.494 23.8736 32.3383 23.8057 32.2954 23.7826C32.8212 23.5526 32.6283 23.9368 32.8932 23.3984L31.9682 23.4794L31.9963 22.7894C32.5991 22.6051 32.6839 22.7999 32.9606 23.0741C32.9707 22.6004 32.958 22.7372 32.6032 22.5857C32.8176 22.4914 32.8018 22.6251 33.0912 22.4703L32.6655 22.2072C33.176 21.8856 32.882 22.3235 33.1939 21.7656C33.0459 21.8373 32.8857 21.8781 32.7224 21.8858C32.5592 21.8935 32.396 21.8678 32.2423 21.8103C32.1142 20.7049 32.7048 21.1545 33.248 21.4118C33.1459 21.0434 33.3659 21.2045 32.8396 20.9844L33.2827 20.7481L32.8013 20.5375C33.4389 20.3138 33.1724 20.4739 33.2954 20.0923C32.8176 20.296 32.3342 20.5797 32.3449 19.8817C32.3347 19.1843 32.8176 19.468 33.2954 19.6712C33.1724 19.2895 33.4389 19.4501 32.8013 19.2259L33.2827 19.0153L32.8396 18.779C33.3643 18.5584 33.1459 18.7206 33.248 18.3516C32.7043 18.6079 32.1142 19.0606 32.2423 17.9531C32.3959 17.8955 32.5591 17.8697 32.7224 17.8774C32.8858 17.885 33.046 17.926 33.1939 17.9979C32.8809 17.4399 33.1749 17.8779 32.6655 17.5563L33.0912 17.293C32.8013 17.1378 32.8176 17.272 32.6032 17.1778C32.9565 17.0262 32.9692 17.162 32.9606 16.6893C32.6834 16.9636 32.5996 17.1583 31.9963 16.9741L31.9631 16.2825L32.8881 16.3635C32.6221 15.8251 32.8161 16.2093 32.2903 15.9793C32.3332 15.9561 32.4889 15.8882 32.5067 15.8777C32.7109 15.7534 32.6057 15.8192 32.7257 15.6987L32.2224 15.5782C32.6262 15.3797 32.566 15.6445 32.5481 15.1076C32.0488 15.305 32.2929 15.6198 31.5501 15.4913C31.4777 15.1503 31.3459 15.0482 31.6522 14.8123C31.911 14.6139 32.1071 14.7418 32.3669 14.6376L31.7819 14.337C31.7713 14.3233 31.7616 14.3088 31.7528 14.2938C31.5629 13.9317 31.8253 14.1723 31.9774 13.5338C31.5037 13.8448 31.7053 14.0133 31.1045 14.0496C30.5486 13.449 30.888 13.1848 31.7318 13.2332C31.7033 13.2038 31.6714 13.178 31.6369 13.1564L31.0657 12.9027C31.7763 12.6664 31.3623 12.9732 31.4041 12.5084L30.9416 12.75C31.1244 12.4158 31.2127 12.3463 31.01 12.081C30.8186 12.6189 30.8012 12.8037 30.1361 12.5705C29.9983 11.7694 30.3296 11.9773 30.8748 11.7199C30.5465 11.4441 30.7354 11.572 30.2576 11.6231L30.5981 11.1173C30.1295 11.2567 30.4077 11.1383 30.0621 11.4046C30.2152 10.9151 30.3551 11.0967 30.1642 10.6951C29.8452 11.1357 29.6726 11.6425 29.275 11.1657C28.911 10.6004 29.4904 10.5867 29.8758 10.3935C29.5277 10.1377 29.6644 10.293 29.2055 10.3546C29.5909 10.0603 29.4439 10.2266 29.52 9.86188C29.0846 9.98872 29.4653 9.8282 29.0259 10.1635C29.1336 9.81239 29.1499 9.66712 28.9829 9.45447C28.9462 9.67765 28.9462 9.89976 28.7726 10.0487C28.4281 10.3467 28.4914 10.2235 28.1851 10.0524C27.9176 9.39552 28.2055 9.45921 28.7283 9.19918C28.7075 9.18386 28.6849 9.17163 28.6609 9.16286L28.0958 9.23971C28.2045 9.07233 28.3178 8.94547 28.2719 8.74756C28.0677 8.75651 28.1187 8.76441 27.8676 9.04022C27.9697 8.57228 28.0345 8.76335 27.8558 8.39385L27.4658 9.16233C27.0034 9.11549 27.1188 9.13602 26.887 8.88915C26.9237 8.43701 27.106 8.40227 27.4572 8.13803L26.8288 8.25436C27.2658 7.43534 26.9543 7.45218 26.6568 8.09645C26.545 7.75695 26.6149 7.64851 26.4097 7.40271C26.397 8.20488 26.397 8.40753 25.6276 8.19225C25.5766 7.45903 25.7568 7.6243 26.1065 7.20953C25.6741 6.9874 25.9074 7.4785 25.4225 7.33586C25.1616 7.25901 25.1463 6.81686 24.9691 6.63316C25.0232 7.58799 24.7139 7.86538 24.1774 7.209C24.2713 6.79265 24.4255 6.77949 24.6756 6.40577C24.1269 6.49051 24.3663 6.41524 24.0345 6.75844L24.0722 6.22102C23.7002 6.34419 24.0279 6.18207 23.7609 6.64527C23.6782 5.93573 23.8216 6.2326 23.4403 6.021C23.5424 6.54368 23.6343 6.49473 23.3505 6.97108L22.8323 6.93319C22.6021 6.36998 22.692 6.31261 23.1478 6.05258C23.1198 6.0386 23.0891 6.0314 23.0579 6.03153C23.0416 6.03153 22.9911 6.01732 22.9717 6.01574H22.6904C22.2723 5.88889 22.8757 6.23786 22.5419 5.90099L22.1983 6.19997C22.1417 5.63675 22.2351 5.71045 21.864 5.63412C22.0477 6.15049 22.1299 6.12101 21.8073 6.55894C20.7394 6.61158 21.3918 5.93467 21.5301 5.51674C21.1033 5.61044 21.2325 5.58096 21.0043 5.96626C20.9887 5.87707 20.9795 5.78682 20.9768 5.69623C20.9732 5.67939 20.9605 5.62939 20.9579 5.61517C20.9553 5.60096 20.9354 5.5099 20.9329 5.5299C20.9303 5.54991 20.9186 5.4699 20.9053 5.442L20.7011 5.94521C20.4969 5.47148 20.6439 5.54306 20.2652 5.37673C20.3867 5.78466 20.6735 6.60842 19.9232 6.38103C19.3617 6.21101 19.7659 5.6257 19.9282 5.3241C19.4025 5.54991 19.7241 5.40094 19.3933 5.84046L19.3489 4.94564L19.1564 4.94985L19.183 5.81467C18.6664 5.52043 19.3642 5.44358 18.6153 5.36304C18.7333 5.63307 19.1564 6.39788 18.4673 6.37945C17.8302 6.36208 18.1809 5.66886 18.2887 5.39094C17.8746 5.47621 18.0191 5.39094 17.9048 5.8873C17.8884 5.85835 17.8746 5.81256 17.8644 5.79572L17.7679 5.63254C17.5438 5.33568 17.9038 5.62359 17.5592 5.46832L17.4643 5.83677C17.4611 5.86891 17.4517 5.90006 17.4367 5.92836C17.305 5.53622 17.453 5.5299 16.9773 5.54306C17.355 5.96416 17.7578 6.63685 16.5689 6.54315L16.6817 5.57412C16.1712 5.84309 16.5255 5.57412 16.2677 6.13312L16.0125 5.71781C16.0023 5.74363 15.9948 5.77044 15.99 5.79782L15.9251 6.24734C15.7347 5.87099 15.8818 5.90888 15.3953 5.88836C16.5341 6.99372 14.8037 7.72537 15.0961 5.99942C14.5377 6.26629 14.9818 6.07101 14.7322 6.62L14.4678 6.19575C14.2636 6.53052 14.33 6.25839 14.4831 6.70791C14.089 6.44473 14.3223 6.44473 13.8506 6.42735C14.138 6.83528 14.9349 7.51956 13.6204 7.49745L13.4407 6.57789C13.2253 6.92266 13.309 6.71475 13.3141 7.24164C12.82 6.53789 12.9685 6.91371 12.9185 6.93371L13.04 7.37902C12.6868 7.0932 12.7603 7.00425 12.4208 7.20427C12.7388 7.46271 13.2845 7.65851 12.701 8.19067C12.1119 8.29594 12.2248 7.74116 12.0211 7.39007C11.7756 7.74116 11.8828 7.53008 11.919 8.01487C11.5025 7.55904 11.9899 7.69063 11.4234 7.77853L11.6944 8.20804C11.3371 8.04381 11.5096 8.00276 11.0017 8.01697C11.236 8.29226 11.9496 8.46859 11.5121 8.956C10.9624 9.56763 10.8164 8.76756 10.7699 8.317L10.6612 8.55439C10.4407 8.97548 10.7414 8.7802 10.3861 8.81441L10.429 9.19339C9.96541 9.03548 10.1058 8.89705 9.73471 9.18287C10.6965 9.48711 10.776 10.084 9.76891 10.1492L9.44578 9.45657C9.27886 9.79134 9.34063 9.60659 9.46007 10.0882C9.3345 9.96818 9.37176 9.89185 9.14818 9.85659C8.6617 9.78081 9.37023 9.87608 8.99504 10.2171L8.61627 10.4351C10.1722 10.593 8.92816 12.101 8.42995 10.6509C8.41098 10.6774 8.39569 10.7064 8.38451 10.7372C8.32377 10.9698 8.28242 10.9335 8.4519 11.3436C8.3692 11.2909 8.21657 11.1909 8.19105 11.1788C7.65863 10.9283 8.60555 11.0641 8.00473 11.1541C7.96389 11.4099 8.16552 11.4757 8.28753 11.5836C7.39318 11.471 7.81636 11.5589 7.61728 11.7263L8.42688 11.9315C8.41259 12.4995 8.49886 12.6837 7.50804 12.6242L7.15429 12.5684C7.14254 12.5995 7.09099 12.5537 7.05934 12.5569C7.19104 13.0059 7.33142 12.6095 7.08843 12.9016C6.9455 13.0738 7.0527 12.6616 6.75918 13.1695C8.21963 13.1695 7.65353 14.2423 6.9746 13.8907C6.79951 13.7996 6.79492 13.6775 6.61472 13.4991C6.30538 14.0907 6.83524 13.789 6.7551 14.1917C6.63871 14.7734 6.33958 14.1028 6.13079 14.7139C7.5698 14.5254 7.13183 15.9771 6.16244 15.2455L5.93681 15.025C6.03891 15.4913 5.98786 15.3792 6.28904 15.6566L5.77857 15.6098C5.88985 16.0177 5.68975 15.6624 6.20787 15.9467C5.71629 16.0445 5.73926 15.9414 5.62492 16.3177C5.96847 16.2324 6.87302 16.1361 6.51671 16.8025C6.21757 17.3626 5.8679 16.822 5.49577 16.6546C5.57846 17.122 5.55652 16.9836 5.91027 17.2452L5.40388 17.1399C5.54325 17.511 5.54222 17.3999 5.84085 17.561C5.23288 17.7136 5.46361 17.5752 5.30588 17.9674C5.60705 17.8747 6.46515 17.611 6.28036 18.2963C6.12058 18.889 5.60756 18.4489 5.22879 18.329C5.38193 18.7405 5.25024 18.5953 5.7117 18.7942C5.67086 18.8074 5.49526 18.8469 5.45952 18.8621C5.1415 18.9938 5.44778 18.8095 5.19357 19.0685L5.60909 19.2448C5.11087 19.4027 5.27473 19.198 5.21756 19.6422C5.9169 19.2532 6.27832 19.6043 6.22319 19.8838L6.22523 19.8759ZM19.427 7.27111C22.6184 7.29753 25.6719 8.61657 27.9286 10.9437C30.1853 13.2707 31.4644 16.4193 31.4899 19.7101L30.9917 19.1964L30.4934 19.7101C30.468 16.692 29.2938 13.8049 27.2239 11.6707C25.1541 9.53655 22.354 8.32613 19.427 8.30016L19.9262 7.78642L19.427 7.27216V7.27111ZM31.4899 19.9085C31.4647 23.1995 30.1857 26.3484 27.929 28.6757C25.6722 31.0031 22.6186 32.3222 19.427 32.3486L19.9262 31.8338L19.4612 31.3544H19.2024L18.7363 31.8349L19.2355 32.3497C16.0433 32.324 12.9889 31.0049 10.7316 28.6773C8.47426 26.3497 7.19507 23.2002 7.17011 19.9085L7.66833 20.4223L8.16655 19.9085C8.18439 22.088 8.80198 24.2175 9.9475 26.0492C11.093 27.881 12.7193 29.3398 14.6372 30.2558C14.5913 29.0978 14.6424 27.8693 14.6623 26.7092C14.6725 26.1327 14.6784 25.5564 14.6801 24.9806C14.6842 23.96 14.6107 24.1384 15.1023 23.5815C15.309 22.3356 14.6996 23.0215 14.6832 21.6766C14.6307 20.9428 14.6638 20.2052 14.7817 19.4796L16.5893 19.4743C16.6634 20.1154 16.6877 20.7616 16.6618 21.4066C16.6695 22.3841 16.7215 22.3656 16.1334 22.8957C16.2268 24.1063 16.5704 23.5858 16.649 24.4474C16.7057 25.0669 16.6465 26.0475 16.649 26.7108C16.6541 28.0825 16.721 29.6236 16.6424 30.9849C17.1927 31.125 17.7526 31.2216 18.3172 31.2738L18.2851 25.8675C18.2545 25.2359 18.2457 24.4158 18.2682 23.781C18.306 22.6904 18.8298 22.9304 18.7348 22.0761C18.6031 20.8992 18.3004 22.8857 18.3203 18.0947L20.233 18.0911C20.233 18.9248 20.4372 20.8097 20.1228 21.3918C19.9109 21.7877 19.5475 21.9156 19.8604 22.6083C20.2024 23.3662 20.2688 22.723 20.257 24.0489C20.2402 26.3728 20.3785 28.9294 20.2443 31.218L20.2391 31.2806C20.8066 31.2338 21.3697 31.1425 21.9237 31.0075L21.8859 27.2703C21.8558 26.6013 21.891 25.9223 21.891 25.2496C21.891 24.1037 21.7277 24.2006 22.3408 23.5241C22.3811 22.253 21.8813 23.0057 21.8742 21.6756C21.8691 20.9466 21.9145 20.2281 21.8956 19.4849L23.8482 19.497C23.8482 21.813 24.1355 22.2767 23.3009 22.8541C23.4786 23.989 23.7481 23.7057 23.8369 24.3279C23.8987 24.7548 23.8482 25.8233 23.8482 26.3134C23.8482 27.6403 23.8772 29.0189 23.8344 30.3379L23.7833 30.3222L23.5935 30.4537C25.6214 29.5901 27.3577 28.1296 28.5855 26.2546C29.8132 24.3795 30.4781 22.173 30.497 19.9107L30.9953 20.4244L31.4935 19.9107L31.4899 19.9085ZM7.17011 19.7096C7.1956 16.4187 8.47474 13.2701 10.7316 10.943C12.9884 8.61584 16.042 7.29687 19.2335 7.27059L18.7353 7.78432L19.2346 8.29805C16.3073 8.32388 13.5071 9.53432 11.437 11.6686C9.36704 13.8029 8.19289 16.6902 8.16756 19.7086L7.66935 19.1948L7.17011 19.7096ZM19.33 4.01819C22.3588 4.01819 25.3197 4.94431 27.838 6.67944C30.3564 8.41456 32.3193 10.8808 33.4784 13.7662C34.6374 16.6516 34.9407 19.8266 34.3498 22.8897C33.7589 25.9529 32.3004 28.7666 30.1587 30.975C28.017 33.1833 25.2882 34.6873 22.3177 35.2966C19.347 35.9059 16.2679 35.5931 13.4695 34.398C10.6713 33.2028 8.27954 31.1788 6.59681 28.5821C4.91408 25.9852 4.01592 22.9323 4.01592 19.8091C4.01592 15.6211 5.62936 11.6046 8.50131 8.64324C11.3733 5.68187 15.2685 4.01819 19.33 4.01819ZM19.33 4.58245C22.2509 4.58245 25.1061 5.47557 27.5347 7.14885C29.9633 8.82214 31.8561 11.2004 32.9738 13.983C34.0916 16.7656 34.384 19.8274 33.8141 22.7813C33.2441 25.7352 31.8375 28.4485 29.7721 30.5781C27.7067 32.7077 25.0752 34.1579 22.2104 34.7454C19.3457 35.3328 16.3763 35.0311 13.6779 33.8784C10.9794 32.7257 8.67306 30.7738 7.05046 28.2694C5.42787 25.7651 4.56192 22.8209 4.56212 19.8091C4.56239 15.7707 6.11841 11.8977 8.88789 9.04217C11.6573 6.18665 15.4135 4.58245 19.33 4.58245ZM31.9335 19.8759C31.9447 20.1391 32.1525 20.3618 32.3419 20.7618C31.6553 21.2518 31.7436 21.5314 32.1719 22.2182C31.5593 22.9025 31.3868 22.7446 31.8186 23.8147C31.1116 24.2116 31.0366 24.3374 31.2842 25.2506C30.5022 25.7665 30.4255 25.5591 30.6251 26.7297C29.8003 26.8592 29.7038 27.1071 29.79 28.0188C28.9263 28.1288 28.8201 28.2646 28.8201 29.1725C27.9299 29.3305 27.7824 29.3216 27.7241 30.2974C26.8461 30.2348 26.6879 30.2816 26.499 31.1833C25.573 31.1701 25.4234 31.1601 25.1789 32.0181C24.0411 31.6717 24.1958 31.9696 23.7338 32.6187C23.0508 32.3076 22.6241 32.3339 22.3443 33.0835C21.5674 32.7803 21.3612 32.6786 20.7736 33.333C19.9599 32.865 19.9145 32.9008 19.2101 33.4429C18.5638 32.7976 18.4224 33.0013 17.6557 33.3734C17.306 32.686 16.992 32.6497 16.2697 33.065C15.6199 32.4997 15.7781 32.306 14.7384 32.6439C14.3979 31.8459 14.1406 31.8454 13.309 32.0313C13.163 31.1596 12.9159 31.0943 12.0088 31.2538C11.8823 30.359 11.6393 30.3369 10.7837 30.2779C10.7143 29.341 10.5673 29.2694 9.67754 29.2563C9.70765 28.4098 9.49376 28.1456 8.71479 28.0567C8.77451 27.1213 8.70611 26.9139 7.8669 26.7492C8.02872 25.9481 8.09967 25.8649 7.29568 25.3069C7.27679 25.2938 7.23851 25.2701 7.21197 25.248C7.30436 24.928 7.41615 24.7579 7.287 24.4185C7.17828 24.13 6.91487 23.9837 6.69129 23.7868C7.04249 22.9446 6.91692 22.6957 6.3166 22.3772C6.78164 21.3503 6.79798 21.545 6.16346 20.735C6.48149 20.377 6.58409 20.146 6.52845 19.8717C6.58409 19.5986 6.48149 19.3664 6.16346 19.0085C6.79849 18.1984 6.78266 18.3931 6.3166 17.3662C6.91589 17.0504 7.04249 16.7967 6.69129 15.9566C6.91539 15.7619 7.17777 15.6155 7.287 15.325C7.41514 14.9855 7.30385 14.8155 7.21197 14.4954C7.23851 14.4733 7.27679 14.4496 7.29568 14.4365C8.09917 13.8785 8.02923 13.7954 7.8669 12.9943C8.70662 12.8295 8.77503 12.6221 8.71479 11.6868C9.49376 11.5978 9.70765 11.3331 9.67754 10.4872C10.5678 10.474 10.7138 10.4025 10.7837 9.46552C11.6387 9.40657 11.8817 9.38446 12.0088 8.48964C12.9159 8.64755 13.1641 8.58334 13.309 7.7122C14.139 7.89801 14.3963 7.89748 14.7384 7.09952C15.7771 7.43797 15.6189 7.2448 16.2697 6.67843C16.9941 7.09373 17.306 7.05741 17.6557 6.36998C18.4214 6.74265 18.5638 6.94898 19.2101 6.3005C19.9145 6.84265 19.9599 6.8795 20.7736 6.41051C21.3668 7.07109 21.571 6.96583 22.3499 6.66475C22.6297 7.41428 23.0559 7.44165 23.7394 7.13005C24.1988 7.77906 24.0457 8.0775 25.1846 7.72958C25.4291 8.58807 25.5787 8.5786 26.5046 8.56544C26.692 9.46816 26.8492 9.5129 27.7298 9.45131C27.788 10.4272 27.934 10.4166 28.8258 10.5761C28.8258 11.4841 28.9334 11.621 29.7957 11.7299C29.7104 12.6416 29.8059 12.8879 30.6308 13.019C30.4317 14.1896 30.5077 13.9833 31.2898 14.4981C31.0417 15.4113 31.1173 15.5376 31.8243 15.934C31.3919 17.0036 31.5654 16.8462 32.1775 17.5305C31.7492 18.2148 31.6609 18.4958 32.3475 18.9869C32.156 19.388 31.9483 19.6112 31.9391 19.8728L31.9335 19.8759ZM25.3867 12.9969C26.6154 13.0764 25.7441 12.7606 25.4475 12.5232C25.9176 12.361 26.2132 12.5353 26.5138 12.1152L25.3229 11.9484C26.0136 11.781 26.0631 11.9115 26.4557 11.4509L25.4572 11.4715L26.3087 10.9978C26.131 10.9078 26.1999 10.9715 26.1045 10.833C25.5376 11.109 24.9187 11.2528 24.2917 11.2541C24.4293 11.2102 24.5554 11.1347 24.6604 11.0331C24.7654 10.9315 24.8466 10.8065 24.8977 10.6678C24.4451 10.8765 23.9821 11.0604 23.5107 11.2189C21.7838 11.6189 19.5352 12.6163 19.0916 12.6295C18.7001 12.1094 18.6648 11.5126 17.7859 11.7073C17.503 12.3173 17.8721 11.8773 17.6919 12.4968L12.5418 11.851C12.5382 11.8589 12.1375 12.0837 12.6719 12.0363C12.2207 12.0363 12.2182 11.9526 11.8741 12.0979L11.5678 12.3084L12.409 12.7758L11.5923 13.0711L12.6474 13.3374C12.4815 13.4495 12.5652 13.3611 12.4346 13.458C12.4081 13.4775 12.3069 13.5533 12.2815 13.5743L13.5903 14.206C13.9425 14.5165 16.8767 15.3324 17.453 15.3166C18.9972 15.1465 18.209 15.6587 18.5199 17.1141C18.7603 17.2567 18.7159 17.1804 18.9686 17.2868L19.915 17.292C20.0728 17.2161 20.2229 17.1242 20.3632 17.0178C20.2723 16.1493 19.7057 15.7419 19.8752 15.1981C20.742 15.1502 21.5907 14.9232 22.3709 14.5307L22.5669 14.4254C23.569 14.0101 23.5169 14.3259 24.5797 13.5033C25.1601 13.0537 24.9773 13.6759 25.3918 12.9948L25.3867 12.9969Z" fill="white"/>
<path d="M44.8809 29.8821H44.2484V32.2481H43.3219V26.7276H44.2484V29.0478H44.7589L46.3332 26.7276H47.473L45.6354 29.3705L47.6349 32.2481H46.517L44.8809 29.8821ZM51.1841 30.9627H49.1101L48.6747 32.2481H47.7094L49.7319 26.7276H50.5665L52.5925 32.2481H51.6227L51.1841 30.9627ZM49.3715 30.189H50.9208L50.1448 27.8988L49.3715 30.189ZM57.5094 26.7276V32.2481H56.5829V27.5013H54.9427L54.8473 29.6358C54.8333 30.1617 54.7535 30.6836 54.6099 31.1885C54.521 31.508 54.3362 31.7901 54.0821 31.9944C53.8067 32.1769 53.4826 32.2658 53.1556 32.2486H52.9203V31.4822L53.0673 31.4707C53.255 31.4627 53.4324 31.3799 53.5619 31.2396C53.6979 31.0626 53.789 30.8535 53.8268 30.6311C53.9009 30.2353 53.9434 29.8339 53.954 29.431L54.0561 26.7276H57.5094ZM61.9449 26.7276H62.8748V32.2481H61.9469V28.3162L59.5987 32.2481H58.6646V26.7276H59.5947V30.6632L61.9449 26.7276ZM68.2764 32.2481H67.3509V29.7953H64.9587V32.2481H64.0267V26.7276H64.9587V29.0278H67.352V26.7276H68.2764V32.2481ZM72.6943 26.7276H73.6246V32.2481H72.6943V28.3162L70.3464 32.2481H69.4144V26.7276H70.3446V30.6632L72.6943 26.7276ZM79.0268 32.2481H78.1001V29.7953H75.7067V32.2481H74.7765V26.7276H75.7067V29.0278H78.1001V26.7276H79.0268V32.2481ZM83.5872 27.5013H81.1165V32.2481H80.1898V26.7276H83.5872V27.5013ZM85.3261 30.1968V32.2497H84.3976V26.7276H86.4454C86.962 26.6992 87.4699 26.871 87.8702 27.2092C88.0441 27.368 88.1814 27.5646 88.2727 27.785C88.3641 28.0052 88.4065 28.2437 88.3978 28.483C88.4106 28.7202 88.3705 28.9572 88.2809 29.1761C88.1913 29.395 88.0546 29.59 87.8812 29.7463C87.467 30.0703 86.9539 30.2303 86.4344 30.1974L85.3261 30.1968ZM85.3261 29.4273H86.4443C86.7177 29.4469 86.9882 29.3607 87.2029 29.1857C87.293 29.0963 87.3629 28.9877 87.4077 28.8675C87.453 28.7473 87.4722 28.6184 87.4635 28.4899C87.4699 28.3583 87.4495 28.2269 87.4036 28.1039C87.3582 27.9809 87.2884 27.8689 87.1988 27.7751C87.0004 27.5884 86.7392 27.4896 86.471 27.5003H85.3261V29.4273ZM91.5905 30.9627H89.5165L89.0825 32.2481H88.1157L90.1373 26.7276H90.9721L92.9984 32.2481H92.0286L91.5905 30.9627ZM89.7772 30.189H91.3287L90.5532 27.8988L89.7772 30.189ZM98.6362 33.6072H97.7537V32.2481H94.2276V33.6072H93.33L93.3003 31.4838H93.7308C93.9717 31.2223 94.1468 30.9041 94.241 30.5569C94.3766 30.1093 94.4592 29.6467 94.4877 29.1789L94.6279 26.7297H98.0033V31.4843H98.6839L98.6362 33.6072ZM94.7826 31.4838H97.0771V27.5013H95.5151L95.4267 29.0557C95.4121 29.9074 95.191 30.7417 94.7826 31.4822V31.4838ZM103.417 30.449C103.404 30.7106 103.343 30.9672 103.234 31.204C103.125 31.4408 102.973 31.6532 102.784 31.8291C102.371 32.1751 101.849 32.3513 101.318 32.3239C100.92 32.3323 100.529 32.2238 100.19 32.0112C99.8608 31.7971 99.599 31.488 99.4385 31.1222C99.2541 30.7016 99.1604 30.2451 99.1627 29.7837V29.2678C99.1534 28.7943 99.2447 28.3244 99.4309 27.8914C99.5944 27.514 99.8626 27.1951 100.202 26.975C100.551 26.756 100.953 26.6442 101.362 26.6529C101.881 26.6273 102.39 26.8048 102.788 27.1497C103.165 27.5164 103.391 28.0188 103.417 28.5525H102.491C102.479 28.2345 102.361 27.9306 102.155 27.6935C101.934 27.5033 101.649 27.4089 101.362 27.4303C101.183 27.4208 101.003 27.4576 100.841 27.5373C100.678 27.6171 100.537 27.7373 100.43 27.8872C100.187 28.2876 100.071 28.7558 100.098 29.2273V29.7163C100.068 30.1927 100.176 30.6673 100.408 31.0806C100.507 31.2335 100.643 31.3571 100.803 31.4395C100.962 31.5219 101.14 31.5602 101.318 31.5507C101.614 31.5735 101.907 31.483 102.142 31.2964C102.353 31.0666 102.476 30.7668 102.491 30.4511L103.417 30.449ZM105.87 29.8805H105.237V32.2465H104.311V26.7276H105.237V29.0478H105.748L107.322 26.7276H108.462L106.624 29.3705L108.624 32.2481H107.507L105.87 29.8805ZM112.173 30.9612H110.099L109.666 32.2465H108.699L110.721 26.726H111.556L113.582 32.2465H112.612L112.173 30.9612ZM110.361 30.1879H111.913L111.137 27.8977L110.361 30.1879ZM116.866 32.2465V30.1858H115.83L114.796 32.2486H113.8L114.995 29.9016C114.709 29.7827 114.466 29.5757 114.299 29.309C114.132 29.0423 114.048 28.7288 114.06 28.4115C114.049 28.1797 114.088 27.948 114.175 27.7342C114.263 27.5203 114.397 27.3298 114.566 27.1771C114.97 26.8599 115.469 26.7007 115.976 26.7276H117.797V32.2481L116.866 32.2465ZM114.987 28.4514C114.98 28.5843 114.999 28.7173 115.042 28.8424C115.086 28.9675 115.154 29.0822 115.243 29.1794C115.346 29.2734 115.467 29.3451 115.597 29.3903C115.728 29.4355 115.866 29.4533 116.004 29.4426H116.868V27.5013H116.004C115.866 27.4898 115.728 27.5063 115.596 27.5499C115.465 27.5935 115.343 27.6634 115.238 27.7556C115.152 27.848 115.086 27.9575 115.042 28.0773C115 28.1972 114.981 28.3249 114.988 28.4525L114.987 28.4514ZM125.123 29.6305C125.133 30.1189 125.039 30.6037 124.85 31.0517C124.687 31.4395 124.416 31.7683 124.071 31.996C123.722 32.2182 123.317 32.332 122.907 32.3239C122.498 32.331 122.095 32.2172 121.747 31.996C121.402 31.7704 121.128 31.4454 120.96 31.0611C120.768 30.6217 120.672 30.1441 120.679 29.6621V29.351C120.669 28.8606 120.764 28.3741 120.957 27.9256C121.121 27.5371 121.394 27.2075 121.74 26.9781C122.088 26.7562 122.491 26.6424 122.9 26.6502C123.309 26.6424 123.711 26.7548 124.06 26.9745C124.405 27.1989 124.676 27.5235 124.842 27.9072C125.034 28.3526 125.129 28.8358 125.121 29.3231L125.123 29.6305ZM124.193 29.3436C124.223 28.8503 124.106 28.3594 123.857 27.9372C123.751 27.779 123.608 27.6513 123.441 27.5657C123.274 27.4802 123.089 27.4398 122.903 27.4482C122.718 27.4412 122.535 27.4821 122.37 27.5673C122.206 27.6525 122.064 27.7792 121.959 27.9356C121.709 28.3473 121.588 28.8284 121.612 29.3136V29.6321C121.583 30.1263 121.702 30.6177 121.956 31.0385C122.061 31.1976 122.204 31.3267 122.371 31.4135C122.537 31.5004 122.723 31.5423 122.91 31.5354C123.095 31.5443 123.28 31.5043 123.446 31.4195C123.612 31.3346 123.755 31.2074 123.86 31.0501C124.109 30.6233 124.224 30.1286 124.193 29.6321V29.3436ZM129.47 27.5013H127.003V28.8399H128.099C128.452 28.8322 128.802 28.9041 129.125 29.0504C129.399 29.1745 129.63 29.3806 129.789 29.6421C129.944 29.9099 130.023 30.2175 130.017 30.5295C130.026 30.7628 129.984 30.9951 129.897 31.2101C129.808 31.4251 129.675 31.6174 129.506 31.7733C129.118 32.1048 128.623 32.2752 128.119 32.2512H126.07V26.7276H129.468L129.47 27.5013ZM127.003 29.6068V31.4796H128.095C128.228 31.4879 128.361 31.469 128.488 31.4238C128.613 31.3786 128.729 31.3081 128.828 31.2164C128.917 31.125 128.986 31.0156 129.031 30.8952C129.077 30.7747 129.097 30.6459 129.091 30.5169C129.098 30.3945 129.078 30.2722 129.034 30.1583C128.99 30.0444 128.922 29.9418 128.836 29.8573C128.636 29.6851 128.382 29.5959 128.122 29.6073L127.003 29.6068ZM135.071 26.7255V32.2481H134.145V27.5013H132.505L132.409 29.6358C132.395 30.1617 132.315 30.6836 132.172 31.1885C132.083 31.508 131.898 31.7901 131.644 31.9944C131.368 32.1769 131.044 32.2658 130.717 32.2486H130.482V31.4822L130.629 31.4707C130.817 31.4627 130.994 31.3799 131.124 31.2396C131.26 31.0626 131.35 30.8535 131.389 30.6311C131.463 30.2353 131.505 29.8339 131.516 29.431L131.618 26.7276L135.071 26.7255ZM139.29 30.9606H137.216L136.782 32.246H135.815L137.838 26.7255H138.671L140.696 32.246H139.727L139.29 30.9606ZM137.477 30.1874H139.028L138.252 27.8972L137.477 30.1874ZM145.35 30.4506C145.325 30.9781 145.097 31.4738 144.718 31.8286C144.305 32.1745 143.783 32.3508 143.251 32.3234C142.854 32.3318 142.463 32.2233 142.124 32.0107C141.794 31.7966 141.533 31.4875 141.372 31.1217C141.188 30.7011 141.094 30.2445 141.096 29.7832V29.2673C141.087 28.7937 141.179 28.3238 141.365 27.8908C141.528 27.5131 141.796 27.1938 142.135 26.9734C142.484 26.7544 142.887 26.6427 143.295 26.6513C143.815 26.6257 144.324 26.8032 144.722 27.1482C145.099 27.5148 145.324 28.0173 145.351 28.5509H144.423C144.412 28.2329 144.293 27.929 144.087 27.6919C143.866 27.5017 143.582 27.4074 143.295 27.4287C143.115 27.4192 142.936 27.4561 142.773 27.5358C142.61 27.6155 142.469 27.7357 142.363 27.8856C142.12 28.286 142.004 28.7543 142.03 29.2257V29.7147C142.001 30.1916 142.109 30.6669 142.34 31.0806C142.44 31.2335 142.576 31.3571 142.735 31.4395C142.895 31.5219 143.073 31.5602 143.251 31.5507C143.546 31.5735 143.84 31.483 144.075 31.2964C144.285 31.066 144.409 30.7654 144.423 30.449L145.35 30.4506ZM149.98 27.5029H148.311V32.2497H147.388V27.5013H145.734V26.7276H149.981L149.98 27.5029ZM151.691 28.8415H152.787C153.14 28.8338 153.49 28.9057 153.813 29.052C154.087 29.176 154.318 29.3822 154.477 29.6436C154.632 29.9115 154.711 30.2191 154.705 30.5311C154.713 30.7643 154.673 30.9968 154.584 31.2117C154.496 31.4267 154.363 31.619 154.194 31.7749C153.806 32.1037 153.312 32.2723 152.81 32.2481H150.763V26.7276H151.692L151.691 28.8415ZM151.691 29.611V31.4838H152.783C152.916 31.4921 153.05 31.4732 153.175 31.428C153.301 31.3828 153.417 31.3123 153.517 31.2207C153.605 31.1292 153.674 31.0198 153.719 30.8994C153.764 30.7789 153.785 30.6501 153.779 30.5211C153.785 30.3987 153.766 30.2764 153.722 30.1625C153.678 30.0487 153.61 29.946 153.524 29.8616C153.325 29.6878 153.071 29.5969 152.81 29.6068L151.691 29.611Z" fill="white"/>
</svg>
