<svg width="103" height="40" viewBox="0 0 103 40" fill="none" xmlns="http://www.w3.org/2000/svg">
<rect width="103" height="40" fill="white"/>
<g clip-path="url(#clip0_713_193)">
<path d="M10.2886 21.8112C8.54953 14.9864 10.0475 8.90177 13.7377 6.96423C11.5342 8.02312 9.64406 9.62755 8.23451 11.6005C6.0342 14.9493 5.48774 20.2148 7.72984 25.1971C9.92051 30.0667 13.7924 33.076 17.0663 34.1413C18.0049 34.3328 18.9773 34.4342 19.9722 34.4342C20.1602 34.4342 20.3483 34.4278 20.5347 34.4197C17.5597 33.4863 12.5001 30.4883 10.2886 21.8112Z" fill="#006A44"/>
<path d="M23.0902 14.996C25.0816 10.1184 29.3633 9.391 31.2277 10.9616C29.1238 8.33533 26.1231 6.46216 22.69 5.80719C20.5588 5.72673 16.3736 8.28223 15.5539 15.3839C14.5317 24.2428 18.6189 31.6019 22.7624 34.1622C23.6431 33.9884 24.4918 33.7358 25.3066 33.4107C22.1725 29.9186 20.2278 22.0059 23.0902 14.996Z" fill="#006A44"/>
<path d="M7.72984 25.1971C5.48774 20.2149 6.0342 14.9494 8.23451 11.6005C6.5437 13.9661 5.54721 16.8612 5.54721 19.9912C5.54721 26.9721 10.4927 32.7944 17.0663 34.1413C13.7924 33.076 9.92051 30.0667 7.72984 25.1971Z" fill="#F78222"/>
<path d="M15.5539 15.3839C16.3736 8.28222 20.5588 5.72672 22.69 5.80719C21.8093 5.63982 20.9012 5.5481 19.9722 5.5481C17.7381 5.5481 15.6246 6.05662 13.7377 6.96424C10.0475 8.90178 8.54953 14.9864 10.2886 21.8112C12.5001 30.4883 17.5597 33.4863 20.5347 34.4197C21.2934 34.3907 22.0375 34.3038 22.7624 34.1622C18.6189 31.6019 14.5317 24.2428 15.5539 15.3839Z" fill="#F78222"/>
<path d="M37.4284 15.8698L37.6888 14.9011C37.7129 14.8077 37.782 14.5116 37.782 14.5116H37.7933C37.7933 14.5116 37.8688 14.7997 37.8994 14.922L38.1533 15.8698H38.4619L38.9473 14.1157H38.6146L38.3992 15.0684C38.3751 15.1827 38.3189 15.4804 38.3189 15.4804H38.306C38.306 15.4804 38.2578 15.2454 38.208 15.0572L37.9653 14.1157H37.6358L37.3722 15.0845C37.332 15.2342 37.2934 15.4804 37.2934 15.4804H37.2822C37.2822 15.4804 37.2308 15.2277 37.1922 15.0539L36.9704 14.0787L36.6489 14.1302L37.1231 15.8698H37.4284Z" fill="#636468"/>
<path d="M39.984 15.8698L40.2443 14.9011C40.2684 14.8077 40.3376 14.5116 40.3376 14.5116H40.3488C40.3488 14.5116 40.4243 14.7997 40.4549 14.922L40.7088 15.8698H41.0174L41.5028 14.1157H41.1701L40.9547 15.0684C40.9306 15.1827 40.8744 15.4804 40.8744 15.4804H40.8615C40.8615 15.4804 40.8133 15.2454 40.7651 15.0572L40.5208 14.1157H40.1929L39.9293 15.0845C39.8875 15.2342 39.849 15.4804 39.849 15.4804H39.8393C39.8393 15.4804 39.7863 15.2277 39.7477 15.0539L39.5259 14.0787L39.2045 14.1302L39.6786 15.8698H39.984Z" fill="#636468"/>
<path d="M42.5395 15.8698L42.7999 14.9011C42.824 14.8077 42.8931 14.5116 42.8931 14.5116H42.9043C42.9043 14.5116 42.9799 14.7997 43.012 14.922L43.2643 15.8698H43.5729L44.0583 14.1157H43.7256L43.5103 15.0684C43.4861 15.1827 43.4315 15.4804 43.4315 15.4804H43.417C43.417 15.4804 43.3688 15.2454 43.3206 15.0572L43.0779 14.1157H42.7484L42.4848 15.0845C42.443 15.2342 42.4045 15.4804 42.4045 15.4804H42.3948C42.3948 15.4804 42.3418 15.2277 42.3048 15.0539L42.083 14.0787L41.76 14.1302L42.2357 15.8698H42.5395Z" fill="#636468"/>
<path d="M44.5148 15.9052C44.6562 15.9052 44.7607 15.7862 44.7607 15.6445C44.7607 15.5013 44.6562 15.3839 44.5148 15.3839C44.3717 15.3839 44.2689 15.5013 44.2689 15.6445C44.2689 15.7862 44.3717 15.9052 44.5148 15.9052Z" fill="#636468"/>
<path d="M46.7569 15.8554L45.9838 14.8528L46.6042 14.1125H46.2152L45.6431 14.8657L46.3583 15.8554H46.7569Z" fill="#636468"/>
<path d="M45.2895 15.8554H45.6077V13.6893C45.6077 13.5477 45.5884 13.4013 45.5675 13.3079L45.2445 13.3836C45.2718 13.4849 45.2895 13.6024 45.2895 13.7794V15.8554Z" fill="#636468"/>
<path d="M47.6714 15.894C47.898 15.894 48.1021 15.8216 48.2709 15.6719L48.1504 15.4804C48.025 15.5914 47.8868 15.6478 47.7244 15.6478C47.5573 15.6478 47.4158 15.5818 47.3258 15.4434C47.2728 15.3597 47.2519 15.2454 47.2519 15.0958V15.0539H48.3095V14.9976C48.3063 14.5985 48.2516 14.4054 48.0989 14.2477C47.9768 14.1238 47.8209 14.061 47.6264 14.061C47.4126 14.061 47.2423 14.1367 47.1024 14.3008C46.9546 14.4778 46.8951 14.6726 46.8951 14.9735C46.8951 15.5432 47.1892 15.894 47.6714 15.894ZM47.62 14.304C47.7309 14.304 47.8144 14.3555 47.8691 14.4263C47.9382 14.5116 47.9768 14.6516 47.9768 14.8174H47.2551C47.2551 14.502 47.3773 14.304 47.62 14.304Z" fill="#636468"/>
<path d="M48.7708 15.8554H49.089V14.7337C49.089 14.5438 49.2561 14.3797 49.449 14.3797C49.4844 14.3797 49.5085 14.3877 49.5406 14.3974L49.6499 14.0787C49.6226 14.0675 49.5856 14.061 49.5438 14.061C49.359 14.061 49.2111 14.1608 49.0713 14.3636V14.3314C49.0713 14.2445 49.044 14.1302 49.0134 14.0643L48.7049 14.1447C48.745 14.2525 48.7708 14.3668 48.7708 14.5776V15.8554Z" fill="#636468"/>
<path d="M50.767 14.7804C50.2044 14.7804 49.883 14.9944 49.883 15.3983C49.883 15.7315 50.0983 15.9085 50.4439 15.9085C50.7461 15.9085 50.8923 15.7347 50.9373 15.6784C50.9791 15.8007 51.0611 15.8876 51.1688 15.9294L51.3327 15.7138C51.1961 15.6301 51.1897 15.5335 51.1897 15.2937C51.1897 15.0395 51.2041 14.7723 51.2041 14.6484C51.2041 14.4778 51.1961 14.4183 51.1688 14.3427C51.1029 14.1576 50.9196 14.0643 50.6657 14.0643C50.3298 14.0643 50.108 14.1962 49.9376 14.2928L50.0839 14.5229C50.2253 14.4151 50.4343 14.325 50.6175 14.325C50.8602 14.325 50.8891 14.4634 50.8891 14.6677V14.7836C50.8425 14.7804 50.8087 14.7804 50.767 14.7804ZM50.8714 15.4466C50.7911 15.585 50.6528 15.6751 50.5066 15.6751C50.3298 15.6751 50.2333 15.5641 50.2333 15.3726C50.2333 15.2583 50.2575 15.1956 50.3234 15.1199C50.3925 15.0395 50.5387 14.9944 50.7766 14.9944C50.8055 14.9944 50.8328 14.9976 50.8811 15.0025L50.8714 15.4466Z" fill="#636468"/>
<path d="M52.2858 15.6655C52.0913 15.6655 51.8936 15.585 51.7265 15.4917L51.6124 15.7202C51.8133 15.8393 52.0495 15.9052 52.2617 15.9052C52.6667 15.9052 52.9448 15.6687 52.9448 15.3211C52.9448 15.0926 52.813 14.9075 52.4931 14.8351L52.2681 14.7836C52.0849 14.7418 52.0222 14.6726 52.0222 14.547C52.0222 14.3909 52.1395 14.2863 52.3244 14.2863C52.4626 14.2863 52.5912 14.3314 52.7503 14.4119L52.858 14.1866C52.7149 14.1029 52.5221 14.0433 52.3099 14.0433C51.9354 14.0433 51.6815 14.2654 51.6815 14.5857C51.6815 14.8415 51.8309 15.0121 52.1058 15.0684L52.3163 15.1103C52.5172 15.1473 52.6072 15.2342 52.6072 15.3838C52.6072 15.5544 52.4754 15.6655 52.2858 15.6655Z" fill="#636468"/>
<path d="M53.4093 15.8554H53.7323V14.3427H54.1068L54.1904 14.1158H53.7291V13.8358C53.7291 13.6587 53.8159 13.5574 53.9605 13.5574C54.0409 13.5574 54.11 13.5847 54.1872 13.6233L54.2932 13.4157C54.1872 13.3498 54.0586 13.3208 53.9155 13.3208C53.787 13.3208 53.6841 13.3465 53.6005 13.4045C53.5073 13.4705 53.406 13.6024 53.406 13.839C53.406 13.8663 53.406 14.082 53.4125 14.1158H53.2437V14.3427H53.4093V15.8554Z" fill="#636468"/>
<path d="M55.137 15.894C55.3621 15.894 55.5678 15.8216 55.7365 15.6719L55.616 15.4804C55.4906 15.5914 55.3524 15.6478 55.1885 15.6478C55.0229 15.6478 54.8799 15.5818 54.7899 15.4434C54.7384 15.3597 54.7175 15.2454 54.7175 15.0958V15.0539H55.7751V14.9976C55.7719 14.5985 55.7156 14.4054 55.563 14.2477C55.4424 14.1238 55.2865 14.061 55.092 14.061C54.8767 14.061 54.7063 14.1367 54.5681 14.3008C54.4186 14.4778 54.3607 14.6726 54.3607 14.9735C54.3607 15.5432 54.6549 15.894 55.137 15.894ZM55.0856 14.304C55.1965 14.304 55.2785 14.3555 55.3347 14.4263C55.4038 14.5116 55.4424 14.6516 55.4424 14.8174H54.7208C54.7208 14.502 54.8429 14.304 55.0856 14.304Z" fill="#636468"/>
<path d="M56.2348 15.8554H56.5546V14.7337C56.5546 14.5438 56.7202 14.3797 56.9146 14.3797C56.95 14.3797 56.9741 14.3877 57.0046 14.3974L57.1155 14.0787C57.0882 14.0675 57.0497 14.061 57.0079 14.061C56.8246 14.061 56.6752 14.1608 56.5369 14.3636V14.3314C56.5369 14.2445 56.5096 14.1302 56.4775 14.0643L56.1689 14.1447C56.2107 14.2525 56.2348 14.3668 56.2348 14.5776V15.8554Z" fill="#636468"/>
<path d="M58.2326 14.7804C57.6701 14.7804 57.3486 14.9944 57.3486 15.3983C57.3486 15.7315 57.5624 15.9085 57.9095 15.9085C58.2117 15.9085 58.3563 15.7347 58.4013 15.6784C58.4431 15.8007 58.5267 15.8876 58.6344 15.9294L58.7967 15.7138C58.6617 15.6301 58.6553 15.5335 58.6553 15.2937C58.6553 15.0395 58.6698 14.7723 58.6698 14.6484C58.6698 14.4778 58.6617 14.4183 58.6344 14.3427C58.5685 14.1576 58.3853 14.0643 58.1313 14.0643C57.7954 14.0643 57.5736 14.1962 57.4032 14.2928L57.5495 14.5229C57.6909 14.4151 57.8999 14.325 58.0831 14.325C58.3258 14.325 58.3531 14.4634 58.3531 14.6677V14.7836C58.3081 14.7804 58.2744 14.7804 58.2326 14.7804ZM58.3354 15.4466C58.2567 15.585 58.1185 15.6751 57.9722 15.6751C57.7954 15.6751 57.6974 15.5641 57.6974 15.3726C57.6974 15.2583 57.7215 15.1956 57.789 15.1199C57.8581 15.0395 58.0027 14.9944 58.2422 14.9944C58.2696 14.9944 58.2985 14.9976 58.3467 15.0025L58.3354 15.4466Z" fill="#636468"/>
<path d="M59.4798 15.9052C59.6229 15.9052 59.7273 15.7862 59.7273 15.6445C59.7273 15.5013 59.6229 15.3839 59.4798 15.3839C59.3384 15.3839 59.2339 15.5013 59.2339 15.6445C59.2339 15.7862 59.3384 15.9052 59.4798 15.9052Z" fill="#636468"/>
<path d="M60.2545 15.8554H60.5727V14.7337C60.5727 14.5438 60.7399 14.3797 60.9344 14.3797C60.9681 14.3797 60.9922 14.3877 61.0244 14.3974L61.1353 14.0787C61.1063 14.0675 61.0694 14.061 61.0276 14.061C60.8427 14.061 60.6949 14.1608 60.5551 14.3636V14.3314C60.5551 14.2445 60.5277 14.1302 60.4972 14.0643L60.1886 14.1447C60.2304 14.2525 60.2545 14.3668 60.2545 14.5776V15.8554Z" fill="#636468"/>
<path d="M61.9839 15.9149C62.1993 15.9149 62.3696 15.8344 62.5078 15.6655C62.5384 15.783 62.5834 15.8489 62.6702 15.9149L62.8888 15.7411C62.8197 15.6816 62.7811 15.5577 62.7811 15.3806V14.0707L62.4661 14.1335V15.3839C62.3937 15.5367 62.2266 15.6574 62.0707 15.6574C61.9935 15.6574 61.9148 15.6236 61.8698 15.5818C61.8071 15.5223 61.7894 15.4531 61.7894 15.276V14.0643L61.4744 14.127V15.3629C61.4744 15.4885 61.484 15.585 61.5162 15.6542C61.5885 15.8135 61.7621 15.9149 61.9839 15.9149Z" fill="#636468"/>
<path d="M35.9852 25.0136H39.2527V23.8453H35.9852V20.2696H39.6931V19.0674H33.9552V29.9235H39.8988V28.7214H35.9852V25.0136Z" fill="#636468"/>
<path d="M44.4939 19.0674H41.1798V29.9235H43.2097V26.5344H44.5389C46.0834 26.5344 47.9382 25.5141 47.9382 22.743C47.9382 20.2535 46.6138 19.0674 44.4939 19.0674ZM44.3026 25.4642H43.2097V20.1537H44.3026C45.23 20.1537 45.7459 20.7877 45.7459 22.8428C45.7459 24.9139 45.2155 25.4642 44.3026 25.4642Z" fill="#636468"/>
<path d="M50.902 19.0674L47.7228 29.9235H48.9588L49.8267 26.8836H53.1521L53.9766 29.9235H56.1255L53.1521 19.0674H50.902ZM50.1208 25.8327L51.5336 20.7218H51.5641L52.8724 25.8327H50.1208Z" fill="#636468"/>
<path d="M61.1176 28.8549C59.4846 28.8549 58.6456 27.7365 58.6456 24.4955C58.6456 21.256 59.4107 20.1537 61.0147 20.1537C62.4934 20.1537 63.3083 20.9712 63.3083 20.9712L63.5879 19.8447C63.5879 19.8447 62.4275 18.9001 60.7656 18.9001C58.014 18.9001 56.41 21.1546 56.41 24.5791C56.41 27.936 57.8951 30.1085 60.8379 30.1085C63.2954 30.1085 64.2083 28.1034 64.2083 28.1034L63.5606 27.302C63.5606 27.302 62.6927 28.8549 61.1176 28.8549Z" fill="#636468"/>
<path d="M70.528 20.1038V19.0674H68.498V20.1038C65.9377 20.1698 64.2308 21.6567 64.2308 24.4295C64.2308 27.2022 65.9522 28.7391 68.498 28.805V29.9235H70.528V28.805C73.0594 28.7391 74.8113 27.1845 74.8113 24.4118C74.8113 21.6406 73.0594 20.1698 70.528 20.1038ZM68.498 27.7703C66.9535 27.6866 66.3797 26.5167 66.3797 24.4295C66.3797 22.3407 66.9535 21.2061 68.498 21.1225V27.7703ZM70.528 27.7703V21.1225C72.0597 21.2061 72.6479 22.3407 72.6479 24.4118C72.6479 26.5167 72.0597 27.6866 70.528 27.7703Z" fill="#636468"/>
<path d="M78.0113 25.0136H81.2788V23.8453H78.0113V20.2696H81.7192V19.0674H75.9814V29.9235H81.9249V28.7214H78.0113V25.0136Z" fill="#636468"/>
<path d="M86.7274 19.0674H83.4116V29.9235H85.4432V26.5344H86.7708C88.3153 26.5344 90.1701 25.5141 90.1701 22.743C90.1701 20.2535 88.8457 19.0674 86.7274 19.0674ZM86.5361 25.4642H85.4432V20.1537H86.5361C87.4619 20.1537 87.9778 20.7877 87.9778 22.8428C87.9778 24.9139 87.4474 25.4642 86.5361 25.4642Z" fill="#636468"/>
<path d="M95.0272 19.0674H92.7754L89.5963 29.9235H90.8323L91.7002 26.8836H95.0272L95.8501 29.9235H97.999L95.0272 19.0674ZM91.9943 25.8327L93.4071 20.7218H93.4376L94.7475 25.8327H91.9943Z" fill="#636468"/>
<path d="M32.3786 28.8147L29.717 23.2933L32.422 19.0513H31.0092L28.3926 23.3609L27.5231 24.0787V19.0513H25.4932V29.9074H27.5231V25.5318L28.2641 24.8672L30.8935 30.601C28.1291 33.4526 24.2636 35.2259 19.982 35.2259C11.5825 35.2259 4.77423 28.4092 4.77423 20.0008C4.77423 11.5908 11.5825 4.77405 19.982 4.77405C27.7289 4.77405 34.1176 10.5754 35.0643 18.0745H35.8422H95.135V17.2957H35.7281C34.4391 9.75791 27.8719 4 19.982 4C11.1694 4 4.00115 11.1773 4.00115 20.0008C4.00115 28.8227 11.1694 36 19.982 36C24.3665 36 28.3444 34.2218 31.2359 31.3476C31.2359 31.3476 31.2359 31.346 31.2375 31.346C31.3918 31.1916 31.5428 31.0338 31.6923 30.8729C31.6987 30.8665 31.7052 30.8584 31.7116 30.8504C31.8579 30.6927 31.9993 30.5334 32.1375 30.3708C32.3513 30.1198 32.5586 29.8639 32.7579 29.6L32.3786 28.8147Z" fill="#636468"/>
</g>
<defs>
<clipPath id="clip0_713_193">
<rect width="94" height="32" fill="white" transform="translate(4 4)"/>
</clipPath>
</defs>
</svg>
