<svg width="545" height="66" viewBox="0 0 545 66" fill="none" xmlns="http://www.w3.org/2000/svg">
<rect width="494" height="66" fill="#1A1A1A"/>
<path d="M84.53 41.75L90.406 23.29H90.536L97.01 34.912L103.432 23.29H103.562L109.438 41.75H106.318L102.314 27.45L96.074 38.994H96.022L90.198 27.424L86.246 41.75H84.53ZM120.757 42.114C116.389 42.114 110.929 39.774 110.929 32.65C110.929 25.526 116.389 23.186 120.757 23.186C125.099 23.186 130.559 25.526 130.559 32.65C130.559 39.774 125.099 42.114 120.757 42.114ZM113.737 31.402C113.737 37.512 117.403 40.944 121.589 40.944C125.359 40.944 127.751 38.474 127.751 33.898C127.751 27.788 124.111 24.356 119.925 24.356C116.129 24.356 113.737 26.8 113.737 31.402ZM143.507 42.114C139.139 42.114 133.679 39.774 133.679 32.65C133.679 25.526 139.139 23.186 143.507 23.186C145.509 23.186 147.771 23.68 149.591 24.928L148.291 27.008C146.861 25.24 144.833 24.356 142.675 24.356C138.879 24.356 136.487 26.8 136.487 31.402C136.487 37.512 140.153 40.944 144.339 40.944C146.133 40.944 147.641 40.45 148.811 39.592L149.669 40.32C147.797 41.594 145.535 42.114 143.507 42.114ZM164.215 41.88C161.225 41.646 159.431 40.242 158.729 37.07C158.053 33.95 157.351 33.17 156.285 32.858V41.75H153.477V23.55H156.285V31.168C157.325 30.908 157.923 30.31 158.391 27.97C158.937 25.11 160.653 23.654 163.045 23.42V24.408C162.265 24.642 161.797 25.214 161.355 27.606C160.887 30.232 159.847 31.35 157.611 32C159.509 32.52 160.887 33.742 161.589 36.914C162.239 39.8 163.123 40.736 164.215 40.866V41.88ZM175.296 42.114C170.928 42.114 165.468 39.774 165.468 32.65C165.468 25.526 170.928 23.186 175.296 23.186C179.638 23.186 185.098 25.526 185.098 32.65C185.098 39.774 179.638 42.114 175.296 42.114ZM168.276 31.402C168.276 37.512 171.942 40.944 176.128 40.944C179.898 40.944 182.29 38.474 182.29 33.898C182.29 27.788 178.65 24.356 174.464 24.356C170.668 24.356 168.276 26.8 168.276 31.402ZM188.998 41.75V23.55H191.052C194.9 23.55 196.304 24.668 196.304 26.826C196.304 28.49 195.316 29.946 193.522 31.064C196.018 31.506 197.76 33.378 197.76 36.212C197.76 40.216 195.472 41.75 190.558 41.75H188.998ZM191.702 40.658H191.962C194.224 40.658 194.952 39.254 194.952 36.628C194.952 34.054 193.704 31.844 191.702 32.104V40.658ZM191.702 30.908C193.08 29.92 193.574 28.802 193.574 27.294C193.574 25.318 192.976 24.59 191.91 24.59H191.702V30.908ZM210.183 42.114C205.815 42.114 200.355 39.774 200.355 32.65C200.355 25.526 205.815 23.186 210.183 23.186C212.185 23.186 214.447 23.68 216.267 24.928L214.967 27.008C213.537 25.24 211.509 24.356 209.351 24.356C205.555 24.356 203.163 26.8 203.163 31.402C203.163 37.512 206.829 40.944 211.015 40.944C212.809 40.944 214.317 40.45 215.487 39.592L216.345 40.32C214.473 41.594 212.211 42.114 210.183 42.114ZM230.891 41.88C227.901 41.646 226.107 40.242 225.405 37.07C224.729 33.95 224.027 33.17 222.961 32.858V41.75H220.153V23.55H222.961V31.168C224.001 30.908 224.599 30.31 225.067 27.97C225.613 25.11 227.329 23.654 229.721 23.42V24.408C228.941 24.642 228.473 25.214 228.031 27.606C227.563 30.232 226.523 31.35 224.287 32C226.185 32.52 227.563 33.742 228.265 36.914C228.915 39.8 229.799 40.736 230.891 40.866V41.88ZM232.405 41.75L240.621 23.29H240.751L248.395 41.75H245.249L243.923 38.11H235.655L234.199 41.75H232.405ZM236.071 37.07H243.533L239.971 27.294L236.071 37.07ZM249.234 40.866C250.326 40.736 251.21 39.8 251.86 36.914C252.51 33.924 253.784 32.676 255.5 32.104C253.576 31.454 252.146 29.842 252.146 28.022C252.146 24.642 255.084 23.55 258.828 23.55H259.92V41.75H257.32V32.676C256.124 32.988 255.318 33.794 254.616 37.07C253.914 40.242 252.224 41.646 249.234 41.88V40.866ZM254.902 27.788C254.902 29.322 255.682 31.194 257.32 31.428V24.72C255.734 24.85 254.902 25.552 254.902 27.788ZM280.695 41.75V40.762C276.951 40.294 272.791 37.928 272.791 32.39C272.791 26.852 276.951 24.486 280.695 24.018V22.77H283.399V24.018C287.169 24.486 291.329 26.852 291.329 32.39C291.329 37.928 287.169 40.294 283.399 40.762V41.75H280.695ZM275.599 31.142C275.599 35.328 277.783 38.318 280.695 39.306V25.136C277.549 25.344 275.599 27.632 275.599 31.142ZM283.399 39.644C286.545 39.436 288.521 37.122 288.521 33.638C288.521 29.426 286.311 26.462 283.399 25.474V39.644ZM295.158 42.01H295.106V23.55H297.914V37.564L311.512 23.29H311.564V41.75H308.782V27.71L295.158 42.01ZM319.48 42.114C316.074 42.114 314.176 40.216 313.916 37.72H316.802C317.114 39.774 317.972 41.022 319.662 41.022C321.794 41.022 322.99 39.202 323.874 33.924L325.408 24.928L319.714 25.474V23.55H330.452V41.75H327.67V24.694L326.526 24.824L324.966 33.924C323.874 40.346 322.262 42.114 319.48 42.114ZM333.561 41.75L341.777 23.29H341.907L349.551 41.75H346.405L345.079 38.11H336.811L335.355 41.75H333.561ZM337.227 37.07H344.689L341.127 27.294L337.227 37.07ZM352.666 41.75V23.55H353.264C357.892 23.55 361.376 25.968 361.376 30.128C361.376 35.432 357.476 36.94 355.474 37.07V41.75H352.666ZM355.396 35.952C357.476 35.874 358.75 34.548 358.75 31.454C358.75 27.658 357.06 25.344 355.396 24.85V35.952ZM362.329 41.75L368.205 23.29H368.335L374.809 34.912L381.231 23.29H381.361L387.237 41.75H384.117L380.113 27.45L373.873 38.994H373.821L367.997 27.424L364.045 41.75H362.329ZM398.556 42.114C394.188 42.114 388.728 39.774 388.728 32.65C388.728 25.526 394.188 23.186 398.556 23.186C402.898 23.186 408.358 25.526 408.358 32.65C408.358 39.774 402.898 42.114 398.556 42.114ZM391.536 31.402C391.536 37.512 395.202 40.944 399.388 40.944C403.158 40.944 405.55 38.474 405.55 33.898C405.55 27.788 401.91 24.356 397.724 24.356C393.928 24.356 391.536 26.8 391.536 31.402ZM425.934 41.75V33.066H415.066V41.75H412.258V23.55H415.066V32.026H425.934V23.55H428.716V41.75H425.934ZM433.46 42.01H433.408V23.55H436.216V37.564L449.814 23.29H449.866V41.75H447.084V27.71L433.46 42.01ZM452.791 40.866C453.883 40.736 454.767 39.8 455.417 36.914C456.067 33.924 457.341 32.676 459.057 32.104C457.133 31.454 455.703 29.842 455.703 28.022C455.703 24.642 458.641 23.55 462.385 23.55H463.477V41.75H460.877V32.676C459.681 32.988 458.875 33.794 458.173 37.07C457.471 40.242 455.781 41.646 452.791 41.88V40.866ZM458.459 27.788C458.459 29.322 459.239 31.194 460.877 31.428V24.72C459.291 24.85 458.459 25.552 458.459 27.788Z" fill="white"/>
<path d="M65.8846 32.5012C65.8867 27.2361 63.887 22.1618 60.2808 18.2812C56.6747 14.4005 51.7244 11.9959 46.4084 11.5425V5.70117H44.668V59.3012H46.4084V53.4598C51.7244 53.0065 56.6747 50.6018 60.2808 46.7212C63.887 42.8405 65.8867 37.7663 65.8846 32.5012ZM46.4084 52.864V17.3838C50.8656 17.8286 54.9967 19.8905 58.0009 23.1698C61.0051 26.4491 62.6684 30.7122 62.6684 35.1327C62.6684 39.5532 61.0051 43.8163 58.0009 47.0956C54.9967 50.3749 50.8656 52.4367 46.4084 52.8816V52.864Z" fill="white"/>
<path d="M40.7216 11.5387C35.4258 11.9144 30.469 14.2861 26.85 18.176C23.231 22.0658 21.2188 27.1847 21.2188 32.5012C21.2188 37.8176 23.231 42.9365 26.85 46.8264C30.469 50.7162 35.4258 53.088 40.7216 53.4637V59.3012H42.4354V5.70117H40.7216V11.5387ZM24.5042 29.8685C24.5082 25.4174 26.1743 21.1287 29.1751 17.8451C32.1759 14.5614 36.2945 12.5202 40.7216 12.1224V47.6262C36.2925 47.2282 32.1723 45.1853 29.1712 41.8992C26.1701 38.6131 24.5053 34.3216 24.5042 29.8685Z" fill="white"/>
</svg>
