<svg width="73" height="40" viewBox="0 0 73 40" fill="none" xmlns="http://www.w3.org/2000/svg">
<rect width="73" height="40" fill="#599CFF"/>
<path d="M29.6977 4V36" stroke="white" stroke-width="2" stroke-miterlimit="10"/>
<path fill-rule="evenodd" clip-rule="evenodd" d="M14.8215 17.888C13.0741 17.888 11.6589 19.3029 11.6589 21.0501C11.6589 22.7972 13.0741 24.2122 14.8215 24.2122C16.569 24.2122 17.9842 22.7972 17.9842 21.0501C17.9867 19.3056 16.569 17.888 14.8215 17.888ZM12.1272 8.01994C14.5181 8.01994 16.4591 9.95799 16.4591 12.3511C16.4591 14.2081 15.2924 15.7904 13.6496 16.4076C13.4823 16.4496 13.3201 16.4992 13.1604 16.5594C12.8282 16.6405 12.4829 16.685 12.1272 16.685C9.73363 16.685 7.79526 14.7468 7.79526 12.3537C7.79526 9.95799 9.73625 8.01994 12.1272 8.01994ZM19.4124 14.3284V14.3232C19.5799 14.3415 19.7473 14.3519 19.9173 14.3519C20.8119 14.3519 21.6438 14.0799 22.3344 13.617C23.4854 12.8376 24.244 11.5194 24.244 10.026C24.244 7.63286 22.3056 5.69481 19.9121 5.69481C19.0645 5.69481 18.2745 5.93804 17.6075 6.35913L17.5996 6.36436C17.5866 6.37221 17.5735 6.38006 17.5604 6.39052C16.9797 6.76714 16.4984 7.27716 16.1531 7.87871C17.3773 8.97981 18.1464 10.5778 18.1464 12.3537C18.1464 12.8847 18.0783 13.3999 17.9501 13.889C18.3975 14.1165 18.8893 14.2683 19.4124 14.3284ZM6.89017 18.5916C6.52133 19.1486 6.21003 19.7267 6.00861 20.3675C5.80457 21.0161 5.72348 21.683 5.69209 22.3604C5.645 23.3308 5.68685 24.3246 5.72609 25.295C5.74441 25.7344 5.73917 26.1868 5.74179 26.6263C5.74702 27.4318 5.75487 28.2373 5.7601 29.0429C5.76533 29.838 5.77056 30.6331 5.77841 31.4256C5.78103 31.7787 5.77841 34.7237 5.78888 35.9921H4.12255C4.1147 34.6766 4.1147 31.8022 4.11209 31.4412C4.10685 30.6462 4.09901 29.8485 4.09377 29.0533C4.08854 28.2478 4.08331 27.4423 4.07546 26.6393C4.07285 26.2182 4.07808 25.7815 4.05977 25.3604C3.98914 23.5924 3.87927 21.5679 4.41815 19.8627C4.66666 19.0729 5.04334 18.3588 5.49851 17.6709C5.9903 16.9282 6.55271 16.392 7.15437 15.7486L7.13344 15.7198L7.13606 15.7172C6.4847 14.7547 6.1054 13.5961 6.1054 12.3485C6.1054 9.02427 8.80238 6.33036 12.1272 6.33036C13.0663 6.33036 13.9557 6.54483 14.7483 6.9293C15.2192 6.14466 15.8653 5.47511 16.6318 4.97556C16.6527 4.96248 16.6736 4.94941 16.6945 4.93371C16.7181 4.91803 16.7416 4.90494 16.7651 4.88925L16.773 4.88402C17.6886 4.3217 18.7663 4 19.9173 4C23.2421 4 25.9365 6.69391 25.9365 10.0181C25.9365 11.8385 25.1281 13.4705 23.8516 14.5743L23.9771 14.6972C24.9268 15.6257 25.7586 16.3998 26.5015 17.5219C26.9567 18.2097 27.3334 18.9237 27.5819 19.7136C28.1207 21.4188 28.0109 23.4432 27.9403 25.2113C27.9245 25.6324 27.9272 26.0665 27.9245 26.4902C27.9193 27.2958 27.9141 28.1014 27.9063 28.9043C27.901 29.6994 27.8958 30.4971 27.8879 31.2922C27.8827 31.7395 27.8879 35.2808 27.8696 35.728L27.8566 35.9948H26.1902L26.2059 35.6574C26.2242 35.2311 26.219 31.7054 26.2242 31.2791C26.2321 30.4841 26.2373 29.6889 26.2425 28.8965C26.2478 28.0909 26.253 27.2853 26.2582 26.4798C26.2609 26.0403 26.2582 25.5879 26.274 25.1485C26.3132 24.1782 26.355 23.1843 26.3079 22.2114C26.2765 21.534 26.1954 20.867 25.9914 20.2184C25.79 19.5776 25.4787 19.0022 25.1072 18.4425C24.4402 17.4355 23.6607 16.7241 22.8053 15.8898C22.6745 15.7591 22.541 15.6309 22.4076 15.5028C21.6464 15.8506 20.7962 16.0468 19.9042 16.0468C18.9651 16.0468 18.0757 15.8323 17.2831 15.4478C17.0425 15.8454 16.76 16.2142 16.4356 16.5463C18.2824 17.2106 19.6034 18.9787 19.6034 21.0527C19.6034 22.4336 19.0174 23.676 18.0836 24.5495C18.5387 25.0282 18.9599 25.5304 19.3601 26.1319C19.4648 26.2941 19.5668 26.4536 19.6662 26.6184C19.6793 26.6393 19.6897 26.6602 19.7028 26.6811C20.0062 27.2016 20.26 27.7431 20.4431 28.3237C20.4614 28.3812 20.4771 28.4387 20.4954 28.4963C20.689 29.1737 20.7413 29.7177 20.7518 30.4239C20.7544 30.6122 20.7544 30.8109 20.7518 31.0202L20.6733 36H18.9992C18.9992 34.381 19.0802 32.5737 19.0436 30.9757C19.0174 29.8118 18.8605 28.5225 17.9973 27.0839C17.9894 27.0708 17.9816 27.0604 17.9737 27.0499C17.5761 26.4484 17.1366 25.9515 16.6631 25.4702C16.0955 25.7083 15.4703 25.8416 14.8137 25.8416C14.2539 25.8416 13.7124 25.7449 13.2128 25.567C13.0454 25.7422 12.8832 25.9201 12.7236 26.1032C12.3652 26.5216 12.0827 26.9061 11.8211 27.3847C11.107 28.7029 10.971 29.8956 10.9448 30.9757C10.9082 32.5737 10.9893 34.381 10.9893 36H9.3151L9.23662 31.0202C9.22354 30.2067 9.24447 29.6 9.40665 28.886C9.595 28.0647 9.89582 27.3507 10.3196 26.6158C10.4268 26.4327 10.5393 26.2523 10.657 26.0744C10.9945 25.5643 11.3503 25.1276 11.727 24.7144C10.6832 23.8356 10.0188 22.52 10.0188 21.0475C10.0188 20.0013 10.3536 19.0336 10.9239 18.2463C9.92721 18.045 9.0195 17.5977 8.26613 16.9726C7.7848 17.4905 7.28516 17.9979 6.89017 18.5916Z" fill="white"/>
<path d="M35.3269 8.63593H33.1417C33.2015 7.43241 33.5996 6.48679 34.3384 5.79645C35.0772 5.10613 36.0241 4.76227 37.1818 4.76227C37.8972 4.76227 38.5268 4.90554 39.0731 5.18949C39.6194 5.47604 40.0565 5.88763 40.3843 6.42687C40.7121 6.96611 40.8759 7.51316 40.8759 8.06804C40.8759 8.7297 40.6782 9.44348 40.2802 10.2067C39.8822 10.97 39.1564 11.874 38.1001 12.9134L36.7786 14.2341H40.9722V16.1983H32.8217V15.1823L36.4612 11.6629C37.3405 10.8189 37.9258 10.139 38.2172 9.62583C38.5086 9.11265 38.6543 8.64895 38.6543 8.23476C38.6543 7.80493 38.5034 7.45064 38.2016 7.1693C37.8998 6.88796 37.5122 6.74729 37.0387 6.74729C36.5574 6.74729 36.1594 6.91662 35.8394 7.25527C35.5168 7.59392 35.3478 8.05501 35.3269 8.63593Z" fill="white"/>
<path d="M46.1985 4.7619C47.0569 4.7619 47.7958 4.96249 48.4175 5.36106C49.0393 5.75962 49.518 6.3718 49.8588 7.19239C50.1969 8.01296 50.366 9.15656 50.366 10.6232C50.366 12.1054 50.1944 13.2568 49.8509 14.0801C49.5076 14.9032 49.0445 15.5102 48.4617 15.8958C47.879 16.2813 47.148 16.4766 46.2609 16.4766C45.3764 16.4766 44.6323 16.2813 44.0288 15.8931C43.4252 15.505 42.9543 14.9137 42.6136 14.1191C42.2728 13.3246 42.101 12.1966 42.101 10.73C42.101 8.68245 42.434 7.19759 43.1001 6.27802C43.8441 5.26727 44.8743 4.7619 46.1985 4.7619ZM46.2505 6.77818C45.8732 6.77818 45.5376 6.8928 45.2437 7.12205C44.9497 7.35129 44.7286 7.74725 44.5725 8.30993C44.419 8.87002 44.341 9.6932 44.341 10.7743C44.341 12.1862 44.5179 13.1605 44.8717 13.6971C45.2255 14.2363 45.6859 14.5047 46.2479 14.5047C46.7915 14.5047 47.2208 14.2494 47.5408 13.7388C47.9284 13.1214 48.1235 12.0898 48.1235 10.644C48.1235 9.17741 47.9492 8.16666 47.6006 7.61179C47.2546 7.05692 46.802 6.77818 46.2505 6.77818Z" fill="white"/>
<path d="M53.6779 8.63556H51.4953C51.5551 7.43204 51.9531 6.48642 52.692 5.7961C53.4282 5.10576 54.3752 4.7619 55.5328 4.7619C56.2482 4.7619 56.8778 4.90518 57.4241 5.18912C57.9704 5.47568 58.4075 5.88727 58.7353 6.4265C59.063 6.96574 59.227 7.5128 59.227 8.06767C59.227 8.72934 59.0292 9.44311 58.6312 10.2064C58.2331 10.9697 57.5073 11.8736 56.4511 12.913L55.1296 14.2337H59.3232V16.1979H51.1727V15.1819L54.8122 11.6626C55.6915 10.8186 56.2769 10.1387 56.5682 9.62547C56.8596 9.11228 57.0052 8.64858 57.0052 8.23439C57.0052 7.80456 56.8544 7.45028 56.5526 7.16893C56.2508 6.88759 55.8632 6.74692 55.3897 6.74692C54.911 6.74692 54.5104 6.91625 54.1904 7.2549C53.8704 7.59355 53.6988 8.05464 53.6779 8.63556Z" fill="white"/>
<path d="M64.5495 4.7619C65.4079 4.7619 66.1468 4.96249 66.7685 5.36106C67.3903 5.75962 67.869 6.3718 68.2098 7.19239C68.5479 8.01296 68.717 9.15656 68.717 10.6232C68.717 12.1054 68.5454 13.2568 68.2019 14.0801C67.8586 14.9032 67.3955 15.5102 66.8128 15.8958C66.23 16.2813 65.499 16.4766 64.6119 16.4766C63.7274 16.4766 62.9833 16.2813 62.3798 15.8931C61.7762 15.505 61.3054 14.9137 60.9646 14.1191C60.6238 13.3246 60.452 12.1966 60.452 10.73C60.452 8.68245 60.7851 7.19759 61.4511 6.27802C62.1951 5.26727 63.2253 4.7619 64.5495 4.7619ZM64.6015 6.77818C64.2242 6.77818 63.8887 6.8928 63.5947 7.12205C63.3007 7.35129 63.0796 7.74725 62.9235 8.30993C62.77 8.87002 62.692 9.6932 62.692 10.7743C62.692 12.1862 62.8688 13.1605 63.2227 13.6971C63.5765 14.2363 64.037 14.5047 64.5989 14.5047C65.1426 14.5047 65.5719 14.2494 65.8918 13.7388C66.2795 13.1214 66.4745 12.0898 66.4745 10.644C66.4745 9.17741 66.3002 8.16666 65.9517 7.61179C65.6056 7.05692 65.153 6.77818 64.6015 6.77818Z" fill="white"/>
<path d="M36.6587 24.6928L34.9235 20.3659L33.1571 24.6928H31.8902L34.3096 18.808H35.5193L37.9309 24.6928H36.6587Z" fill="white"/>
<path d="M40.2435 23.3435L38.0166 18.8108H39.3642L40.8418 22.0932L42.0515 18.8108H43.2795L41.6093 23.0205C41.3232 23.7395 41.011 24.2214 40.6728 24.4663C40.3345 24.7112 39.9755 24.831 39.5957 24.831C38.9766 24.831 38.4043 24.5445 37.8813 23.9739L38.6644 23.2341C38.9766 23.5754 39.2862 23.7474 39.5905 23.7474C39.7258 23.7474 39.8403 23.716 39.9287 23.6536C40.0172 23.591 40.1213 23.4869 40.2435 23.3435Z" fill="white"/>
<path d="M46.7291 22.114H46.3285C45.7509 22.114 45.3269 22.0853 45.0511 22.0306C44.778 21.9759 44.5153 21.8561 44.2655 21.6738C44.0157 21.4914 43.8389 21.2699 43.7374 21.0095C43.6359 20.749 43.5839 20.4051 43.5839 19.9779V18.8108H44.7936V19.9596C44.7936 20.3608 44.8691 20.6395 45.0226 20.7959C45.1761 20.9522 45.5038 21.0329 46.0033 21.0329H46.7291V18.8134H47.931V24.6981H46.7291V22.114Z" fill="white"/>
<path d="M52.1036 23.6846V18.808H53.3055V23.6846H55.0096V18.808H56.2193V24.6928H49.216V18.808H50.4257V23.6846H52.1036Z" fill="white"/>
<path d="M62.0624 18.808V24.6928H60.8683V21.0093L58.5296 24.6928H57.4915V18.808H58.6856V22.6113L61.0556 18.808H62.0624Z" fill="white"/>
<path d="M67.9211 18.8081V24.6929H66.727V21.0094L64.3882 24.6929H63.3502V18.8081H64.5443V22.6115L66.9143 18.8081H67.9211ZM63.9304 17.2296H64.8721C64.9449 17.339 65.049 17.4197 65.1817 17.4744C65.3143 17.5291 65.4756 17.5552 65.6656 17.5552C65.8581 17.5552 66.0324 17.5239 66.1911 17.4588C66.2925 17.4171 66.3836 17.339 66.459 17.227H67.4008C67.3461 17.5655 67.1744 17.8365 66.883 18.0423C66.5917 18.2481 66.1859 18.3497 65.6629 18.3497C65.3118 18.3497 65.0152 18.3028 64.7785 18.2116C64.5417 18.1204 64.3492 17.9876 64.2061 17.8183C64.0578 17.6516 63.9668 17.4536 63.9304 17.2296Z" fill="white"/>
<path d="M35.6415 26.6284L35.1551 27.0843C34.8247 26.7404 34.4527 26.5684 34.039 26.5684C33.6904 26.5684 33.3965 26.6857 33.1571 26.9201C32.9177 27.1546 32.7981 27.4437 32.7981 27.7876C32.7981 28.0273 32.8502 28.2383 32.9568 28.4258C33.0635 28.6108 33.2118 28.7567 33.4068 28.8635C33.5993 28.9703 33.8153 29.0224 34.0521 29.0224C34.2549 29.0224 34.4397 28.9859 34.6062 28.9104C34.7727 28.8375 34.9574 28.702 35.1577 28.5066L35.6285 28.9911C35.358 29.2491 35.103 29.4288 34.8637 29.5303C34.6244 29.6294 34.3486 29.6814 34.0416 29.6814C33.4745 29.6814 33.0088 29.5043 32.6472 29.15C32.2856 28.7958 32.1035 28.3425 32.1035 27.7902C32.1035 27.4334 32.1868 27.1155 32.3507 26.8368C32.5145 26.5581 32.7513 26.334 33.0583 26.1647C33.3653 25.9953 33.6956 25.912 34.0521 25.912C34.3538 25.912 34.6426 25.9745 34.9235 26.0996C35.1967 26.2194 35.4386 26.3966 35.6415 26.6284Z" fill="white"/>
<path d="M37.7618 25.9066C38.2795 25.9066 38.7244 26.0916 39.0964 26.4589C39.4684 26.8262 39.6557 27.2743 39.6557 27.803C39.6557 28.3267 39.471 28.7695 39.1042 29.1342C38.7374 29.4963 38.2925 29.6787 37.767 29.6787C37.2181 29.6787 36.7628 29.4911 36.3986 29.1186C36.0344 28.7461 35.8549 28.3032 35.8549 27.79C35.8549 27.4462 35.9408 27.131 36.1098 26.8444C36.2789 26.5579 36.5105 26.3286 36.8071 26.1593C37.101 25.99 37.421 25.9066 37.7618 25.9066ZM37.754 26.5761C37.4158 26.5761 37.1322 26.6907 36.9007 26.9226C36.6692 27.1544 36.5547 27.4462 36.5547 27.803C36.5547 28.199 36.7004 28.5142 36.9892 28.7461C37.2155 28.9259 37.473 29.017 37.7644 29.017C38.0948 29.017 38.3758 28.8998 38.6073 28.6653C38.8388 28.4309 38.9559 28.1417 38.9559 27.7979C38.9559 27.4566 38.8388 27.1675 38.6047 26.9304C38.3706 26.6933 38.0896 26.5761 37.754 26.5761Z" fill="white"/>
<path d="M40.2204 29.5877V25.9954H40.9254V28.9703H42.1507V25.9954H42.8531V28.9703H43.5972V30.1217H42.9468V29.5851H40.2204V29.5877Z" fill="white"/>
<path d="M46.6199 25.9954V29.5851H45.9252V27.3369L44.562 29.5851H43.9559V25.9954H44.6505V28.3164L46.0319 25.9954H46.6199Z" fill="white"/>
<path d="M48.4877 25.9954H49.1928L50.5975 29.5851H49.8744L49.5881 28.8453H48.0975L47.8009 29.5851H47.0777L48.4877 25.9954ZM48.8468 26.9488L48.355 28.181H49.3332L48.8468 26.9488Z" fill="white"/>
<path d="M53.4957 29.5875L52.4837 26.9486L51.4536 29.5875H50.7147L52.1247 25.9978H52.8297L54.2346 29.5875H53.4957Z" fill="white"/>
<path d="M54.5753 29.5877V25.9954H55.2699V27.35H55.4208C55.7095 27.35 55.9515 27.3839 56.1441 27.4489C56.3366 27.5141 56.503 27.6391 56.6435 27.8241C56.784 28.009 56.8542 28.2305 56.8542 28.491C56.8542 28.7359 56.7944 28.9442 56.6721 29.1162C56.5499 29.2881 56.412 29.4079 56.2507 29.4783C56.0894 29.5486 55.8708 29.5851 55.5925 29.5851H54.5753V29.5877ZM55.2699 27.9621V28.9364H55.4442C55.733 28.9364 55.9255 28.9026 56.0243 28.8322C56.1232 28.7619 56.1701 28.6421 56.1701 28.4727C56.1701 28.1314 55.9177 27.9621 55.4156 27.9621H55.2699Z" fill="white"/>
<path d="M57.3849 25.9954H58.0899V27.35H59.31V25.9954H60.0124V29.5851H59.31V28.0117H58.0899V29.5851H57.3849V25.9954Z" fill="white"/>
<path d="M60.7591 29.5877V25.9954H61.4537V27.35H61.6046C61.8934 27.35 62.1353 27.3839 62.3278 27.4489C62.5203 27.5141 62.6868 27.6391 62.8273 27.8241C62.9678 28.009 63.0381 28.2305 63.0381 28.491C63.0381 28.7359 62.9782 28.9442 62.8559 29.1162C62.7363 29.2881 62.5958 29.4079 62.4345 29.4783C62.2758 29.5486 62.0547 29.5851 61.7789 29.5851H60.7591V29.5877ZM61.4537 27.9621V28.9364H61.628C61.9168 28.9364 62.1067 28.9026 62.2055 28.8322C62.3018 28.7619 62.3513 28.6421 62.3513 28.4727C62.3513 28.1314 62.1015 27.9621 61.5968 27.9621H61.4537ZM63.5479 25.9954H64.24V29.5851H63.5479V25.9954Z" fill="white"/>
<path d="M67.6531 25.9953V29.585H66.9586V27.3369L65.5953 29.585H64.9892V25.9953H65.6838V28.3163L67.0652 25.9953H67.6531ZM65.3274 25.0315H65.8763C65.9205 25.0992 65.9804 25.1486 66.0558 25.1825C66.1338 25.2164 66.2275 25.232 66.3367 25.232C66.4486 25.232 66.5501 25.2138 66.6411 25.1747C66.701 25.1486 66.753 25.1018 66.7973 25.0341H67.3461C67.3149 25.2398 67.2135 25.4065 67.0443 25.5316C66.8753 25.6566 66.6385 25.7192 66.3315 25.7192C66.126 25.7192 65.9543 25.6905 65.8164 25.6358C65.6786 25.5785 65.5667 25.5003 65.4834 25.3961C65.4028 25.2893 65.3482 25.1695 65.3274 25.0315Z" fill="white"/>
<path d="M32.3301 31.3047H35.1631V35.2722H34.4061V32.0107H33.0898V35.2722H32.3301V31.3047Z" fill="white"/>
<path d="M35.9749 31.3043H36.7709C37.2002 31.3043 37.5123 31.3434 37.7023 31.4241C37.8921 31.5049 38.0431 31.6325 38.1523 31.8123C38.2616 31.9921 38.3162 32.2056 38.3162 32.4557C38.3162 32.7319 38.2434 32.9637 38.1003 33.146C37.9572 33.3284 37.7621 33.4561 37.5149 33.529C37.3693 33.5707 37.1065 33.5915 36.7241 33.5915V35.2718H35.9749V31.3043ZM36.7241 32.8543H36.9634C37.1508 32.8543 37.2808 32.8413 37.3536 32.8126C37.4265 32.7866 37.4837 32.7422 37.5253 32.6798C37.567 32.6172 37.5878 32.5417 37.5878 32.4531C37.5878 32.2994 37.5279 32.1874 37.4109 32.1171C37.325 32.065 37.1663 32.0389 36.9348 32.0389H36.7241V32.8543Z" fill="white"/>
<path d="M40.8056 31.2053C41.3624 31.2053 41.841 31.4085 42.2443 31.8149C42.6449 32.2213 42.8453 32.7163 42.8453 33.3024C42.8453 33.8807 42.6476 34.3704 42.2521 34.7716C41.8567 35.1728 41.3754 35.3734 40.8109 35.3734C40.2203 35.3734 39.7286 35.1676 39.3358 34.7559C38.9456 34.3444 38.7479 33.8546 38.7479 33.2894C38.7479 32.909 38.8389 32.56 39.021 32.2421C39.2032 31.9243 39.4529 31.6716 39.7729 31.4841C40.0928 31.2965 40.4363 31.2053 40.8056 31.2053ZM40.7979 31.9425C40.4336 31.9425 40.1267 32.0702 39.8769 32.3255C39.6272 32.5808 39.5049 32.9064 39.5049 33.2998C39.5049 33.74 39.661 34.0865 39.9732 34.3418C40.2151 34.5424 40.4961 34.6414 40.8109 34.6414C41.1673 34.6414 41.469 34.5111 41.7188 34.2532C41.9685 33.9953 42.0934 33.6749 42.0934 33.2945C42.0934 32.9169 41.9685 32.5964 41.7162 32.3359C41.4665 32.0754 41.1594 31.9425 40.7979 31.9425Z" fill="white"/>
<path d="M43.4621 31.3043H45.6135V32.0441H44.2061V32.7605H45.6135V33.4873H44.2061V34.5319H45.6135V35.2743H43.4621V31.3043Z" fill="white"/>
<path d="M46.23 31.3043H46.9871V32.6719L48.0562 31.3043H48.9564L47.5802 33.0757L49.0891 35.2743H48.1994L46.9844 33.5108V35.2743H46.2274V31.3043H46.23Z" fill="white"/>
<path d="M49.2374 31.3043H51.4149V32.0494H50.6968V35.2743H49.9372V32.0494H49.2374V31.3043Z" fill="white"/>
<path d="M53.2829 31.3043H55.2393V32.0441H54.0295V35.2743H53.2855V31.3043H53.2829Z" fill="white"/>
<path d="M57.4166 31.2053C57.9734 31.2053 58.4546 31.4085 58.8552 31.8149C59.2559 32.2213 59.4562 32.7163 59.4562 33.3024C59.4562 33.8807 59.2585 34.3704 58.863 34.7716C58.4676 35.1728 57.9864 35.3734 57.4218 35.3734C56.8312 35.3734 56.3396 35.1676 55.9467 34.7559C55.5566 34.3444 55.3588 33.8546 55.3588 33.2894C55.3588 32.909 55.4498 32.56 55.632 32.2421C55.8141 31.9243 56.0638 31.6716 56.3838 31.4841C56.7038 31.2965 57.0472 31.2053 57.4166 31.2053ZM57.4088 31.9425C57.0446 31.9425 56.7376 32.0702 56.4879 32.3255C56.2382 32.5808 56.1159 32.9064 56.1159 33.2998C56.1159 33.74 56.2719 34.0865 56.5841 34.3418C56.826 34.5424 57.107 34.6414 57.4218 34.6414C57.7782 34.6414 58.08 34.5111 58.3297 34.2532C58.5795 33.9953 58.7044 33.6749 58.7044 33.2945C58.7044 32.9169 58.5795 32.5964 58.3271 32.3359C58.0748 32.0754 57.7678 31.9425 57.4088 31.9425Z" fill="white"/>
<path d="M61.2197 31.3043H61.9768L63.2437 34.5632H63.6834V35.8657H62.9576V35.2718H60.2468V35.8657H59.521V34.5632H59.958L61.2197 31.3043ZM61.6047 32.3567L60.7411 34.5632H62.4658L61.6047 32.3567Z" fill="white"/>
<path d="M65.3197 31.3043H66.0794L67.5961 35.2718H66.8156L66.5086 34.4538H64.9009L64.5809 35.2718H63.8004L65.3197 31.3043ZM65.7047 32.3567L65.1766 33.7191H66.2302L65.7047 32.3567Z" fill="white"/>
</svg>
