<svg width="104" height="40" viewBox="0 0 104 40" fill="none" xmlns="http://www.w3.org/2000/svg">
<rect width="104" height="40" fill="#86272F"/>
<path d="M67.0263 2.76727H67.5716C67.6646 2.90529 67.7898 3.00828 67.9476 3.07728C68.1037 3.14629 68.2909 3.18027 68.508 3.18027C68.7278 3.18027 68.9052 3.14891 69.0407 3.08931C69.1757 3.02867 69.3024 2.92045 69.4238 2.76727H69.9521C69.8912 3.00566 69.7378 3.20432 69.4885 3.36429C69.2393 3.52374 68.9112 3.60373 68.5042 3.60373C68.0994 3.60373 67.7702 3.52531 67.5139 3.36848C67.2571 3.21164 67.0954 3.01089 67.0263 2.76727V2.76727ZM70.8728 9.9953H70.2422V5.52706L66.2433 9.9953H66.1062V4.16259H66.7135V8.71082L70.7362 4.16259H70.8728V9.9953V9.9953ZM61.5752 4.16259H65.0544V4.73817H62.1825V6.56217H65.0305V7.13305H62.1825V9.42024H65.0305V9.9953H61.5752V4.16259V4.16259ZM56.7847 4.72981C57.2118 4.2546 57.7385 4.01673 58.3654 4.01673C58.8638 4.01673 59.2752 4.15475 59.5989 4.43078C59.9243 4.70681 60.0865 5.06387 60.0865 5.50353C60.0865 6.12512 59.7823 6.57054 59.1751 6.83977C59.9755 7.07764 60.3754 7.59363 60.3754 8.38617C60.3754 8.91418 60.1964 9.34025 59.8384 9.66229C59.4809 9.98432 58.9922 10.1453 58.3692 10.1453C57.9355 10.1453 57.5579 10.0591 57.2369 9.88552C56.9174 9.71248 56.6144 9.40926 56.3314 8.97639L56.8015 8.71082C57.0823 9.10761 57.3457 9.36221 57.5905 9.47461C57.8343 9.58649 58.089 9.64242 58.354 9.64242C58.7387 9.64242 59.0651 9.53525 59.3356 9.32143C59.6049 9.10761 59.7399 8.79237 59.7399 8.37833C59.7399 8.15928 59.6936 7.9669 59.6017 7.80431C59.5092 7.64225 59.3791 7.51103 59.2115 7.41065C59.0439 7.31028 58.885 7.24702 58.7327 7.21984C58.582 7.19422 58.3327 7.18063 57.9861 7.18063H57.8833V6.66934H58.0852C58.9852 6.66934 59.4341 6.31855 59.4341 5.61907C59.4341 5.29285 59.3312 5.03407 59.1272 4.84325C58.9215 4.65139 58.6625 4.5552 58.3496 4.5552C57.9426 4.5552 57.5595 4.73242 57.202 5.08687L56.7847 4.72981V4.72981ZM50.7394 4.17879H51.4255L53.2609 8.13994L54.9412 4.16259H55.6045L53.3028 9.40403C53.0873 9.8965 52.7069 10.1417 52.159 10.1417C51.9397 10.1417 51.7308 10.0993 51.5365 10.0131C51.3406 9.92786 51.0931 9.7245 50.7927 9.40403L51.2351 9.05638C51.5409 9.34444 51.7438 9.50807 51.845 9.54728C51.9479 9.58649 52.0507 9.60687 52.1552 9.60687C52.3141 9.60687 52.4534 9.56662 52.5704 9.48402C52.6874 9.40246 52.8152 9.19701 52.9562 8.86975L50.7394 4.17879V4.17879ZM43.1585 9.9953L44.0204 4.16259H44.1205L46.5882 8.94921L49.0308 4.16259H49.1293L50.0015 9.9953H49.403L48.8082 5.82452L46.6616 9.9953H46.5093L44.3349 5.79315L43.7445 9.9953H43.1585Z" fill="white"/>
<path d="M83.2442 19.029H82.613V14.5602L78.6142 19.029H78.4776V13.1962H79.0843V17.7445L83.1076 13.1962H83.2442V19.029V19.029ZM76.9927 19.029H76.362V14.5602L72.3632 19.029H72.2266V13.1962H72.8333V17.7445L76.8561 13.1962H76.9927V19.029V19.029ZM67.8235 13.7629V15.7459L68.8514 15.7579C69.2671 15.7579 69.5702 15.7213 69.7628 15.6481C69.956 15.5765 70.1067 15.4589 70.2166 15.2963C70.3276 15.1342 70.3826 14.9512 70.3826 14.751C70.3826 14.555 70.3276 14.3762 70.2166 14.2136C70.1067 14.0515 69.9614 13.9349 69.7813 13.8675C69.6006 13.7985 69.3068 13.7629 68.8965 13.7629H67.8235ZM67.2162 13.1962H68.4264C69.1191 13.1962 69.587 13.226 69.8292 13.2841C70.1758 13.3651 70.4587 13.5345 70.6796 13.7886C70.8995 14.0447 71.0094 14.3652 71.0094 14.751C71.0094 15.1394 70.9022 15.4599 70.6867 15.7119C70.4729 15.9649 70.1769 16.1343 69.7998 16.2221C69.525 16.2854 69.0108 16.3168 68.2572 16.3168H67.8235V19.029H67.2162V13.1962V13.1962ZM62.7979 13.6207C62.3484 13.6207 61.9246 13.7331 61.5214 13.9579C61.1203 14.1827 60.8075 14.486 60.5805 14.866C60.3553 15.2461 60.2426 15.6711 60.2426 16.138C60.2426 16.8312 60.4919 17.4156 60.9919 17.8935C61.4903 18.3697 62.0932 18.6081 62.7979 18.6081C63.268 18.6081 63.7033 18.4983 64.1033 18.2788C64.5032 18.0597 64.8161 17.7596 65.0403 17.3791C65.2639 16.999 65.3765 16.575 65.3765 16.1113C65.3765 15.6481 65.2639 15.2299 65.0403 14.855C64.8161 14.4818 64.5005 14.1827 64.0935 13.9579C63.6865 13.7331 63.2539 13.6207 62.7979 13.6207V13.6207ZM62.768 13.0499C63.6865 13.0499 64.4553 13.3447 65.0751 13.9339C65.6938 14.5236 66.0034 15.2492 66.0034 16.1113C66.0034 16.965 65.6949 17.6891 65.0767 18.2829C64.4597 18.8784 63.706 19.1748 62.8175 19.1748C61.9186 19.1748 61.1595 18.88 60.5397 18.2871C59.9216 17.6959 59.6115 16.9786 59.6115 16.138C59.6115 15.5781 59.7524 15.0584 60.0342 14.5806C60.3156 14.1012 60.7003 13.7279 61.1878 13.4561C61.6748 13.1853 62.2015 13.0499 62.768 13.0499V13.0499ZM55.6747 13.7629V13.1962H59.0047V13.7629H57.6509V19.029H57.0328V13.7629H55.6747V13.7629ZM55.0592 14.2789L54.5804 14.6318C54.317 14.3019 53.9998 14.0515 53.6293 13.8811C53.2592 13.7101 52.8533 13.6249 52.4099 13.6249C51.925 13.6249 51.4772 13.7358 51.0648 13.9595C50.6518 14.1827 50.3324 14.4833 50.1055 14.8592C49.8785 15.2367 49.7643 15.6607 49.7643 16.1301C49.7643 16.8416 50.0178 17.4345 50.5266 17.9107C51.0337 18.3859 51.6742 18.6243 52.4479 18.6243C53.2968 18.6243 54.0085 18.3049 54.5804 17.6645L55.0592 18.0137C54.7562 18.3833 54.3785 18.6698 53.9269 18.8716C53.4747 19.0744 52.9687 19.1748 52.4099 19.1748C51.3477 19.1748 50.5108 18.835 49.8971 18.1559C49.3828 17.5835 49.1249 16.8908 49.1249 16.0784C49.1249 15.2247 49.4362 14.5074 50.0603 13.924C50.6828 13.3411 51.4631 13.0499 52.4011 13.0499C52.9687 13.0499 53.4802 13.1581 53.9367 13.3735C54.3927 13.5883 54.7676 13.8905 55.0592 14.2789V14.2789ZM47.9251 19.029H47.2939V14.5602L43.2951 19.029H43.1585V13.1962H43.7652V17.7445L47.788 13.1962H47.9251V19.029Z" fill="white"/>
<path d="M75.4887 23.4676L74.4445 25.5813H76.5209L75.4887 23.4676ZM75.5632 22.2307L78.3944 28.0629H77.7419L76.7886 26.1443H74.173L73.2235 28.0629H72.5477L75.4152 22.2307H75.5632ZM67.3273 27.5208H71.029L69.1305 23.4363L67.3273 27.5208V27.5208ZM66.7456 28.936H66.147V27.5208H66.6416L69.0233 22.2307H69.2333L71.7461 27.5208H72.2206V28.936H71.6237V28.0629H66.7456V28.936V28.936ZM62.3381 22.6552C61.8892 22.6552 61.4648 22.7676 61.0621 22.9924C60.6605 23.2172 60.3482 23.5204 60.1213 23.9005C59.896 24.2806 59.7834 24.7056 59.7834 25.1724C59.7834 25.8657 60.0326 26.4501 60.5327 26.928C61.0311 27.4042 61.634 27.6421 62.3381 27.6421C62.8088 27.6421 63.2441 27.5328 63.644 27.3138C64.044 27.0942 64.3568 26.7941 64.5805 26.4135C64.8047 26.0335 64.9173 25.6095 64.9173 25.1458C64.9173 24.6826 64.8047 24.2644 64.5805 23.8895C64.3568 23.5163 64.0412 23.2172 63.6342 22.9924C63.2272 22.7676 62.7946 22.6552 62.3381 22.6552V22.6552ZM62.3087 22.0844C63.2272 22.0844 63.9961 22.3797 64.6158 22.9684C65.2345 23.5581 65.5441 24.2837 65.5441 25.1458C65.5441 25.9995 65.2356 26.7235 64.6175 27.3174C64.0004 27.9129 63.2468 28.2093 62.3582 28.2093C61.4593 28.2093 60.7003 27.9145 60.0805 27.3216C59.4618 26.7303 59.1522 26.0131 59.1522 25.1724C59.1522 24.6125 59.2931 24.0929 59.575 23.6151C59.8563 23.1357 60.241 22.7624 60.7286 22.4906C61.2156 22.2198 61.7423 22.0844 62.3087 22.0844V22.0844ZM55.0168 22.7974V24.7804L56.0452 24.7924C56.4604 24.7924 56.7635 24.7558 56.9561 24.6826C57.1493 24.611 57.3 24.4933 57.4099 24.3308C57.5214 24.1687 57.5759 23.9857 57.5759 23.7855C57.5759 23.5894 57.5214 23.4107 57.4099 23.2481C57.3 23.086 57.1547 22.9694 56.9746 22.902C56.7945 22.833 56.5001 22.7974 56.0898 22.7974H55.0168ZM54.4095 22.2307H55.6197C56.3124 22.2307 56.7803 22.2605 57.0225 22.3186C57.3691 22.3996 57.652 22.569 57.8735 22.8236C58.0928 23.0792 58.2027 23.3997 58.2027 23.7855C58.2027 24.1739 58.0955 24.4949 57.8806 24.7464C57.6662 24.9994 57.3702 25.1688 56.9931 25.2566C56.7183 25.3199 56.2041 25.3512 55.4505 25.3512H55.0168V28.0629H54.4095V22.2307ZM49.9912 22.6552C49.5417 22.6552 49.1179 22.7676 48.7146 22.9924C48.3136 23.2172 48.0007 23.5204 47.7738 23.9005C47.5486 24.2806 47.4359 24.7056 47.4359 25.1724C47.4359 25.8657 47.6852 26.4501 48.1852 26.928C48.6836 27.4042 49.2871 27.6421 49.9912 27.6421C50.4613 27.6421 50.8966 27.5328 51.2966 27.3138C51.697 27.0942 52.0094 26.7941 52.2336 26.4135C52.4572 26.0335 52.5698 25.6095 52.5698 25.1458C52.5698 24.6826 52.4572 24.2644 52.2336 23.8895C52.0094 23.5163 51.6938 23.2172 51.2868 22.9924C50.8798 22.7676 50.4472 22.6552 49.9912 22.6552V22.6552ZM49.9613 22.0844C50.8798 22.0844 51.6486 22.3797 52.2684 22.9684C52.8871 23.5581 53.1967 24.2837 53.1967 25.1458C53.1967 25.9995 52.8887 26.7235 52.27 27.3174C51.653 27.9129 50.8993 28.2093 50.0108 28.2093C49.1124 28.2093 48.3528 27.9145 47.733 27.3216C47.1149 26.7303 46.8047 26.0131 46.8047 25.1724C46.8047 24.6125 46.9457 24.0929 47.2275 23.6151C47.5094 23.1357 47.8936 22.7624 48.3811 22.4906C48.8686 22.2198 49.3954 22.0844 49.9613 22.0844ZM43.7598 28.0629H43.1585V22.2307H46.1991V22.8058H43.7598V28.0629Z" fill="white"/>
<path d="M93.5365 31.8338V33.8162L92.4923 33.8245C92.0885 33.8245 91.7898 33.7879 91.595 33.7137C91.4007 33.639 91.2506 33.5213 91.1417 33.3593C91.0334 33.1967 90.9785 33.0137 90.9785 32.8135C90.9785 32.6174 91.0334 32.4402 91.1434 32.2808C91.2533 32.1208 91.398 32.0058 91.577 31.9368C91.7561 31.8693 92.0532 31.8338 92.4689 31.8338H93.5365V31.8338ZM94.1437 31.2629H92.9346C92.2599 31.2629 91.8039 31.2901 91.5645 31.3429C91.2038 31.4223 90.911 31.5917 90.6852 31.8516C90.4599 32.1129 90.3473 32.4334 90.3473 32.8135C90.3473 33.1303 90.4251 33.4089 90.5796 33.6499C90.7358 33.8909 90.9573 34.0723 91.2473 34.1952C91.5362 34.3186 91.9345 34.3808 92.4433 34.3834L90.2602 37.0956H91.0122L93.1898 34.3834H93.5365V37.0956H94.1437V31.2629V31.2629ZM89.6824 37.0956H89.0218L87.0118 32.5876L84.9653 37.0956H84.3047L86.9459 31.2629H87.0781L89.6824 37.0956V37.0956ZM80.5257 34.2888V36.5242H81.2766C81.7201 36.5242 82.0438 36.4824 82.2511 36.3998C82.4568 36.3161 82.6228 36.186 82.7485 36.0087C82.8736 35.8315 82.9357 35.6407 82.9357 35.4337C82.9357 35.1754 82.847 34.9491 82.6707 34.7556C82.4949 34.5632 82.2539 34.431 81.9453 34.3604C81.7386 34.3118 81.3789 34.2888 80.868 34.2888H80.5257V34.2888ZM80.5257 31.8338V33.7012H80.8718C81.2929 33.7012 81.6031 33.6635 81.8001 33.5893C81.9992 33.5135 82.1554 33.3943 82.2707 33.2317C82.3861 33.0696 82.4443 32.8893 82.4443 32.6906C82.4443 32.424 82.3469 32.2144 82.1537 32.0628C81.9595 31.9096 81.651 31.8338 81.2271 31.8338H80.5257ZM79.931 31.2629H81.1286C81.6102 31.2629 81.9791 31.3183 82.2381 31.4281C82.496 31.5374 82.7006 31.7067 82.8513 31.9342C83.0004 32.1616 83.0766 32.413 83.0766 32.6906C83.0766 32.9504 83.0102 33.1857 82.878 33.3985C82.7452 33.6107 82.551 33.7843 82.2963 33.915C82.6119 34.0195 82.8551 34.1398 83.026 34.2778C83.1974 34.4174 83.3302 34.5852 83.4243 34.7828C83.519 34.9789 83.5663 35.1927 83.5663 35.4227C83.5663 35.8895 83.3889 36.2863 83.0325 36.6094C82.6767 36.933 82.1989 37.0956 81.5987 37.0956H79.931V31.2629V31.2629ZM76.0693 32.4998L75.0251 34.6134H77.1015L76.0693 32.4998ZM76.1438 31.2629L78.9749 37.0956H78.3225L77.3692 35.1765H74.7535L73.804 37.0956H73.1282L75.9958 31.2629H76.1438V31.2629ZM72.6445 37.0956H71.9839L69.9744 32.5876L67.9274 37.0956H67.2668L69.908 31.2629H70.0403L72.6445 37.0956V37.0956ZM66.5121 32.3456L66.0333 32.6985C65.7699 32.3686 65.4527 32.1182 65.0821 31.9477C64.7121 31.7773 64.3062 31.6916 63.8627 31.6916C63.3779 31.6916 62.9301 31.8029 62.5171 32.0262C62.1046 32.2494 61.7852 32.55 61.5583 32.9259C61.3314 33.3038 61.2172 33.7273 61.2172 34.1968C61.2172 34.9083 61.4707 35.5011 61.9795 35.9779C62.4866 36.4526 63.1271 36.691 63.9008 36.691C64.7497 36.691 65.4614 36.3716 66.0333 35.7317L66.5121 36.0804C66.209 36.45 65.8319 36.737 65.3792 36.9388C64.9276 37.1416 64.4215 37.2415 63.8627 37.2415C62.8006 37.2415 61.9637 36.9017 61.3494 36.2226C60.8357 35.6501 60.5778 34.9574 60.5778 34.1455C60.5778 33.2913 60.889 32.574 61.5132 31.9911C62.1356 31.4077 62.9159 31.1165 63.854 31.1165C64.4216 31.1165 64.933 31.2247 65.3896 31.4401C65.8455 31.6555 66.2205 31.9572 66.5121 32.3456V32.3456ZM56.4353 31.6879C55.9859 31.6879 55.562 31.8003 55.1593 32.0246C54.7578 32.2494 54.4449 32.5526 54.2185 32.9327C53.9927 33.3133 53.8801 33.7383 53.8801 34.2051C53.8801 34.8978 54.1298 35.4823 54.6293 35.9601C55.1283 36.4364 55.7312 36.6748 56.4353 36.6748C56.906 36.6748 57.3413 36.565 57.7412 36.3459C58.1412 36.1264 58.454 35.8263 58.6777 35.4457C58.9019 35.0656 59.0145 34.6417 59.0145 34.1779C59.0145 33.7148 58.9019 33.2971 58.6777 32.9217C58.454 32.5484 58.1379 32.2494 57.7309 32.0246C57.3239 31.8003 56.8918 31.6879 56.4353 31.6879V31.6879ZM56.4059 31.1165C57.3239 31.1165 58.0933 31.4119 58.7131 32.0005C59.3312 32.5902 59.6413 33.3159 59.6413 34.1779C59.6413 35.0317 59.3328 35.7557 58.7147 36.3496C58.0971 36.9451 57.344 37.2415 56.4549 37.2415C55.5565 37.2415 54.7969 36.9466 54.1777 36.3538C53.559 35.7625 53.2494 35.0452 53.2494 34.2051C53.2494 33.6447 53.3904 33.1251 53.6717 32.6472C53.9535 32.1684 54.3382 31.7946 54.8252 31.5227C55.3128 31.2519 55.8395 31.1165 56.4059 31.1165V31.1165ZM49.114 31.8296V33.8125L50.1419 33.8245C50.5576 33.8245 50.8601 33.788 51.0533 33.7148C51.2465 33.6431 51.3966 33.5255 51.5066 33.3634C51.6181 33.2009 51.6731 33.0179 51.6731 32.8177C51.6731 32.6216 51.6181 32.4428 51.5066 32.2808C51.3966 32.1182 51.2519 32.0016 51.0718 31.9342C50.8911 31.8651 50.5968 31.8296 50.187 31.8296H49.114V31.8296ZM48.5068 31.2629H49.7164C50.4096 31.2629 50.877 31.2927 51.1191 31.3507C51.4658 31.4318 51.7492 31.6011 51.9702 31.8557C52.19 32.1114 52.2999 32.4318 52.2999 32.8177C52.2999 33.2061 52.1927 33.5271 51.9772 33.7785C51.7634 34.0316 51.4674 34.2009 51.0898 34.2888C50.815 34.352 50.3013 34.3834 49.5477 34.3834H49.114V37.0956H48.5068V31.2629V31.2629ZM46.4108 31.8338V33.8162L45.3671 33.8245C44.9628 33.8245 44.6641 33.7879 44.4698 33.7137C44.2756 33.639 44.1249 33.5213 44.016 33.3593C43.9077 33.1967 43.8528 33.0137 43.8528 32.8135C43.8528 32.6174 43.9077 32.4402 44.0177 32.2808C44.1276 32.1208 44.2723 32.0058 44.4513 31.9368C44.6304 31.8693 44.9275 31.8338 45.3432 31.8338H46.4108V31.8338ZM47.018 31.2629H45.8095C45.1348 31.2629 44.6782 31.2901 44.4388 31.3429C44.0781 31.4223 43.7853 31.5917 43.56 31.8516C43.3342 32.1129 43.2216 32.4334 43.2216 32.8135C43.2216 33.1303 43.2994 33.4089 43.4539 33.6499C43.6107 33.8909 43.8316 34.0723 44.1216 34.1952C44.4105 34.3186 44.8094 34.3808 45.3176 34.3834L43.1345 37.0956H43.8865L46.0641 34.3834H46.4108V37.0956H47.018V31.2629V31.2629Z" fill="white"/>
<path fill-rule="evenodd" clip-rule="evenodd" d="M3.02385 2.75861H38.8757V37.2039H3.02385V2.75861Z" fill="white"/>
<path d="M12.6873 27.5084H8.55784V34.1729H12.6873V27.5084Z" fill="#86272F"/>
<path d="M33.6251 27.5124H29.4956V34.1769H33.6251V27.5124Z" fill="#86272F"/>
<path d="M12.6873 17.218H8.55784V23.9609H12.6873V17.218Z" fill="#86272F"/>
<path d="M33.6251 17.218H29.4956V23.9609H33.6251V17.218Z" fill="#86272F"/>
<path d="M17.4417 22.4447V20.4534H17.4422C17.4422 19.7481 17.2616 19.1124 16.9699 18.6555C16.7011 18.2352 16.3415 17.9749 15.9546 17.9749C15.5677 17.9749 15.208 18.2347 14.9392 18.6555C14.6481 19.1119 14.468 19.7471 14.468 20.4534H14.4669V20.457L14.468 20.4581V22.4447H17.4417ZM17.9418 20.4534V22.9256H13.9674V20.4581H13.9685V20.4544L13.9674 20.4534C13.9674 19.6582 14.1758 18.9336 14.5132 18.4056C14.8734 17.8426 15.3822 17.4939 15.9546 17.4939C16.527 17.4939 17.0358 17.8426 17.396 18.4056C17.7328 18.9326 17.9407 19.6572 17.9412 20.4534H17.9418V20.4534Z" fill="#86272F"/>
<path d="M22.7148 22.4447V20.4534H22.7159C22.7159 19.7502 22.527 19.1161 22.2218 18.6602C21.9383 18.2368 21.5563 17.9749 21.1444 17.9749C20.7325 17.9749 20.3505 18.2368 20.067 18.6602C19.7623 19.1156 19.574 19.7492 19.574 20.4534H19.5729V20.457L19.574 20.4581V22.4447H22.7148ZM23.2154 20.4534V22.9256H19.0734V20.4581H19.0745V20.4544L19.0734 20.4534C19.0734 19.6561 19.2927 18.93 19.6469 18.4009C20.0219 17.8405 20.5513 17.4939 21.1444 17.4939C21.738 17.4939 22.2669 17.8405 22.6419 18.4009C22.9955 18.9289 23.2143 19.6551 23.2143 20.4534H23.2154V20.4534Z" fill="#86272F"/>
<path d="M27.7652 22.4447V20.4534H27.7663C27.7663 19.7481 27.5856 19.1124 27.294 18.6555C27.0252 18.2352 26.6655 17.9749 26.2786 17.9749C25.8917 17.9749 25.5321 18.2347 25.2633 18.6555C24.9722 19.1119 24.7915 19.7471 24.7915 20.4534H24.791V20.457L24.7915 20.4581V22.4447H27.7652V22.4447ZM28.2658 20.4534V22.9256H24.2914V20.4581H24.292V20.4544L24.2914 20.4534C24.2914 19.6582 24.4998 18.9336 24.8372 18.4056C25.1969 17.8426 25.7062 17.4939 26.2786 17.4939C26.851 17.4939 27.3598 17.8426 27.72 18.4056C28.0563 18.9326 28.2647 19.6572 28.2647 20.4534H28.2658V20.4534Z" fill="#86272F"/>
<path fill-rule="evenodd" clip-rule="evenodd" d="M16.9484 22.6856V21.4084C16.9484 20.549 16.5033 19.8521 15.9543 19.8521C15.4053 19.8521 14.9602 20.549 14.9602 21.4084V21.4111V22.6856H16.9484Z" fill="#86272F"/>
<path d="M16.6982 22.4448V21.4081H16.6993C16.6993 21.0238 16.6019 20.6788 16.4441 20.4326C16.3102 20.2224 16.1361 20.0922 15.9544 20.0922C15.7726 20.0922 15.5985 20.2224 15.4647 20.4326C15.3074 20.6783 15.2105 21.0228 15.2105 21.4081H15.2095L15.2105 21.4107V22.4448H16.6982V22.4448ZM17.1988 21.4081V22.9257H14.7099V21.4107H14.711L14.7099 21.4081C14.7099 20.9339 14.8356 20.5 15.0381 20.1827C15.2639 19.8298 15.5871 19.6113 15.9544 19.6113C16.3217 19.6113 16.6449 19.8298 16.8707 20.1827C17.0726 20.499 17.1977 20.9329 17.1977 21.4081H17.1988V21.4081Z" fill="#86272F"/>
<path fill-rule="evenodd" clip-rule="evenodd" d="M22.1385 22.6856V21.4084C22.1385 20.549 21.6934 19.8521 21.1444 19.8521C20.5954 19.8521 20.1503 20.549 20.1503 21.4084V21.4111V22.6856H22.1385V22.6856Z" fill="#86272F"/>
<path d="M21.8883 22.4448V21.4081H21.8894C21.8894 21.0238 21.792 20.6788 21.6342 20.4326C21.5003 20.2224 21.3262 20.0922 21.1445 20.0922C20.9627 20.0922 20.7891 20.2224 20.6547 20.4326C20.4975 20.6783 20.4006 21.0228 20.4006 21.4081H20.3995L20.4006 21.4107V22.4448H21.8883V22.4448ZM22.3889 21.4081V22.9257H19.9V21.4107H19.9011L19.9 21.4081C19.9 20.9339 20.0257 20.5 20.2287 20.1827C20.454 19.8298 20.7772 19.6113 21.1445 19.6113C21.5117 19.6113 21.835 19.8298 22.0608 20.1827C22.2627 20.499 22.3878 20.9329 22.3878 21.4081H22.3889V21.4081Z" fill="#86272F"/>
<path fill-rule="evenodd" clip-rule="evenodd" d="M27.273 22.6856V21.4084C27.273 20.549 26.8279 19.8521 26.2789 19.8521C25.7299 19.8521 25.2848 20.549 25.2848 21.4084V21.4111V22.6856H27.273V22.6856Z" fill="#86272F"/>
<path d="M27.0225 22.4448V21.4081H27.0236C27.0236 21.0238 26.9262 20.6788 26.7684 20.4326C26.634 20.2224 26.4604 20.0922 26.2787 20.0922C26.097 20.0922 25.9228 20.2224 25.7884 20.4326C25.6317 20.6783 25.5349 21.0228 25.5349 21.4081H25.5338L25.5349 21.4107V22.4448H27.0225V22.4448ZM27.5231 21.4081V22.9257H25.0343V21.4107H25.0348L25.0343 21.4081C25.0343 20.9339 25.16 20.5 25.3624 20.1827C25.5882 19.8298 25.9114 19.6113 26.2787 19.6113C26.646 19.6113 26.9692 19.8298 27.1945 20.1827C27.3969 20.499 27.522 20.9329 27.522 21.4081H27.5231V21.4081Z" fill="#86272F"/>
<path d="M7.72478 23.4489V20.4534H7.72587C7.72587 19.7481 7.54521 19.1124 7.25302 18.6555C6.98421 18.2352 6.62454 17.9749 6.23766 17.9749C5.85079 17.9749 5.49111 18.2347 5.22286 18.6555C4.9312 19.1119 4.75109 19.7471 4.75109 20.4534H4.75001V20.457L4.75109 20.4581V23.4489H7.72478V23.4489ZM8.22538 20.4534V23.9299H4.25049V20.4581H4.25158V20.4544L4.25049 20.4534C4.25049 19.6582 4.45889 18.9336 4.79626 18.4056C5.15647 17.8426 5.66524 17.4939 6.23766 17.4939C6.81064 17.4939 7.3194 17.8426 7.67907 18.4056C8.01589 18.9326 8.22429 19.6572 8.22429 20.4534H8.22538V20.4534Z" fill="#86272F"/>
<path d="M6.98239 23.449V21.4081H6.98294C6.98294 21.0238 6.88554 20.6788 6.72828 20.4326C6.59388 20.2224 6.41976 20.0922 6.23802 20.0922C6.05628 20.0922 5.8827 20.2224 5.7483 20.4326C5.59159 20.6783 5.49419 21.0228 5.49419 21.4081H5.49364L5.49419 21.4107V23.449H6.98239V23.449ZM7.48245 21.4081V23.93H4.99359V21.4107H4.99467L4.99359 21.4081C4.99359 20.9339 5.11928 20.5 5.32224 20.1827C5.54751 19.8298 5.87073 19.6113 6.23802 19.6113C6.60531 19.6113 6.92852 19.8298 7.15434 20.1827C7.35621 20.499 7.48136 20.9329 7.48191 21.4081H7.48245Z" fill="#86272F"/>
<path d="M37.3881 23.4489V20.4534H37.3887C37.3887 19.7481 37.208 19.1124 36.9164 18.6555C36.6476 18.2352 36.2879 17.9749 35.901 17.9749C35.5141 17.9749 35.1545 18.2347 34.8857 18.6555C34.5946 19.1119 34.4145 19.7471 34.4145 20.4534H34.4134V20.457L34.4145 20.4581V23.4489H37.3881V23.4489ZM37.8882 20.4534V23.9299H33.9139V20.4581H33.9149V20.4544L33.9139 20.4534C33.9139 19.6582 34.1223 18.9336 34.4596 18.4056C34.8198 17.8426 35.3286 17.4939 35.901 17.4939C36.4735 17.4939 36.9828 17.8426 37.3424 18.4056C37.6793 18.9326 37.8877 19.6572 37.8877 20.4534H37.8882Z" fill="#86272F"/>
<path d="M36.6449 23.449V21.4081H36.646C36.646 21.0238 36.5486 20.6788 36.3908 20.4326C36.257 20.2224 36.0828 20.0922 35.9011 20.0922C35.7194 20.0922 35.5458 20.2224 35.4114 20.4326C35.2541 20.6783 35.1573 21.0228 35.1573 21.4081H35.1562L35.1573 21.4107V23.449H36.6449ZM37.1455 21.4081V23.93H34.6567V21.4107H34.6578L34.6567 21.4081C34.6567 20.9339 34.7824 20.5 34.9853 20.1827C35.2106 19.8298 35.5338 19.6113 35.9011 19.6113C36.2684 19.6113 36.5916 19.8298 36.8174 20.1827C37.0193 20.499 37.1444 20.9329 37.1444 21.4081H37.1455Z" fill="#86272F"/>
<path d="M3.02363 24.3176H11.8892V27.1375H2.77333V24.3176H3.02363ZM11.3886 24.798H3.27394V26.6565H11.3886V24.798Z" fill="#86272F"/>
<path d="M30.4509 24.3176H39.3165V27.1521H30.2006V24.3176H30.4509ZM38.8164 24.798H30.7012V26.6711H38.8164V24.798Z" fill="#86272F"/>
<path d="M17.2871 29.2922H14.6214V33.4886H17.2871V29.2922Z" fill="#86272F"/>
<path d="M14.6212 29.1115H17.4752V33.6681H14.4335V29.1115H14.6212V29.1115ZM17.0997 29.4722H14.8089V33.3079H17.0997V29.4722V29.4722Z" fill="#86272F"/>
<path d="M15.0399 28.3757H17.033V29.8411H14.8521V28.3757H15.0399ZM16.6576 28.7365H15.2276V29.4804H16.6576V28.7365Z" fill="#86272F"/>
<path d="M22.4771 29.2922H19.8114V33.4886H22.4771V29.2922Z" fill="#86272F"/>
<path d="M19.811 29.1115H22.665V33.6681H19.6238V29.1115H19.811V29.1115ZM22.2895 29.4722H19.9987V33.3079H22.2895V29.4722V29.4722Z" fill="#86272F"/>
<path d="M20.2297 28.3757H22.2228V29.8411H20.0419V28.3757H20.2297ZM21.8474 28.7365H20.4174V29.4804H21.8474V28.7365V28.7365Z" fill="#86272F"/>
<path d="M27.6114 29.2922H24.9457V33.4886H27.6114V29.2922Z" fill="#86272F"/>
<path d="M24.9458 29.1115H27.7992V33.6681H24.7581V29.1115H24.9458V29.1115ZM27.4243 29.4722H25.1335V33.3079H27.4243V29.4722V29.4722Z" fill="#86272F"/>
<path d="M25.3633 28.3757H27.357V29.8411H25.1762V28.3757H25.3633ZM26.9816 28.7365H25.5511V29.4804H26.9816V28.7365Z" fill="#86272F"/>
<path d="M34.5677 29.1115H37.4216V33.6681H34.3805V29.1115H34.5677V29.1115ZM37.0462 29.4722H34.7554V33.3079H37.0462V29.4722V29.4722Z" fill="#86272F"/>
<path d="M34.986 28.3757H36.9792V29.4725H34.7983V28.3757H34.986ZM36.6037 28.7365H35.1737V29.1118H36.6037V28.7365Z" fill="#86272F"/>
<path d="M3.02385 34.5972L3.02385 35.2551L38.8753 35.2551L38.8753 34.5972L3.02385 34.5972Z" fill="#86272F"/>
<path d="M3.02385 17.0236L3.02385 17.3526L38.8753 17.3526L38.8753 17.0236L3.02385 17.0236Z" fill="#86272F"/>
<path d="M3.02385 16.1195L3.02385 16.4485L38.8753 16.4485L38.8753 16.1195L3.02385 16.1195Z" fill="#86272F"/>
<path d="M3.02385 13.6333L3.02385 13.9623L38.8753 13.9623L38.8753 13.6333L3.02385 13.6333Z" fill="#86272F"/>
<path d="M9.54299 12.6534L9.54299 12.9824L32.3304 12.9824L32.3304 12.6534L9.54299 12.6534Z" fill="#86272F"/>
<path d="M10.9644 27.5084H10.2793V34.1729H10.9644V27.5084Z" fill="white"/>
<path d="M31.9022 27.5084H31.2171V34.1729H31.9022V27.5084Z" fill="white"/>
<path d="M10.9644 17.4611H10.2793V24.3363H10.9644V17.4611Z" fill="white"/>
<path d="M31.9022 17.4611H31.2171V24.3363H31.9022V17.4611Z" fill="white"/>
<path d="M38.8757 24.3201H3.02385V25.4252H38.8757V24.3201Z" fill="#86272F"/>
<path d="M38.8757 13.3677H3.02385V14.4728H38.8757V13.3677Z" fill="#86272F"/>
<path d="M4.90512 29.1115H7.75855V33.6681H4.71739V29.1115H4.90512V29.1115ZM7.3831 29.4722H5.09285V33.3079H7.3831V29.4722V29.4722Z" fill="#86272F"/>
<path d="M5.3235 28.3757H7.31666V29.4725H5.13577V28.3757H5.3235V28.3757ZM6.9412 28.7365H5.51122V29.1118H6.9412V28.7365Z" fill="#86272F"/>
<path d="M30.4264 22.7275H11.6391V26.9647H30.4264V22.7275Z" fill="white"/>
<path d="M11.827 26.7839H30.2388V22.9074H11.827V26.7839V26.7839ZM30.4265 27.1446H11.4515V22.5467H30.6142V27.1446H30.4265Z" fill="#86272F"/>
<path d="M20.502 23.5461H19.8169V26.146H20.502V23.5461Z" fill="#86272F"/>
<path d="M18.7562 23.5461H18.0712V26.146H18.7562V23.5461Z" fill="#86272F"/>
<path d="M13.5172 23.5461H12.8322V26.146H13.5172V23.5461Z" fill="#86272F"/>
<path d="M15.2634 23.5461H14.5783V26.146H15.2634V23.5461Z" fill="#86272F"/>
<path d="M22.248 23.5461H21.5629V26.146H22.248V23.5461Z" fill="#86272F"/>
<path d="M23.9943 23.5461H23.3092V26.146H23.9943V23.5461Z" fill="#86272F"/>
<path d="M29.2326 23.5461H28.5475V26.146H29.2326V23.5461Z" fill="#86272F"/>
<path d="M27.486 23.5461H26.801V26.146H27.486V23.5461Z" fill="#86272F"/>
<path d="M25.7403 23.5461H25.0552V26.146H25.7403V23.5461Z" fill="#86272F"/>
<path d="M17.0094 23.5461H16.3243V26.146H17.0094V23.5461Z" fill="#86272F"/>
<path d="M37.1449 25.6143H34.6544V26.501H37.1449V25.6143Z" fill="#86272F"/>
<path d="M7.48324 25.6143H4.99274V26.501H7.48324V25.6143Z" fill="#86272F"/>
<path d="M20.9499 15.6995C21.1392 15.6995 21.2927 15.552 21.2927 15.3701C21.2927 15.1882 21.1392 15.0408 20.9499 15.0408C20.7605 15.0408 20.6071 15.1882 20.6071 15.3701C20.6071 15.552 20.7605 15.6995 20.9499 15.6995Z" fill="#86272F"/>
<path d="M23.3648 15.6995C23.5541 15.6995 23.7076 15.552 23.7076 15.3701C23.7076 15.1882 23.5541 15.0408 23.3648 15.0408C23.1755 15.0408 23.022 15.1882 23.022 15.3701C23.022 15.552 23.1755 15.6995 23.3648 15.6995Z" fill="#86272F"/>
<path d="M25.7808 15.6995C25.9701 15.6995 26.1236 15.552 26.1236 15.3701C26.1236 15.1882 25.9701 15.0408 25.7808 15.0408C25.5915 15.0408 25.438 15.1882 25.438 15.3701C25.438 15.552 25.5915 15.6995 25.7808 15.6995Z" fill="#86272F"/>
<path d="M28.1969 15.6995C28.3862 15.6995 28.5397 15.552 28.5397 15.3701C28.5397 15.1882 28.3862 15.0408 28.1969 15.0408C28.0075 15.0408 27.8541 15.1882 27.8541 15.3701C27.8541 15.552 28.0075 15.6995 28.1969 15.6995Z" fill="#86272F"/>
<path d="M30.6129 15.6995C30.8022 15.6995 30.9557 15.552 30.9557 15.3701C30.9557 15.1882 30.8022 15.0408 30.6129 15.0408C30.4236 15.0408 30.2701 15.1882 30.2701 15.3701C30.2701 15.552 30.4236 15.6995 30.6129 15.6995Z" fill="#86272F"/>
<path d="M33.0289 15.6995C33.2183 15.6995 33.3718 15.552 33.3718 15.3701C33.3718 15.1882 33.2183 15.0408 33.0289 15.0408C32.8396 15.0408 32.6861 15.1882 32.6861 15.3701C32.6861 15.552 32.8396 15.6995 33.0289 15.6995Z" fill="#86272F"/>
<path d="M35.4441 15.6995C35.6335 15.6995 35.7869 15.552 35.7869 15.3701C35.7869 15.1882 35.6335 15.0408 35.4441 15.0408C35.2548 15.0408 35.1013 15.1882 35.1013 15.3701C35.1013 15.552 35.2548 15.6995 35.4441 15.6995Z" fill="#86272F"/>
<path d="M37.8607 15.6995C38.0501 15.6995 38.2035 15.552 38.2035 15.3701C38.2035 15.1882 38.0501 15.0408 37.8607 15.0408C37.6714 15.0408 37.5179 15.1882 37.5179 15.3701C37.5179 15.552 37.6714 15.6995 37.8607 15.6995Z" fill="#86272F"/>
<path d="M18.5338 15.6995C18.7232 15.6995 18.8766 15.552 18.8766 15.3701C18.8766 15.1882 18.7232 15.0408 18.5338 15.0408C18.3445 15.0408 18.191 15.1882 18.191 15.3701C18.191 15.552 18.3445 15.6995 18.5338 15.6995Z" fill="#86272F"/>
<path d="M16.1178 15.6995C16.3071 15.6995 16.4606 15.552 16.4606 15.3701C16.4606 15.1882 16.3071 15.0408 16.1178 15.0408C15.9285 15.0408 15.775 15.1882 15.775 15.3701C15.775 15.552 15.9285 15.6995 16.1178 15.6995Z" fill="#86272F"/>
<path d="M13.7015 15.6995C13.8908 15.6995 14.0443 15.552 14.0443 15.3701C14.0443 15.1882 13.8908 15.0408 13.7015 15.0408C13.5121 15.0408 13.3587 15.1882 13.3587 15.3701C13.3587 15.552 13.5121 15.6995 13.7015 15.6995Z" fill="#86272F"/>
<path d="M11.2857 15.6995C11.475 15.6995 11.6285 15.552 11.6285 15.3701C11.6285 15.1882 11.475 15.0408 11.2857 15.0408C11.0964 15.0408 10.9429 15.1882 10.9429 15.3701C10.9429 15.552 11.0964 15.6995 11.2857 15.6995Z" fill="#86272F"/>
<path d="M8.87051 15.6995C9.05983 15.6995 9.21331 15.552 9.21331 15.3701C9.21331 15.1882 9.05983 15.0408 8.87051 15.0408C8.68118 15.0408 8.5277 15.1882 8.5277 15.3701C8.5277 15.552 8.68118 15.6995 8.87051 15.6995Z" fill="#86272F"/>
<path d="M6.45447 15.6995C6.64379 15.6995 6.79727 15.552 6.79727 15.3701C6.79727 15.1882 6.64379 15.0408 6.45447 15.0408C6.26514 15.0408 6.11166 15.1882 6.11166 15.3701C6.11166 15.552 6.26514 15.6995 6.45447 15.6995Z" fill="#86272F"/>
<path d="M4.03837 15.6994C4.2277 15.6994 4.38118 15.552 4.38118 15.3701C4.38118 15.1882 4.2277 15.0407 4.03837 15.0407C3.84905 15.0407 3.69557 15.1882 3.69557 15.3701C3.69557 15.552 3.84905 15.6994 4.03837 15.6994Z" fill="#86272F"/>
<path d="M24.6346 8.14774C24.5318 7.30135 24.1204 6.5454 23.511 5.98707C22.845 5.37698 21.9433 5.00214 20.9497 5.00214C19.9562 5.00214 19.054 5.37698 18.3885 5.98707C17.7791 6.5454 17.3677 7.30135 17.2649 8.14774H24.6346V8.14774ZM23.8549 5.63942C24.6139 6.33524 25.1031 7.30135 25.1543 8.37777L25.1668 8.62818H16.7327L16.7447 8.37777C16.7964 7.30135 17.2855 6.33524 18.0446 5.63942C18.8004 4.94673 19.8234 4.52118 20.9497 4.52118C22.0761 4.52118 23.0991 4.94673 23.8549 5.63942Z" fill="#86272F"/>
<path d="M30.4201 8.18835H11.4794V8.89307H30.4201V8.18835Z" fill="#86272F"/>
<path d="M30.6601 8.18756L30.6726 9.23313H30.4201C30.289 9.23313 30.0071 9.34919 29.7873 9.56196C29.6453 9.69946 29.5381 9.87825 29.5381 10.0889C29.5381 10.3995 29.7285 10.6849 30.0104 10.9003C30.3336 11.147 30.77 11.2987 31.1884 11.2987H32.3311V12.7645H31.8305V11.7796H31.1884C30.6595 11.7796 30.1078 11.5878 29.6997 11.2762C29.3041 10.9745 29.0375 10.5589 29.0375 10.0889C29.0375 9.73344 29.2073 9.44277 29.4336 9.22372C29.6545 9.0099 29.9402 8.86405 30.1687 8.79608L30.1617 8.19122L30.6601 8.18756V8.18756Z" fill="#86272F"/>
<path d="M11.713 8.19122L11.7059 8.79608C11.9339 8.86405 12.2196 9.0099 12.4405 9.22372C12.6669 9.44277 12.8372 9.73344 12.8372 10.0889C12.8372 10.5589 12.57 10.9745 12.1744 11.2762C11.7663 11.5878 11.2151 11.7796 10.6862 11.7796H10.0436V12.8247H9.54299V11.2987H10.6862C11.1046 11.2987 11.541 11.147 11.8637 10.9003C12.1461 10.6849 12.3366 10.3995 12.3366 10.0889C12.3366 9.87825 12.2294 9.69946 12.0868 9.56196C11.867 9.34919 11.5857 9.23313 11.454 9.23313H11.202L11.2146 8.18756L11.713 8.19122V8.19122Z" fill="#86272F"/>
<path d="M20.95 6.04065C21.504 6.04065 21.9986 6.34439 22.3506 6.83581C22.6842 7.30161 22.8904 7.94045 22.8904 8.64098C22.8904 9.34152 22.6842 9.97984 22.3506 10.4456C21.9986 10.9376 21.504 11.2413 20.95 11.2413C20.3961 11.2413 19.9015 10.9376 19.5494 10.4456C19.2159 9.97984 19.0091 9.34152 19.0091 8.64098C19.0091 7.94045 19.2159 7.30161 19.5494 6.83581C19.9015 6.34439 20.3961 6.04065 20.95 6.04065V6.04065ZM21.9398 7.10818C21.6803 6.74589 21.3298 6.52109 20.95 6.52109C20.5702 6.52109 20.2198 6.74589 19.9597 7.10818C19.6817 7.49661 19.5097 8.03821 19.5097 8.64098C19.5097 9.24376 19.6817 9.78536 19.9597 10.1733C20.2198 10.5361 20.5702 10.7604 20.95 10.7604C21.3298 10.7604 21.6803 10.5361 21.9398 10.1733C22.2179 9.78536 22.3903 9.24376 22.3903 8.64098C22.3903 8.03821 22.2179 7.49661 21.9398 7.10818V7.10818Z" fill="#86272F"/>
<path d="M12.3283 11.745L12.3283 12.074L29.5448 12.074L29.5448 11.745L12.3283 11.745Z" fill="#86272F"/>
<path fill-rule="evenodd" clip-rule="evenodd" d="M13.5449 9.69965H18.3969C18.5134 10.132 18.6978 10.5256 18.9334 10.8545C19.0145 10.9669 19.101 11.0725 19.193 11.1702H13.2647C13.4682 10.8498 13.5873 10.4843 13.5873 10.0886C13.5873 9.95267 13.5726 9.8225 13.5449 9.69965V9.69965ZM23.5031 9.69965H28.3295C28.3018 9.8225 28.2871 9.95267 28.2871 10.0886C28.2871 10.4843 28.4057 10.8498 28.6097 11.1702H22.707C22.799 11.0725 22.8855 10.9669 22.9665 10.8545C23.2022 10.5256 23.3866 10.132 23.5031 9.69965Z" fill="#86272F"/>
<path d="M12.6873 13.9212H8.55784V17.1891H12.6873V13.9212Z" fill="white"/>
<path d="M8.5579 13.6805H12.9371V17.4294H8.3076V13.6805H8.5579V13.6805ZM12.437 14.1615H8.8082V16.9485H12.437V14.1615V14.1615Z" fill="#86272F"/>
<path d="M33.6251 13.9212H29.4956V17.1891H33.6251V13.9212Z" fill="white"/>
<path d="M29.4954 13.6805H33.8751V17.4294H29.2451V13.6805H29.4954V13.6805ZM33.3745 14.1615H29.7457V16.9485H33.3745V14.1615V14.1615Z" fill="#86272F"/>
<path d="M10.0252 14.8484H11.4693V16.26H9.77489V14.8484H10.0252ZM10.9687 15.3294H10.2755V15.7795H10.9687V15.3294Z" fill="#86272F"/>
<path d="M30.9636 14.8484H32.4071V16.26H30.7132V14.8484H30.9636ZM31.9071 15.3294H31.2139V15.7795H31.9071V15.3294Z" fill="#86272F"/>
</svg>
