<svg width="666" height="193" viewBox="0 0 666 193" fill="none" xmlns="http://www.w3.org/2000/svg">
<rect width="78" height="40" fill="#002E5E"/>
<path d="M71.3562 16.1626C71.2696 18.5672 70.5679 20.8324 69.7259 23.0653C69.1104 24.7293 68.3656 26.3288 67.5882 27.9176C67.3612 28.3793 67.2212 28.3363 66.908 28.0143C66.0552 27.1232 65.1481 26.2751 64.2845 25.3841C64.0252 25.1158 63.896 25.148 63.6582 25.3949C62.7515 26.3181 61.8337 27.2199 60.9162 28.1323C60.7435 28.3041 60.6246 28.4329 60.4627 28.1109C58.8001 24.7507 57.2994 21.337 56.7162 17.6011C56.3708 15.3574 56.8135 13.307 58.1199 11.439C59.5667 9.34566 61.5098 7.81053 63.7121 6.56524C63.874 6.46862 64.0144 6.43642 64.2087 6.54377C66.8973 8.10038 69.2508 9.98978 70.6325 12.8454C71.1292 13.8867 71.3777 14.9924 71.3562 16.1626ZM66.1629 22.8399C66.8322 21.0041 67.3724 19.2543 67.642 17.4293C68.074 14.4235 66.908 12.0617 64.2845 10.5373C64.1118 10.4299 63.9714 10.3763 63.7448 10.4836C61.4128 11.7074 60.0091 14.1873 60.2249 16.7637C60.2684 17.2254 60.3438 17.687 60.4304 18.1378C60.7435 19.7052 61.1859 21.2403 61.8014 22.8614C62.4492 22.185 63.0539 21.6053 63.6044 20.9827C63.9067 20.6499 64.0795 20.7036 64.3491 21.0041C64.9215 21.6053 65.5151 22.1743 66.1629 22.8399Z" fill="white"/>
<path d="M30.417 15.9704C30.0607 16.3998 29.7045 16.8399 29.3482 17.2693C28.6788 18.0852 28.6788 18.096 27.9663 17.2801C27.5776 16.8399 27.1889 16.389 26.7895 15.9489C26.7679 15.9274 26.7355 15.9167 26.6491 15.8737C26.6491 16.9258 26.6275 17.9456 26.6599 18.9762C26.6707 19.352 26.5735 19.47 26.1849 19.4486C25.6451 19.4164 25.1053 19.4271 24.5655 19.4486C24.3387 19.4486 24.2524 19.3949 24.2524 19.148C24.2632 16.9151 24.2632 14.6821 24.2524 12.4385C24.2524 12.1701 24.3495 12.0842 24.5978 12.1164C24.6194 12.1164 24.6302 12.1164 24.6518 12.1164C25.7638 11.9232 26.6059 12.2667 27.2105 13.2651C27.556 13.8448 28.0742 14.3171 28.4845 14.8539C28.6464 15.0579 28.7112 15.0471 28.8623 14.8539C29.4669 14.0488 30.0931 13.2758 30.6977 12.4707C30.892 12.213 31.0864 12.0842 31.4102 12.1164C31.7881 12.1486 32.166 12.1486 32.5438 12.1164C32.8893 12.0842 32.9541 12.2238 32.9541 12.5458C32.9433 14.7144 32.9433 16.8721 32.9541 19.0407C32.9541 19.3735 32.8677 19.4808 32.533 19.4593C32.0256 19.4271 31.5182 19.4164 31.0216 19.4593C30.5897 19.4915 30.5249 19.309 30.5358 18.944C30.5573 17.9779 30.5465 17.0117 30.5465 16.0455C30.5034 16.0026 30.4602 15.9918 30.417 15.9704Z" fill="white"/>
<path d="M48.2309 15.4765C47.3669 16.7433 46.5571 17.8919 45.7801 19.0621C45.5858 19.3519 45.3805 19.47 45.035 19.4486C44.5168 19.4163 43.9878 19.4271 43.4696 19.4486C43.2213 19.4593 43.1241 19.3949 43.1241 19.1265C43.1349 16.8936 43.1349 14.6606 43.1241 12.417C43.1241 12.1808 43.1997 12.1057 43.4372 12.1164C44.0526 12.1271 44.6572 12.1379 45.2725 12.1164C45.575 12.1057 45.6181 12.2344 45.6181 12.4921C45.6073 13.6515 45.6181 14.8002 45.6181 15.9703C45.8124 15.9274 45.8554 15.7556 45.9312 15.6268C46.6652 14.564 47.3884 13.5012 48.112 12.4277C48.2632 12.1915 48.4251 12.0842 48.7163 12.0949C49.278 12.1164 49.8285 12.1164 50.3901 12.0949C50.649 12.0842 50.7248 12.1808 50.714 12.4277C50.7028 14.6499 50.7028 16.8613 50.714 19.0836C50.714 19.3198 50.6705 19.4378 50.4009 19.4271C49.7854 19.4056 49.1807 19.4056 48.5656 19.4271C48.2524 19.4378 48.2201 19.2983 48.2201 19.0514C48.2417 17.9134 48.2309 16.7755 48.2309 15.4765Z" fill="white"/>
<path d="M38.0067 19.6305C35.6747 19.6198 33.9473 17.9666 33.9581 15.7443C33.9689 13.5329 35.7287 11.9011 38.0715 11.9119C40.4035 11.9333 42.1524 13.6081 42.1309 15.8088C42.1201 18.0095 40.3603 19.6413 38.0067 19.6305ZM36.5492 15.7873C36.5492 16.6783 37.197 17.3547 38.0391 17.3439C38.892 17.3332 39.5074 16.6676 39.5074 15.7658C39.4966 14.8641 38.8704 14.1985 38.0175 14.1985C37.1862 14.2092 36.5492 14.8856 36.5492 15.7873Z" fill="white"/>
<path d="M5.51023 22.4648C6.12561 21.6597 6.90293 21.1766 7.86379 21.037C9.89346 20.7257 11.5453 21.7777 11.9663 23.6242C12.4414 25.739 11.3078 27.7465 9.33209 28.3262C7.04329 28.9918 4.97042 27.8432 4.31185 25.5136C3.83682 23.8067 3.91239 22.0783 4.48459 20.3929C5.0244 18.7719 6.27676 17.956 7.88539 17.6017C8.72749 17.4192 9.5696 17.2582 10.4117 17.0542C10.7248 16.9791 10.8327 17.0435 10.9299 17.3441C11.2214 18.2458 11.243 18.2351 10.3253 18.4498C9.51563 18.6323 8.7059 18.7719 7.90698 18.9866C6.34153 19.4053 5.41306 20.7579 5.51023 22.4648ZM10.5629 24.6977C10.5629 23.1841 9.65596 22.2286 8.20928 22.2179C7.03249 22.2072 5.53182 23.3236 5.52102 24.2146C5.51023 25.8786 6.65462 27.2312 8.09051 27.242C9.50482 27.2527 10.5629 26.1684 10.5629 24.6977Z" fill="white"/>
<path d="M40.5007 25.1056C39.7233 25.1056 38.9568 25.1378 38.1795 25.0948C37.672 25.0626 37.6613 25.2773 37.78 25.6531C38.0715 26.6192 38.8596 27.1989 40.0256 27.2419C40.8569 27.2741 41.6342 27.0701 42.3252 26.63C42.5951 26.4582 42.7247 26.4797 42.8434 26.7695C42.919 26.952 43.0269 27.1238 43.1241 27.2848C43.2213 27.4351 43.1781 27.521 43.0486 27.6391C40.9865 29.507 36.9919 28.4335 36.2793 25.8141C36.0094 24.7942 36.0742 23.7959 36.4952 22.8189C37.1431 21.2945 38.6113 20.5109 40.3603 20.7363C41.9797 20.951 43.0269 22.0353 43.2645 23.7207C43.448 25.1056 43.448 25.1056 42.0553 25.1056C41.5479 25.1056 41.0297 25.1056 40.5007 25.1056ZM39.7557 23.9354C40.3171 23.9354 40.8677 23.9032 41.4291 23.9462C41.9258 23.9891 41.9149 23.7744 41.807 23.4201C41.5047 22.4432 40.7922 21.9065 39.7665 21.9494C38.838 21.9816 37.9635 22.7331 37.78 23.6348C37.726 23.8817 37.8016 23.9462 38.0391 23.9462C38.6005 23.9354 39.1835 23.9354 39.7557 23.9354Z" fill="white"/>
<path d="M18.6169 22.98C17.2674 24.6762 16.0042 26.2543 14.7411 27.8324C14.4604 28.1759 13.5859 28.4013 13.1972 28.2296C13.0353 28.1652 13.0677 28.0364 13.0677 27.9183C13.0677 25.6853 13.0677 23.4524 13.0677 21.2087C13.0677 20.9833 13.1432 20.876 13.3807 20.8974C13.4131 20.8974 13.4563 20.8974 13.4887 20.8974C14.5575 20.8652 14.5575 20.8652 14.5575 21.9387C14.5575 23.3021 14.5575 24.6548 14.5575 26.0181C14.7411 26.0396 14.7735 25.8678 14.849 25.7712C16.0798 24.2575 17.2998 22.7331 18.5197 21.2087C18.7249 20.9618 19.7505 20.7686 19.9988 20.9296C20.1391 21.0155 20.0852 21.1551 20.0852 21.2624C20.0852 23.4631 20.0852 25.6639 20.096 27.8646C20.096 28.1759 19.9988 28.2511 19.6965 28.2511C18.6169 28.2618 18.6169 28.2725 18.6169 27.2097C18.6169 25.8356 18.6169 24.4723 18.6169 22.98Z" fill="white"/>
<path d="M28.2469 24.558C28.2469 23.463 28.2577 22.3787 28.2361 21.2838C28.2361 20.9832 28.3225 20.8973 28.6248 20.8865C29.7152 20.8758 29.7152 20.8651 29.7152 21.9279C29.7152 22.4646 29.726 23.0014 29.7152 23.5382C29.7044 23.8173 29.8016 23.9139 30.0823 23.9031C31.1619 23.8924 32.2415 23.8924 33.3211 23.9031C33.6234 23.9031 33.6666 23.7743 33.6666 23.5167C33.6558 22.7652 33.6774 22.0138 33.6558 21.2623C33.645 20.951 33.753 20.8758 34.0553 20.8758C35.1565 20.8651 35.1565 20.8543 35.1565 21.9493C35.1565 23.8602 35.1457 25.7818 35.1673 27.6927C35.1673 28.1006 35.0809 28.2402 34.6383 28.2295C33.6666 28.1973 33.6558 28.2187 33.6558 27.2418C33.6558 26.6192 33.645 25.9858 33.6666 25.3632C33.6774 25.1055 33.591 25.0196 33.3319 25.0304C32.2523 25.0411 31.1727 25.0411 30.0931 25.0304C29.7692 25.0304 29.7044 25.1592 29.7152 25.4383C29.726 26.2219 29.7044 27.0164 29.726 27.8C29.7368 28.1221 29.6504 28.2295 29.305 28.2295C28.2469 28.2295 28.2469 28.2509 28.2469 27.2203C28.2469 26.3508 28.2469 25.449 28.2469 24.558Z" fill="white"/>
<path d="M25.7423 24.4399C26.6708 24.6975 27.1782 25.2021 27.2106 26.0931C27.2538 27.0593 26.7572 27.7141 25.9259 28.0791C24.3496 28.7662 22.8166 28.5944 21.3483 27.7141C21.1 27.5638 21.0244 27.4028 21.2187 27.1666C21.2943 27.07 21.3483 26.9519 21.4022 26.8338C21.5318 26.5011 21.6614 26.4259 22.0177 26.6406C22.795 27.1344 23.6586 27.3384 24.5979 27.1344C24.9002 27.07 25.1809 26.9519 25.4077 26.7372C25.6884 26.4688 25.8071 26.1468 25.7099 25.771C25.6128 25.4168 25.3537 25.2665 25.019 25.1806C24.5979 25.0625 24.1553 25.084 23.7342 25.1162C23.27 25.1484 23.1297 25.0303 23.1297 24.5365C23.1297 24.0319 23.2808 23.8709 23.7666 23.9353C24.0149 23.9675 24.2741 23.9461 24.5224 23.9246C25.0946 23.8816 25.4616 23.5381 25.5048 23.0443C25.548 22.5075 25.2457 22.1103 24.6519 21.9815C23.7774 21.7883 22.9677 21.9815 22.2228 22.4431C21.8989 22.6471 21.7694 22.6149 21.5966 22.2821C21.2187 21.5736 21.2079 21.5736 21.9313 21.2085C23.0325 20.6611 24.1985 20.5322 25.3861 20.8114C26.5197 21.0797 27.0918 21.8634 26.9839 22.9477C26.8975 23.6884 26.4549 24.1285 25.7423 24.4399Z" fill="white"/>
<path d="M48.3601 28.4865C46.4709 28.5079 44.9487 27.4559 44.4629 25.7812C43.9555 24.0206 44.5924 22.1956 46.0282 21.2938C47.3996 20.4351 49.7423 20.5209 51.0487 21.4656C51.1999 21.573 51.286 21.6696 51.1564 21.8413C51.081 21.938 51.016 22.056 50.9729 22.1742C50.8109 22.6036 50.6059 22.7217 50.1524 22.4425C49.3753 21.9702 48.4898 21.8413 47.6046 22.0453C46.3198 22.3459 45.6289 23.5375 45.8339 24.9975C46.0282 26.3287 47.108 27.2197 48.4682 27.1875C49.1483 27.166 49.7962 27.0158 50.3574 26.6507C50.6167 26.479 50.7248 26.5219 50.876 26.7903C51.3291 27.5955 51.3291 27.6062 50.487 28.0141C49.8177 28.3469 49.1053 28.4757 48.3601 28.4865Z" fill="white"/>
<path d="M63.9283 35.744C63.1508 34.123 62.3738 32.502 61.5856 30.881C61.4882 30.677 61.5748 30.5911 61.6937 30.473C62.3846 29.7967 63.0754 29.1204 63.7448 28.4226C63.9391 28.2186 64.0472 28.2616 64.2091 28.4333C64.8785 29.1096 65.5478 29.7752 66.2279 30.4408C66.3576 30.5696 66.4653 30.677 66.3576 30.8917C65.5801 32.4805 64.8134 34.0693 64.0472 35.6582C64.0364 35.7011 63.9929 35.7118 63.9283 35.744Z" fill="white"/>
<path d="M71.3562 8.89956C71.2696 8.82438 71.1834 8.75999 71.1076 8.69556C70.4167 8.01925 69.7366 7.32146 69.0457 6.65588C68.8622 6.48411 68.8403 6.37676 69.035 6.19426C69.7366 5.52868 70.4167 4.84162 71.0969 4.14383C71.3019 3.93986 71.4208 3.96133 71.6043 4.15456C72.2628 4.83088 72.943 5.49647 73.6231 6.16206C73.785 6.31235 73.8824 6.4197 73.6666 6.6344C72.943 7.3322 72.2413 8.04072 71.5289 8.74925C71.4854 8.80293 71.4315 8.83513 71.3562 8.89956Z" fill="white"/>
<path d="M45.2941 8.90569C45.4562 8.90569 45.6181 8.91644 45.7801 8.90569C46.104 8.8842 46.4059 8.85201 46.4494 9.33511C46.4709 9.59276 46.719 9.74303 47.0106 9.73229C47.3238 9.72158 47.5396 9.56052 47.5831 9.27067C47.6369 8.93789 47.7989 8.8842 48.0905 8.89495C48.5544 8.91644 49.0295 8.90569 49.4938 8.89495C49.7315 8.8842 49.8069 8.95938 49.7746 9.20628C49.7204 9.58201 49.6234 9.93629 49.4399 10.2691C48.8891 11.246 47.7989 11.6754 46.3951 11.4714C45.2617 11.3104 44.5492 10.6555 44.2901 9.54982C44.1389 8.91644 44.1605 8.89495 44.8083 8.89495C44.9702 8.90569 45.1322 8.90569 45.2941 8.90569Z" fill="white"/>
<path d="M63.9714 17.5047C62.9996 17.5047 62.2657 16.7854 62.2549 15.8192C62.2441 14.8638 62.9889 14.1016 63.9391 14.0801C64.9 14.0586 65.7098 14.8638 65.699 15.8085C65.6878 16.7639 64.9323 17.5047 63.9714 17.5047Z" fill="white"/>
</svg>
