<svg width="666" height="193" viewBox="0 0 666 193" fill="none" xmlns="http://www.w3.org/2000/svg">
<rect width="119" height="40" fill="#E25D23"/>
<path fill-rule="evenodd" clip-rule="evenodd" d="M30.0672 26.0757C30.2669 27.5698 30.3825 29.1687 30.3825 30.8828C30.3825 32.5815 30.3241 34.1479 30.2234 35.5951C35.1989 32.6056 38.5218 27.2033 38.5218 21.0351C38.5218 11.6271 30.7942 4.00088 21.2609 4.00088C19.0708 3.9775 17.0583 4.42198 15.3834 5.00615L15.3933 5.01551C15.4361 5.0003 15.4784 4.98452 15.5212 4.96965C16.3371 5.3731 19.8893 7.93118 21.2609 9.04207C21.995 9.59031 28.1546 14.4786 29.9073 25.0101H25.7186C25.4314 22.8305 23.5452 21.1494 21.2618 21.1494C18.9767 21.1494 17.0906 22.8305 16.8033 25.0101H12.702L12.5419 26.0757H16.7922C17.0376 28.2964 18.9445 30.025 21.2617 30.025C23.5773 30.025 25.4841 28.2964 25.7296 26.0757H30.0672Z" fill="white"/>
<path fill-rule="evenodd" clip-rule="evenodd" d="M12.4546 26.0757C12.255 27.5698 12.1393 29.1687 12.1393 30.8828C12.1393 32.5815 12.1977 34.1479 12.2985 35.5951C7.32302 32.6056 4.00011 27.2033 4.00011 21.0351C4.00011 11.6271 11.7278 4.00088 21.261 4.00088C23.4511 3.9775 25.4636 4.42198 27.1386 5.00615L27.1286 5.01551C27.0859 5.0003 27.0435 4.98452 27.0007 4.96965C26.1848 5.3731 22.6326 7.93118 21.261 9.04207C20.5269 9.59031 14.3673 14.4786 12.6146 25.0101H16.8033C17.0906 22.8305 18.9766 21.1494 21.2601 21.1494C23.5452 21.1494 25.4313 22.8305 25.7186 25.0101H29.8198L29.98 26.0757H25.7297C25.4843 28.2964 23.5773 30.025 21.2602 30.025C18.9446 30.025 17.0378 28.2964 16.7924 26.0757H12.4546Z" fill="white"/>
<path fill-rule="evenodd" clip-rule="evenodd" d="M12.7021 25.0102C14.4548 14.4785 20.5268 9.59037 21.2609 9.04208C19.8893 7.93118 16.3372 5.3731 15.5212 4.96965C8.81081 7.30422 4 13.6144 4 21.0351C4 27.2404 7.36363 32.669 12.3893 35.6466C12.286 34.1847 12.2273 32.6019 12.2273 30.8827C12.2273 29.1687 12.343 27.5698 12.5419 26.0756L12.7021 25.0101V25.0102Z" fill="white"/>
<path d="M47.578 21.0951C48.9023 21.0951 50.1525 20.4791 50.1525 19.0084C50.1525 17.6118 48.9023 16.9034 47.578 16.9034H46.1253V21.0951H47.578ZM47.339 14.0003C51.1085 14.0003 53.1128 16.3046 53.1128 19.0084C53.1128 21.73 51.1085 24.0165 47.339 24.0165H46.1254V26.702H43V14.0003H47.339H47.339Z" fill="white"/>
<path d="M58.7739 22.021H60.6494L59.7115 19.5532L58.7739 22.021ZM57.0271 26.702H53.5524L58.8105 14.0003H60.6864L65.8712 26.702H62.3962L61.7342 24.9425H57.689L57.027 26.702H57.0271Z" fill="white"/>
<path d="M73.2794 22.5838C72.8747 21.9668 72.5803 21.7671 71.9368 21.7671H71.2383V26.7018H68.1129V14.0001H71.2383V18.7902H71.9187C72.5622 18.7902 72.8559 18.5725 73.2607 17.9737L75.8349 14H79.3469L76.2028 18.8817C75.5037 19.8245 75.0996 20.0604 74.8602 20.2239C75.1177 20.3692 75.5224 20.5873 76.2215 21.6757L79.4754 26.7017H75.9452L73.2794 22.5838Z" fill="white"/>
<path d="M90.3946 18.882V21.8034H85.21V23.7807H90.8916V26.702H82.0839V14.0003H90.8916V16.9034H85.21V18.882H90.3946Z" fill="white"/>
<path d="M99.2559 26.702H96.1298V16.9034H92.8384V14.0003H102.547V16.9034H99.2559V26.702Z" fill="white"/>
<path d="M107.62 22.021H109.495L108.558 19.5532L107.62 22.021ZM105.873 26.702H102.398L107.656 14.0003H109.533L114.718 26.702H111.242L110.58 24.9425H106.535L105.873 26.702Z" fill="white"/>
</svg>
