<svg width="107" height="30" viewBox="0 0 107 30" fill="none" xmlns="http://www.w3.org/2000/svg">
<rect width="107" height="30" fill="#61DAFB"/>
<path d="M33.1562 9.625H37.1797C38.0443 9.625 38.7812 9.75521 39.3906 10.0156C40 10.276 40.4661 10.6615 40.7891 11.1719C41.1172 11.6771 41.2812 12.3021 41.2812 13.0469C41.2812 13.6146 41.1771 14.1146 40.9688 14.5469C40.7604 14.9792 40.4661 15.3438 40.0859 15.6406C39.7057 15.9323 39.2526 16.1589 38.7266 16.3203L38.1328 16.6094H34.5156L34.5 15.0547H37.2109C37.6797 15.0547 38.0703 14.9714 38.3828 14.8047C38.6953 14.638 38.9297 14.4115 39.0859 14.125C39.2474 13.8333 39.3281 13.5052 39.3281 13.1406C39.3281 12.7448 39.25 12.401 39.0938 12.1094C38.9427 11.8125 38.7083 11.5859 38.3906 11.4297C38.0729 11.2682 37.6693 11.1875 37.1797 11.1875H35.1172V21H33.1562V9.625ZM39.6484 21L36.9766 15.8906L39.0312 15.8828L41.7422 20.8984V21H39.6484ZM50.6797 19.4453V21H44.6406V19.4453H50.6797ZM45.1953 9.625V21H43.2344V9.625H45.1953ZM49.8906 14.375V15.9062H44.6406V14.375H49.8906ZM50.6406 9.625V11.1875H44.6406V9.625H50.6406ZM56.7109 11.1406L53.3125 21H51.2578L55.5391 9.625H56.8516L56.7109 11.1406ZM59.5547 21L56.1484 11.1406L56 9.625H57.3203L61.6172 21H59.5547ZM59.3906 16.7812V18.3359H53.2031V16.7812H59.3906ZM69.4844 17.2969H71.4375C71.375 18.0417 71.1667 18.7057 70.8125 19.2891C70.4583 19.8672 69.9609 20.3229 69.3203 20.6562C68.6797 20.9896 67.901 21.1562 66.9844 21.1562C66.2812 21.1562 65.6484 21.0312 65.0859 20.7812C64.5234 20.526 64.0417 20.1667 63.6406 19.7031C63.2396 19.2344 62.9323 18.6693 62.7188 18.0078C62.5104 17.3464 62.4062 16.6068 62.4062 15.7891V14.8438C62.4062 14.026 62.513 13.2865 62.7266 12.625C62.9453 11.9635 63.2578 11.3984 63.6641 10.9297C64.0703 10.4557 64.5573 10.0938 65.125 9.84375C65.6979 9.59375 66.3411 9.46875 67.0547 9.46875C67.9609 9.46875 68.7266 9.63542 69.3516 9.96875C69.9766 10.3021 70.4609 10.763 70.8047 11.3516C71.1536 11.9401 71.3672 12.6146 71.4453 13.375H69.4922C69.4401 12.8854 69.3255 12.4661 69.1484 12.1172C68.9766 11.7682 68.7214 11.5026 68.3828 11.3203C68.0443 11.1328 67.6016 11.0391 67.0547 11.0391C66.6068 11.0391 66.2161 11.1224 65.8828 11.2891C65.5495 11.4557 65.2708 11.7005 65.0469 12.0234C64.8229 12.3464 64.6536 12.7448 64.5391 13.2188C64.4297 13.6875 64.375 14.224 64.375 14.8281V15.7891C64.375 16.362 64.4245 16.8828 64.5234 17.3516C64.6276 17.8151 64.7839 18.2135 64.9922 18.5469C65.2057 18.8802 65.4766 19.138 65.8047 19.3203C66.1328 19.5026 66.526 19.5938 66.9844 19.5938C67.5417 19.5938 67.9922 19.5052 68.3359 19.3281C68.6849 19.151 68.9479 18.8932 69.125 18.5547C69.3073 18.2109 69.4271 17.7917 69.4844 17.2969ZM77.6641 9.625V21H75.7188V9.625H77.6641ZM81.2344 9.625V11.1875H72.1797V9.625H81.2344ZM80.8125 20.0625C80.8125 19.7708 80.9115 19.526 81.1094 19.3281C81.3073 19.125 81.5755 19.0234 81.9141 19.0234C82.2578 19.0234 82.526 19.125 82.7188 19.3281C82.9167 19.526 83.0156 19.7708 83.0156 20.0625C83.0156 20.3542 82.9167 20.599 82.7188 20.7969C82.526 20.9948 82.2578 21.0938 81.9141 21.0938C81.5755 21.0938 81.3073 20.9948 81.1094 20.7969C80.9115 20.599 80.8125 20.3542 80.8125 20.0625ZM90.0547 17.5859V9.625H92.0078V17.5859C92.0078 18.3411 91.8464 18.9844 91.5234 19.5156C91.2005 20.0469 90.7604 20.4531 90.2031 20.7344C89.6458 21.0156 89.013 21.1562 88.3047 21.1562C87.5807 21.1562 86.9375 21.0339 86.375 20.7891C85.8177 20.5443 85.3802 20.1693 85.0625 19.6641C84.7448 19.1589 84.5859 18.5182 84.5859 17.7422H86.5547C86.5547 18.1901 86.625 18.5521 86.7656 18.8281C86.9115 19.099 87.1146 19.2969 87.375 19.4219C87.6406 19.5417 87.9505 19.6016 88.3047 19.6016C88.6432 19.6016 88.9427 19.526 89.2031 19.375C89.4688 19.2188 89.6771 18.9922 89.8281 18.6953C89.9792 18.3932 90.0547 18.0234 90.0547 17.5859ZM100.25 18.0703C100.25 17.8359 100.214 17.6276 100.141 17.4453C100.073 17.263 99.9505 17.0964 99.7734 16.9453C99.5964 16.7943 99.3464 16.6484 99.0234 16.5078C98.7057 16.362 98.2995 16.2135 97.8047 16.0625C97.263 15.8958 96.763 15.7109 96.3047 15.5078C95.8516 15.2995 95.4557 15.0599 95.1172 14.7891C94.7786 14.513 94.5156 14.1979 94.3281 13.8438C94.1406 13.4844 94.0469 13.0703 94.0469 12.6016C94.0469 12.138 94.1432 11.7161 94.3359 11.3359C94.5339 10.9557 94.8125 10.6276 95.1719 10.3516C95.5365 10.0703 95.9661 9.85417 96.4609 9.70312C96.9557 9.54688 97.5026 9.46875 98.1016 9.46875C98.9453 9.46875 99.6719 9.625 100.281 9.9375C100.896 10.25 101.367 10.6693 101.695 11.1953C102.029 11.7214 102.195 12.3021 102.195 12.9375H100.25C100.25 12.5625 100.169 12.2318 100.008 11.9453C99.8516 11.6536 99.612 11.4245 99.2891 11.2578C98.9714 11.0911 98.5677 11.0078 98.0781 11.0078C97.6146 11.0078 97.2292 11.0781 96.9219 11.2188C96.6146 11.3594 96.3854 11.5495 96.2344 11.7891C96.0833 12.0286 96.0078 12.2995 96.0078 12.6016C96.0078 12.8151 96.0573 13.0104 96.1562 13.1875C96.2552 13.3594 96.4062 13.5208 96.6094 13.6719C96.8125 13.8177 97.0677 13.9557 97.375 14.0859C97.6823 14.2161 98.0443 14.3411 98.4609 14.4609C99.0911 14.6484 99.6406 14.8568 100.109 15.0859C100.578 15.3099 100.969 15.5651 101.281 15.8516C101.594 16.138 101.828 16.4635 101.984 16.8281C102.141 17.1875 102.219 17.5964 102.219 18.0547C102.219 18.5339 102.122 18.9661 101.93 19.3516C101.737 19.7318 101.461 20.0573 101.102 20.3281C100.747 20.5938 100.32 20.7995 99.8203 20.9453C99.3255 21.0859 98.7734 21.1562 98.1641 21.1562C97.6172 21.1562 97.0781 21.0833 96.5469 20.9375C96.0208 20.7917 95.5417 20.5703 95.1094 20.2734C94.6771 19.9714 94.3333 19.5964 94.0781 19.1484C93.8229 18.6953 93.6953 18.1667 93.6953 17.5625H95.6562C95.6562 17.9323 95.7188 18.2474 95.8438 18.5078C95.974 18.7682 96.1536 18.9818 96.3828 19.1484C96.612 19.3099 96.8776 19.4297 97.1797 19.5078C97.487 19.5859 97.8151 19.625 98.1641 19.625C98.6224 19.625 99.0052 19.5599 99.3125 19.4297C99.625 19.2995 99.8594 19.1172 100.016 18.8828C100.172 18.6484 100.25 18.3776 100.25 18.0703Z" fill="white"/>
<g clip-path="url(#clip0_703_231)">
<path d="M16.5 17.2039C17.7306 17.2039 18.7283 16.2172 18.7283 15C18.7283 13.7828 17.7306 12.7961 16.5 12.7961C15.2694 12.7961 14.2717 13.7828 14.2717 15C14.2717 16.2172 15.2694 17.2039 16.5 17.2039Z" fill="white"/>
<path d="M16.5 19.5154C23.1034 19.5154 28.4565 17.4938 28.4565 15C28.4565 12.5062 23.1034 10.4846 16.5 10.4846C9.89657 10.4846 4.54346 12.5062 4.54346 15C4.54346 17.4938 9.89657 19.5154 16.5 19.5154Z" stroke="white"/>
<path d="M12.5464 17.2577C15.8481 22.9139 20.2948 26.4885 22.4783 25.2416C24.6618 23.9947 23.7553 18.3986 20.4536 12.7423C17.1519 7.08606 12.7053 3.51155 10.5217 4.75843C8.33824 6.00531 9.24471 11.6014 12.5464 17.2577Z" stroke="white"/>
<path d="M12.5464 12.7423C9.24467 18.3986 8.3382 23.9947 10.5217 25.2416C12.7052 26.4885 17.1519 22.9139 20.4536 17.2577C23.7553 11.6014 24.6617 6.00531 22.4782 4.75843C20.2947 3.51155 15.8481 7.08606 12.5464 12.7423Z" stroke="white"/>
</g>
<defs>
<clipPath id="clip0_703_231">
<rect width="25" height="22" fill="white" transform="translate(4 4)"/>
</clipPath>
</defs>
</svg>
