<svg width="100" height="30" viewBox="0 0 100 30" fill="none" xmlns="http://www.w3.org/2000/svg">
<rect width="100" height="30" fill="#61DAFB"/>
<path d="M33.1562 9.625H37.1797C38.0443 9.625 38.7812 9.75521 39.3906 10.0156C40 10.276 40.4661 10.6615 40.7891 11.1719C41.1172 11.6771 41.2812 12.3021 41.2812 13.0469C41.2812 13.6146 41.1771 14.1146 40.9688 14.5469C40.7604 14.9792 40.4661 15.3438 40.0859 15.6406C39.7057 15.9323 39.2526 16.1589 38.7266 16.3203L38.1328 16.6094H34.5156L34.5 15.0547H37.2109C37.6797 15.0547 38.0703 14.9714 38.3828 14.8047C38.6953 14.638 38.9297 14.4115 39.0859 14.125C39.2474 13.8333 39.3281 13.5052 39.3281 13.1406C39.3281 12.7448 39.25 12.401 39.0938 12.1094C38.9427 11.8125 38.7083 11.5859 38.3906 11.4297C38.0729 11.2682 37.6693 11.1875 37.1797 11.1875H35.1172V21H33.1562V9.625ZM39.6484 21L36.9766 15.8906L39.0312 15.8828L41.7422 20.8984V21H39.6484ZM46.7734 21.1562C46.1484 21.1562 45.5833 21.0547 45.0781 20.8516C44.5781 20.6432 44.151 20.3542 43.7969 19.9844C43.4479 19.6146 43.1797 19.1797 42.9922 18.6797C42.8047 18.1797 42.7109 17.6406 42.7109 17.0625V16.75C42.7109 16.0885 42.8073 15.4896 43 14.9531C43.1927 14.4167 43.4609 13.9583 43.8047 13.5781C44.1484 13.1927 44.5547 12.8984 45.0234 12.6953C45.4922 12.4922 46 12.3906 46.5469 12.3906C47.151 12.3906 47.6797 12.4922 48.1328 12.6953C48.5859 12.8984 48.9609 13.1849 49.2578 13.5547C49.5599 13.9193 49.7839 14.3542 49.9297 14.8594C50.0807 15.3646 50.1562 15.9219 50.1562 16.5312V17.3359H43.625V15.9844H48.2969V15.8359C48.2865 15.4974 48.2188 15.1797 48.0938 14.8828C47.974 14.5859 47.7891 14.3464 47.5391 14.1641C47.2891 13.9818 46.9557 13.8906 46.5391 13.8906C46.2266 13.8906 45.9479 13.9583 45.7031 14.0938C45.4635 14.224 45.263 14.4141 45.1016 14.6641C44.9401 14.9141 44.8151 15.2161 44.7266 15.5703C44.6432 15.9193 44.6016 16.3125 44.6016 16.75V17.0625C44.6016 17.4323 44.651 17.776 44.75 18.0938C44.8542 18.4062 45.0052 18.6797 45.2031 18.9141C45.401 19.1484 45.6406 19.3333 45.9219 19.4688C46.2031 19.599 46.5234 19.6641 46.8828 19.6641C47.3359 19.6641 47.7396 19.5729 48.0938 19.3906C48.4479 19.2083 48.7552 18.9505 49.0156 18.6172L50.0078 19.5781C49.8255 19.8438 49.5885 20.099 49.2969 20.3438C49.0052 20.5833 48.6484 20.7786 48.2266 20.9297C47.8099 21.0807 47.3255 21.1562 46.7734 21.1562ZM56.3906 19.3047V15.2734C56.3906 14.9714 56.3359 14.7109 56.2266 14.4922C56.1172 14.2734 55.9505 14.1042 55.7266 13.9844C55.5078 13.8646 55.2318 13.8047 54.8984 13.8047C54.5911 13.8047 54.3255 13.8568 54.1016 13.9609C53.8776 14.0651 53.7031 14.2057 53.5781 14.3828C53.4531 14.5599 53.3906 14.7604 53.3906 14.9844H51.5156C51.5156 14.651 51.5964 14.3281 51.7578 14.0156C51.9193 13.7031 52.1536 13.4245 52.4609 13.1797C52.7682 12.9349 53.1354 12.7422 53.5625 12.6016C53.9896 12.4609 54.4688 12.3906 55 12.3906C55.6354 12.3906 56.1979 12.4974 56.6875 12.7109C57.1823 12.9245 57.5703 13.2474 57.8516 13.6797C58.138 14.1068 58.2812 14.6432 58.2812 15.2891V19.0469C58.2812 19.4323 58.3073 19.7786 58.3594 20.0859C58.4167 20.388 58.4974 20.651 58.6016 20.875V21H56.6719C56.5833 20.7969 56.513 20.5391 56.4609 20.2266C56.4141 19.9089 56.3906 19.6016 56.3906 19.3047ZM56.6641 15.8594L56.6797 17.0234H55.3281C54.9792 17.0234 54.6719 17.0573 54.4062 17.125C54.1406 17.1875 53.9193 17.2812 53.7422 17.4062C53.5651 17.5312 53.4323 17.6823 53.3438 17.8594C53.2552 18.0365 53.2109 18.237 53.2109 18.4609C53.2109 18.6849 53.263 18.8906 53.3672 19.0781C53.4714 19.2604 53.6224 19.4036 53.8203 19.5078C54.0234 19.612 54.2682 19.6641 54.5547 19.6641C54.9401 19.6641 55.276 19.5859 55.5625 19.4297C55.8542 19.2682 56.0833 19.0729 56.25 18.8438C56.4167 18.6094 56.5052 18.388 56.5156 18.1797L57.125 19.0156C57.0625 19.2292 56.9557 19.4583 56.8047 19.7031C56.6536 19.9479 56.4557 20.1823 56.2109 20.4062C55.9714 20.625 55.6823 20.8047 55.3438 20.9453C55.0104 21.0859 54.625 21.1562 54.1875 21.1562C53.6354 21.1562 53.1432 21.0469 52.7109 20.8281C52.2786 20.6042 51.9401 20.3047 51.6953 19.9297C51.4505 19.5495 51.3281 19.1198 51.3281 18.6406C51.3281 18.1927 51.4115 17.7969 51.5781 17.4531C51.75 17.1042 52 16.8125 52.3281 16.5781C52.6615 16.3438 53.0677 16.1667 53.5469 16.0469C54.026 15.9219 54.5729 15.8594 55.1875 15.8594H56.6641ZM63.7031 19.6562C64.0104 19.6562 64.2865 19.5964 64.5312 19.4766C64.7812 19.3516 64.9818 19.1797 65.1328 18.9609C65.2891 18.7422 65.375 18.4896 65.3906 18.2031H67.1641C67.1536 18.75 66.9922 19.2474 66.6797 19.6953C66.3672 20.1432 65.9531 20.5 65.4375 20.7656C64.9219 21.026 64.3516 21.1562 63.7266 21.1562C63.0807 21.1562 62.5182 21.0469 62.0391 20.8281C61.5599 20.6042 61.1615 20.2969 60.8438 19.9062C60.526 19.5156 60.2865 19.0651 60.125 18.5547C59.9688 18.0443 59.8906 17.4974 59.8906 16.9141V16.6406C59.8906 16.0573 59.9688 15.5104 60.125 15C60.2865 14.4844 60.526 14.0312 60.8438 13.6406C61.1615 13.25 61.5599 12.9453 62.0391 12.7266C62.5182 12.5026 63.0781 12.3906 63.7188 12.3906C64.3958 12.3906 64.9896 12.526 65.5 12.7969C66.0104 13.0625 66.4115 13.4349 66.7031 13.9141C67 14.388 67.1536 14.9401 67.1641 15.5703H65.3906C65.375 15.2578 65.2969 14.9766 65.1562 14.7266C65.0208 14.4714 64.8281 14.2682 64.5781 14.1172C64.3333 13.9661 64.0391 13.8906 63.6953 13.8906C63.3151 13.8906 63 13.9688 62.75 14.125C62.5 14.276 62.3047 14.4844 62.1641 14.75C62.0234 15.0104 61.9219 15.3047 61.8594 15.6328C61.8021 15.9557 61.7734 16.2917 61.7734 16.6406V16.9141C61.7734 17.263 61.8021 17.6016 61.8594 17.9297C61.9167 18.2578 62.0156 18.5521 62.1562 18.8125C62.3021 19.0677 62.5 19.2734 62.75 19.4297C63 19.5807 63.3177 19.6562 63.7031 19.6562ZM72.4844 12.5469V13.9219H67.7188V12.5469H72.4844ZM69.0938 10.4766H70.9766V18.6641C70.9766 18.9245 71.013 19.125 71.0859 19.2656C71.1641 19.401 71.2708 19.4922 71.4062 19.5391C71.5417 19.5859 71.7005 19.6094 71.8828 19.6094C72.013 19.6094 72.138 19.6016 72.2578 19.5859C72.3776 19.5703 72.474 19.5547 72.5469 19.5391L72.5547 20.9766C72.3984 21.0234 72.2161 21.0651 72.0078 21.1016C71.8047 21.138 71.5703 21.1562 71.3047 21.1562C70.8724 21.1562 70.4896 21.0807 70.1562 20.9297C69.8229 20.7734 69.5625 20.5208 69.375 20.1719C69.1875 19.8229 69.0938 19.3594 69.0938 18.7812V10.4766ZM74.0156 20.0625C74.0156 19.7708 74.1146 19.526 74.3125 19.3281C74.5104 19.125 74.7786 19.0234 75.1172 19.0234C75.4609 19.0234 75.7292 19.125 75.9219 19.3281C76.1198 19.526 76.2188 19.7708 76.2188 20.0625C76.2188 20.3542 76.1198 20.599 75.9219 20.7969C75.7292 20.9948 75.4609 21.0938 75.1172 21.0938C74.7786 21.0938 74.5104 20.9948 74.3125 20.7969C74.1146 20.599 74.0156 20.3542 74.0156 20.0625ZM83.2578 17.5859V9.625H85.2109V17.5859C85.2109 18.3411 85.0495 18.9844 84.7266 19.5156C84.4036 20.0469 83.9635 20.4531 83.4062 20.7344C82.849 21.0156 82.2161 21.1562 81.5078 21.1562C80.7839 21.1562 80.1406 21.0339 79.5781 20.7891C79.0208 20.5443 78.5833 20.1693 78.2656 19.6641C77.9479 19.1589 77.7891 18.5182 77.7891 17.7422H79.7578C79.7578 18.1901 79.8281 18.5521 79.9688 18.8281C80.1146 19.099 80.3177 19.2969 80.5781 19.4219C80.8438 19.5417 81.1536 19.6016 81.5078 19.6016C81.8464 19.6016 82.1458 19.526 82.4062 19.375C82.6719 19.2188 82.8802 18.9922 83.0312 18.6953C83.1823 18.3932 83.2578 18.0234 83.2578 17.5859ZM93.4531 18.0703C93.4531 17.8359 93.4167 17.6276 93.3438 17.4453C93.276 17.263 93.1536 17.0964 92.9766 16.9453C92.7995 16.7943 92.5495 16.6484 92.2266 16.5078C91.9089 16.362 91.5026 16.2135 91.0078 16.0625C90.4661 15.8958 89.9661 15.7109 89.5078 15.5078C89.0547 15.2995 88.6589 15.0599 88.3203 14.7891C87.9818 14.513 87.7188 14.1979 87.5312 13.8438C87.3438 13.4844 87.25 13.0703 87.25 12.6016C87.25 12.138 87.3464 11.7161 87.5391 11.3359C87.737 10.9557 88.0156 10.6276 88.375 10.3516C88.7396 10.0703 89.1693 9.85417 89.6641 9.70312C90.1589 9.54688 90.7057 9.46875 91.3047 9.46875C92.1484 9.46875 92.875 9.625 93.4844 9.9375C94.099 10.25 94.5703 10.6693 94.8984 11.1953C95.2318 11.7214 95.3984 12.3021 95.3984 12.9375H93.4531C93.4531 12.5625 93.3724 12.2318 93.2109 11.9453C93.0547 11.6536 92.8151 11.4245 92.4922 11.2578C92.1745 11.0911 91.7708 11.0078 91.2812 11.0078C90.8177 11.0078 90.4323 11.0781 90.125 11.2188C89.8177 11.3594 89.5885 11.5495 89.4375 11.7891C89.2865 12.0286 89.2109 12.2995 89.2109 12.6016C89.2109 12.8151 89.2604 13.0104 89.3594 13.1875C89.4583 13.3594 89.6094 13.5208 89.8125 13.6719C90.0156 13.8177 90.2708 13.9557 90.5781 14.0859C90.8854 14.2161 91.2474 14.3411 91.6641 14.4609C92.2943 14.6484 92.8438 14.8568 93.3125 15.0859C93.7812 15.3099 94.1719 15.5651 94.4844 15.8516C94.7969 16.138 95.0312 16.4635 95.1875 16.8281C95.3438 17.1875 95.4219 17.5964 95.4219 18.0547C95.4219 18.5339 95.3255 18.9661 95.1328 19.3516C94.9401 19.7318 94.6641 20.0573 94.3047 20.3281C93.9505 20.5938 93.5234 20.7995 93.0234 20.9453C92.5286 21.0859 91.9766 21.1562 91.3672 21.1562C90.8203 21.1562 90.2812 21.0833 89.75 20.9375C89.224 20.7917 88.7448 20.5703 88.3125 20.2734C87.8802 19.9714 87.5365 19.5964 87.2812 19.1484C87.026 18.6953 86.8984 18.1667 86.8984 17.5625H88.8594C88.8594 17.9323 88.9219 18.2474 89.0469 18.5078C89.1771 18.7682 89.3568 18.9818 89.5859 19.1484C89.8151 19.3099 90.0807 19.4297 90.3828 19.5078C90.6901 19.5859 91.0182 19.625 91.3672 19.625C91.8255 19.625 92.2083 19.5599 92.5156 19.4297C92.8281 19.2995 93.0625 19.1172 93.2188 18.8828C93.375 18.6484 93.4531 18.3776 93.4531 18.0703Z" fill="white"/>
<g clip-path="url(#clip0_703_231)">
<path d="M16.5 17.2039C17.7306 17.2039 18.7283 16.2172 18.7283 15C18.7283 13.7828 17.7306 12.7961 16.5 12.7961C15.2694 12.7961 14.2717 13.7828 14.2717 15C14.2717 16.2172 15.2694 17.2039 16.5 17.2039Z" fill="white"/>
<path d="M16.5 19.5154C23.1034 19.5154 28.4565 17.4938 28.4565 15C28.4565 12.5062 23.1034 10.4846 16.5 10.4846C9.89657 10.4846 4.54346 12.5062 4.54346 15C4.54346 17.4938 9.89657 19.5154 16.5 19.5154Z" stroke="white"/>
<path d="M12.5464 17.2577C15.8481 22.9139 20.2948 26.4885 22.4783 25.2416C24.6618 23.9947 23.7553 18.3986 20.4536 12.7423C17.1519 7.08606 12.7053 3.51155 10.5217 4.75843C8.33824 6.00531 9.24471 11.6014 12.5464 17.2577Z" stroke="white"/>
<path d="M12.5464 12.7423C9.24467 18.3986 8.3382 23.9947 10.5217 25.2416C12.7052 26.4885 17.1519 22.9139 20.4536 17.2577C23.7553 11.6014 24.6617 6.00531 22.4782 4.75843C20.2947 3.51155 15.8481 7.08606 12.5464 12.7423Z" stroke="white"/>
</g>
<defs>
<clipPath id="clip0_703_231">
<rect width="25" height="22" fill="white" transform="translate(4 4)"/>
</clipPath>
</defs>
</svg>
