<svg width="302" height="100" viewBox="0 0 302 100" fill="none" xmlns="http://www.w3.org/2000/svg">
<rect width="302" height="100" fill="#61DAFB"/>
<path d="M110.539 36.2853H121.145C123.319 36.2853 125.188 36.6108 126.75 37.2618C128.326 37.9129 129.536 38.8764 130.383 40.1525C131.229 41.4285 131.652 42.9975 131.652 44.8595C131.652 46.3829 131.392 47.6915 130.871 48.7853C130.363 49.866 129.641 50.7709 128.703 51.5001C127.779 52.2163 126.691 52.7892 125.441 53.2189L123.586 54.1954H114.367L114.328 49.6251H121.184C122.212 49.6251 123.065 49.4428 123.742 49.0782C124.419 48.7137 124.927 48.2058 125.266 47.5548C125.617 46.9038 125.793 46.1486 125.793 45.2892C125.793 44.3777 125.624 43.59 125.285 42.9259C124.947 42.2618 124.432 41.754 123.742 41.4025C123.052 41.0509 122.186 40.8751 121.145 40.8751H116.398V64.7228H110.539V36.2853ZM126.438 64.7228L119.953 52.047L126.145 52.0079L132.707 64.4493V64.7228H126.438ZM155.246 60.1525V64.7228H140.109V60.1525H155.246ZM142.023 36.2853V64.7228H136.164V36.2853H142.023ZM153.273 47.8673V52.3204H140.109V47.8673H153.273ZM155.227 36.2853V40.8751H140.109V36.2853H155.227ZM170.227 41.1486L162.492 64.7228H156.262L166.828 36.2853H170.793L170.227 41.1486ZM176.652 64.7228L168.898 41.1486L168.273 36.2853H172.277L182.902 64.7228H176.652ZM176.301 54.1368V58.7267H161.281V54.1368H176.301ZM201.672 55.2892H207.512C207.395 57.2032 206.867 58.9025 205.93 60.3868C205.005 61.8712 203.71 63.0301 202.043 63.8634C200.389 64.6967 198.397 65.1134 196.066 65.1134C194.243 65.1134 192.609 64.8009 191.164 64.1759C189.719 63.5379 188.482 62.6264 187.453 61.4415C186.438 60.2566 185.663 58.8243 185.129 57.1446C184.595 55.465 184.328 53.5834 184.328 51.5001V49.5275C184.328 47.4441 184.602 45.5626 185.148 43.8829C185.708 42.1902 186.503 40.7514 187.531 39.5665C188.573 38.3816 189.816 37.4702 191.262 36.8321C192.707 36.1941 194.322 35.8751 196.105 35.8751C198.475 35.8751 200.474 36.3048 202.102 37.1642C203.742 38.0236 205.012 39.2084 205.91 40.7189C206.822 42.2293 207.368 43.948 207.551 45.8751H201.691C201.626 44.7293 201.398 43.7592 201.008 42.965C200.617 42.1577 200.025 41.5522 199.23 41.1486C198.449 40.7319 197.408 40.5236 196.105 40.5236C195.129 40.5236 194.276 40.7058 193.547 41.0704C192.818 41.435 192.206 41.9884 191.711 42.7306C191.216 43.4728 190.845 44.4103 190.598 45.5431C190.363 46.6629 190.246 47.978 190.246 49.4884V51.5001C190.246 52.9715 190.357 54.267 190.578 55.3868C190.799 56.4936 191.138 57.4311 191.594 58.1993C192.062 58.9545 192.661 59.5275 193.391 59.9181C194.133 60.2957 195.025 60.4845 196.066 60.4845C197.29 60.4845 198.299 60.2892 199.094 59.8986C199.888 59.5079 200.493 58.9285 200.91 58.1603C201.34 57.392 201.594 56.435 201.672 55.2892ZM223.488 36.2853V64.7228H217.648V36.2853H223.488ZM232.238 36.2853V40.8751H209.035V36.2853H232.238ZM230.695 62.0079C230.695 61.1746 230.982 60.478 231.555 59.9181C232.141 59.3582 232.915 59.0782 233.879 59.0782C234.842 59.0782 235.611 59.3582 236.184 59.9181C236.77 60.478 237.062 61.1746 237.062 62.0079C237.062 62.8413 236.77 63.5379 236.184 64.0978C235.611 64.6577 234.842 64.9376 233.879 64.9376C232.915 64.9376 232.141 64.6577 231.555 64.0978C230.982 63.5379 230.695 62.8413 230.695 62.0079ZM253.879 55.9923V36.2853H259.719V55.9923C259.719 57.8933 259.302 59.5275 258.469 60.8946C257.635 62.2488 256.496 63.2905 255.051 64.0196C253.618 64.7488 252.004 65.1134 250.207 65.1134C248.345 65.1134 246.698 64.8009 245.266 64.1759C243.833 63.5509 242.707 62.5939 241.887 61.3048C241.066 60.0027 240.656 58.3556 240.656 56.3634H246.535C246.535 57.4051 246.678 58.2319 246.965 58.8439C247.264 59.4558 247.688 59.892 248.234 60.1525C248.781 60.4129 249.439 60.5431 250.207 60.5431C250.949 60.5431 251.594 60.3673 252.141 60.0157C252.688 59.6642 253.111 59.1499 253.41 58.4728C253.723 57.7957 253.879 56.9689 253.879 55.9923ZM279.523 57.2814C279.523 56.7736 279.445 56.3178 279.289 55.9142C279.146 55.4975 278.872 55.1199 278.469 54.7814C278.065 54.4298 277.499 54.0848 276.77 53.7462C276.04 53.4077 275.096 53.0561 273.938 52.6915C272.648 52.2749 271.424 51.8061 270.266 51.2853C269.12 50.7644 268.104 50.159 267.219 49.4689C266.346 48.7657 265.656 47.9519 265.148 47.0275C264.654 46.103 264.406 45.0288 264.406 43.8048C264.406 42.6199 264.667 41.5457 265.188 40.5821C265.708 39.6056 266.438 38.7723 267.375 38.0821C268.312 37.379 269.419 36.8387 270.695 36.4611C271.984 36.0834 273.397 35.8946 274.934 35.8946C277.03 35.8946 278.859 36.2723 280.422 37.0275C281.984 37.7827 283.195 38.8178 284.055 40.1329C284.927 41.448 285.363 42.9519 285.363 44.6446H279.543C279.543 43.8113 279.367 43.0821 279.016 42.4571C278.677 41.8191 278.156 41.3178 277.453 40.9532C276.763 40.5887 275.891 40.4064 274.836 40.4064C273.82 40.4064 272.974 40.5626 272.297 40.8751C271.62 41.1746 271.112 41.5848 270.773 42.1056C270.435 42.6134 270.266 43.1863 270.266 43.8243C270.266 44.3061 270.383 44.7423 270.617 45.1329C270.865 45.5236 271.229 45.8881 271.711 46.2267C272.193 46.5652 272.785 46.8842 273.488 47.1837C274.191 47.4832 275.005 47.7762 275.93 48.0626C277.479 48.5314 278.84 49.0587 280.012 49.6446C281.197 50.2306 282.186 50.8881 282.98 51.6173C283.775 52.3465 284.374 53.1733 284.777 54.0978C285.181 55.0223 285.383 56.0704 285.383 57.2423C285.383 58.4793 285.142 59.5861 284.66 60.5626C284.178 61.5392 283.482 62.366 282.57 63.0431C281.659 63.7202 280.572 64.2345 279.309 64.5861C278.046 64.9376 276.633 65.1134 275.07 65.1134C273.664 65.1134 272.277 64.9311 270.91 64.5665C269.543 64.1889 268.299 63.6225 267.18 62.8673C266.073 62.1121 265.188 61.1486 264.523 59.9767C263.859 58.8048 263.527 57.4181 263.527 55.8165H269.406C269.406 56.7019 269.543 57.4506 269.816 58.0626C270.09 58.6746 270.474 59.1694 270.969 59.547C271.477 59.9246 272.076 60.198 272.766 60.3673C273.469 60.5366 274.237 60.6212 275.07 60.6212C276.086 60.6212 276.919 60.478 277.57 60.1915C278.234 59.9051 278.723 59.5079 279.035 59.0001C279.361 58.4923 279.523 57.9194 279.523 57.2814Z" fill="white"/>
<g clip-path="url(#clip0_702_230)">
<path d="M54 56.448C57.8396 56.448 60.9522 53.3395 60.9522 49.505C60.9522 45.6704 57.8396 42.5619 54 42.5619C50.1604 42.5619 47.0478 45.6704 47.0478 49.505C47.0478 53.3395 50.1604 56.448 54 56.448Z" fill="white"/>
<path d="M54 63.7298C74.6026 63.7298 91.3043 57.3611 91.3043 49.5049C91.3043 41.6488 74.6026 35.2801 54 35.2801C33.3974 35.2801 16.6957 41.6488 16.6957 49.5049C16.6957 57.3611 33.3974 63.7298 54 63.7298Z" stroke="white" stroke-width="3"/>
<path d="M41.6648 56.6174C51.9661 74.4364 65.8396 85.6972 72.6522 81.7691C79.4647 77.841 76.6365 60.2116 66.3352 42.3925C56.0339 24.5735 42.1604 13.3127 35.3478 17.2408C28.5353 21.1689 31.3635 38.7983 41.6648 56.6174Z" stroke="white" stroke-width="3"/>
<path d="M41.6648 42.3925C31.3635 60.2116 28.5353 77.841 35.3478 81.7691C42.1604 85.6972 56.0339 74.4364 66.3352 56.6174C76.6365 38.7983 79.4647 21.1689 72.6522 17.2408C65.8396 13.3127 51.9661 24.5735 41.6648 42.3925Z" stroke="white" stroke-width="3"/>
</g>
<defs>
<clipPath id="clip0_702_230">
<rect width="78" height="69.3069" fill="white" transform="translate(15 14.8515)"/>
</clipPath>
</defs>
</svg>
