<svg width="137" height="30" viewBox="0 0 137 30" fill="none" xmlns="http://www.w3.org/2000/svg">
<rect width="137" height="30" fill="#61DAFB"/>
<path d="M33.6621 6.64844H39.4458C40.6886 6.64844 41.748 6.83561 42.624 7.20996C43.5 7.58431 44.1701 8.13835 44.6343 8.87207C45.106 9.59831 45.3418 10.4967 45.3418 11.5674C45.3418 12.3835 45.1921 13.1022 44.8926 13.7236C44.5931 14.3451 44.1701 14.8691 43.6235 15.2959C43.077 15.7152 42.4256 16.0409 41.6694 16.2729L40.8159 16.6885H35.6162L35.5938 14.4536H39.4907C40.1646 14.4536 40.7261 14.3338 41.1753 14.0942C41.6245 13.8547 41.9614 13.529 42.186 13.1172C42.4181 12.6979 42.5342 12.2262 42.5342 11.7021C42.5342 11.1331 42.4219 10.639 42.1973 10.2197C41.9801 9.79297 41.6432 9.46729 41.1865 9.24268C40.7298 9.01058 40.1496 8.89453 39.4458 8.89453H36.481V23H33.6621V6.64844ZM42.9946 23L39.1538 15.6553L42.1074 15.644L46.0044 22.854V23H42.9946ZM58.8521 20.7651V23H50.1709V20.7651H58.8521ZM50.9683 6.64844V23H48.1494V6.64844H50.9683ZM57.7178 13.4766V15.6777H50.1709V13.4766H57.7178ZM58.7959 6.64844V8.89453H50.1709V6.64844H58.7959ZM67.522 8.82715L62.6367 23H59.6831L65.8374 6.64844H67.7241L67.522 8.82715ZM71.6099 23L66.7134 8.82715L66.5 6.64844H68.3979L74.5747 23H71.6099ZM71.374 16.9355V19.1704H62.4795V16.9355H71.374ZM85.8838 17.6768H88.6914C88.6016 18.7474 88.3021 19.702 87.793 20.5405C87.2839 21.3716 86.5688 22.0267 85.6479 22.5059C84.7271 22.985 83.6077 23.2246 82.29 23.2246C81.2793 23.2246 80.3696 23.0449 79.561 22.6855C78.7524 22.3187 78.0599 21.8021 77.4834 21.1357C76.9069 20.4619 76.4652 19.6496 76.1582 18.6987C75.8587 17.7479 75.709 16.6847 75.709 15.5093V14.1504C75.709 12.9749 75.8625 11.9118 76.1694 10.9609C76.4839 10.0101 76.9331 9.19775 77.5171 8.52393C78.1011 7.84261 78.8011 7.32227 79.6172 6.96289C80.4408 6.60352 81.3654 6.42383 82.3911 6.42383C83.6938 6.42383 84.7944 6.66341 85.6929 7.14258C86.5913 7.62174 87.2876 8.28434 87.7817 9.13037C88.2834 9.9764 88.5903 10.946 88.7026 12.0391H85.895C85.8201 11.3353 85.6554 10.7326 85.4009 10.231C85.1538 9.72933 84.7869 9.34749 84.3003 9.08545C83.8136 8.81592 83.1772 8.68115 82.3911 8.68115C81.7472 8.68115 81.1857 8.80094 80.7065 9.04053C80.2274 9.28011 79.8268 9.632 79.5049 10.0962C79.1829 10.5604 78.9396 11.1331 78.7749 11.8145C78.6177 12.4883 78.5391 13.2594 78.5391 14.1279V15.5093C78.5391 16.3328 78.6102 17.0815 78.7524 17.7554C78.9022 18.4217 79.1268 18.9945 79.4263 19.4736C79.7332 19.9528 80.1226 20.3234 80.5942 20.5854C81.0659 20.8475 81.6312 20.9785 82.29 20.9785C83.0911 20.9785 83.7388 20.8512 84.2329 20.5967C84.7345 20.3421 85.1126 19.9715 85.3672 19.4849C85.6292 18.9907 85.8014 18.388 85.8838 17.6768ZM97.6421 6.64844V23H94.8457V6.64844H97.6421ZM102.774 6.64844V8.89453H89.7583V6.64844H102.774ZM102.168 21.6523C102.168 21.2331 102.31 20.8812 102.595 20.5967C102.879 20.3047 103.265 20.1587 103.751 20.1587C104.246 20.1587 104.631 20.3047 104.908 20.5967C105.193 20.8812 105.335 21.2331 105.335 21.6523C105.335 22.0716 105.193 22.4235 104.908 22.708C104.631 22.9925 104.246 23.1348 103.751 23.1348C103.265 23.1348 102.879 22.9925 102.595 22.708C102.31 22.4235 102.168 22.0716 102.168 21.6523ZM115.454 18.0923V6.64844H118.261V18.0923C118.261 19.1779 118.029 20.1025 117.565 20.8662C117.101 21.6299 116.468 22.2139 115.667 22.6182C114.866 23.0225 113.956 23.2246 112.938 23.2246C111.897 23.2246 110.973 23.0487 110.164 22.6968C109.363 22.3449 108.734 21.8058 108.277 21.0796C107.821 20.3534 107.592 19.4325 107.592 18.3169H110.422C110.422 18.9608 110.523 19.4811 110.726 19.8779C110.935 20.2673 111.227 20.5518 111.602 20.7314C111.983 20.9036 112.429 20.9897 112.938 20.9897C113.425 20.9897 113.855 20.8812 114.229 20.6641C114.611 20.4395 114.911 20.1138 115.128 19.687C115.345 19.2528 115.454 18.7212 115.454 18.0923ZM130.109 18.7886C130.109 18.4517 130.057 18.1522 129.952 17.8901C129.855 17.6281 129.679 17.3885 129.424 17.1714C129.17 16.9543 128.81 16.7446 128.346 16.5425C127.889 16.3328 127.306 16.1195 126.594 15.9023C125.816 15.6628 125.097 15.397 124.438 15.105C123.787 14.8055 123.218 14.4611 122.731 14.0718C122.244 13.675 121.866 13.222 121.597 12.7129C121.327 12.1963 121.192 11.6011 121.192 10.9272C121.192 10.2609 121.331 9.65446 121.608 9.10791C121.892 8.56136 122.293 8.08968 122.81 7.69287C123.334 7.28857 123.951 6.97786 124.663 6.76074C125.374 6.53613 126.16 6.42383 127.021 6.42383C128.234 6.42383 129.278 6.64844 130.154 7.09766C131.038 7.54688 131.715 8.14958 132.187 8.90576C132.666 9.66195 132.906 10.4967 132.906 11.4102H130.109C130.109 10.8711 129.993 10.3957 129.761 9.98389C129.537 9.56462 129.192 9.23519 128.728 8.99561C128.271 8.75602 127.691 8.63623 126.987 8.63623C126.321 8.63623 125.767 8.7373 125.325 8.93945C124.883 9.1416 124.554 9.41488 124.337 9.75928C124.12 10.1037 124.011 10.493 124.011 10.9272C124.011 11.2342 124.082 11.515 124.225 11.7695C124.367 12.0166 124.584 12.2487 124.876 12.4658C125.168 12.6755 125.535 12.8739 125.977 13.061C126.418 13.2482 126.939 13.4279 127.538 13.6001C128.444 13.8696 129.233 14.1691 129.907 14.4985C130.581 14.8205 131.143 15.1873 131.592 15.5991C132.041 16.0109 132.378 16.4788 132.603 17.0029C132.827 17.5195 132.939 18.1073 132.939 18.7661C132.939 19.4549 132.801 20.0763 132.524 20.6304C132.247 21.1769 131.85 21.6449 131.333 22.0342C130.824 22.416 130.21 22.7118 129.492 22.9214C128.78 23.1235 127.987 23.2246 127.111 23.2246C126.325 23.2246 125.55 23.1198 124.786 22.9102C124.03 22.7005 123.341 22.3823 122.72 21.9556C122.098 21.5213 121.604 20.9823 121.237 20.3384C120.87 19.687 120.687 18.9271 120.687 18.0586H123.506C123.506 18.5902 123.596 19.0431 123.775 19.4175C123.963 19.7918 124.221 20.0988 124.55 20.3384C124.88 20.5705 125.262 20.7427 125.696 20.855C126.138 20.9673 126.609 21.0234 127.111 21.0234C127.77 21.0234 128.32 20.9299 128.762 20.7427C129.211 20.5555 129.548 20.2935 129.772 19.9565C129.997 19.6196 130.109 19.2303 130.109 18.7886Z" fill="white"/>
<g clip-path="url(#clip0_703_231)">
<path d="M16.5 17.2039C17.7306 17.2039 18.7283 16.2172 18.7283 15C18.7283 13.7828 17.7306 12.7961 16.5 12.7961C15.2694 12.7961 14.2717 13.7828 14.2717 15C14.2717 16.2172 15.2694 17.2039 16.5 17.2039Z" fill="white"/>
<path d="M16.5 19.5154C23.1034 19.5154 28.4565 17.4938 28.4565 15C28.4565 12.5062 23.1034 10.4846 16.5 10.4846C9.89657 10.4846 4.54346 12.5062 4.54346 15C4.54346 17.4938 9.89657 19.5154 16.5 19.5154Z" stroke="white"/>
<path d="M12.5464 17.2577C15.8481 22.9139 20.2948 26.4885 22.4783 25.2416C24.6618 23.9947 23.7553 18.3986 20.4536 12.7423C17.1519 7.08606 12.7053 3.51155 10.5217 4.75843C8.33824 6.00531 9.24471 11.6014 12.5464 17.2577Z" stroke="white"/>
<path d="M12.5464 12.7423C9.24467 18.3986 8.3382 23.9947 10.5217 25.2416C12.7052 26.4885 17.1519 22.9139 20.4536 17.2577C23.7553 11.6014 24.6617 6.00531 22.4782 4.75843C20.2947 3.51155 15.8481 7.08606 12.5464 12.7423Z" stroke="white"/>
</g>
<defs>
<clipPath id="clip0_703_231">
<rect width="25" height="22" fill="white" transform="translate(4 4)"/>
</clipPath>
</defs>
</svg>
